ISO-10303-21;
HEADER;
FILE_DESCRIPTION(('Open CASCADE Model'),'2;1');
FILE_NAME('Open CASCADE Shape Model','2026-10-08T06:35:16',('Author'),(
    'Open CASCADE'),'Open CASCADE STEP processor 7.9','Open CASCADE 7.9'
  ,'Unknown');
FILE_SCHEMA(('AUTOMOTIVE_DESIGN { 1 0 10303 214 1 1 1 1 }'));
ENDSEC;
DATA;
#1 = APPLICATION_PROTOCOL_DEFINITION('international standard',
  'automotive_design',2000,#2);
#2 = APPLICATION_CONTEXT(
  'core data for automotive mechanical design processes');
#3 = SHAPE_DEFINITION_REPRESENTATION(#4,#10);
#4 = PRODUCT_DEFINITION_SHAPE('','',#5);
#5 = PRODUCT_DEFINITION('design','',#6,#9);
#6 = PRODUCT_DEFINITION_FORMATION('','',#7);
#7 = PRODUCT('Open CASCADE STEP translator 7.9 5',
  'Open CASCADE STEP translator 7.9 5','',(#8));
#8 = PRODUCT_CONTEXT('',#2,'mechanical');
#9 = PRODUCT_DEFINITION_CONTEXT('part definition',#2,'design');
#10 = ADVANCED_BREP_SHAPE_REPRESENTATION('',(#11,#15),#1264);
#11 = AXIS2_PLACEMENT_3D('',#12,#13,#14);
#12 = CARTESIAN_POINT('',(0.,0.,0.));
#13 = DIRECTION('',(0.,0.,1.));
#14 = DIRECTION('',(1.,0.,-0.));
#15 = BREP_WITH_VOIDS('',#16,(#910));
#16 = CLOSED_SHELL('',(#17,#365,#627,#906));
#17 = ADVANCED_FACE('',(#18),#85,.T.);
#18 = FACE_BOUND('',#19,.T.);
#19 = EDGE_LOOP('',(#20,#281,#364));
#20 = ORIENTED_EDGE('',*,*,#21,.F.);
#21 = EDGE_CURVE('',#22,#22,#24,.T.);
#22 = VERTEX_POINT('',#23);
#23 = CARTESIAN_POINT('',(81.409168973281,0.,324.));
#24 = SURFACE_CURVE('',#25,(#84,#214),.PCURVE_S1.);
#25 = B_SPLINE_CURVE_WITH_KNOTS('',8,(#26,#27,#28,#29,#30,#31,#32,#33,
    #34,#35,#36,#37,#38,#39,#40,#41,#42,#43,#44,#45,#46,#47,#48,#49,#50,
    #51,#52,#53,#54,#55,#56,#57,#58,#59,#60,#61,#62,#63,#64,#65,#66,#67,
    #68,#69,#70,#71,#72,#73,#74,#75,#76,#77,#78,#79,#80,#81,#82,#83),
  .UNSPECIFIED.,.T.,.F.,(9,7,7,7,7,7,7,7,9),(0.,0.124999999992,
    0.249999999987,0.374999999986,0.499999999988,0.624999999991,
    0.749999999995,0.874999999998,1.),.UNSPECIFIED.);
#26 = CARTESIAN_POINT('',(81.409168973281,-1.695342726263E-14,324.));
#27 = CARTESIAN_POINT('',(81.409169263319,-7.990284580844,324.));
#28 = CARTESIAN_POINT('',(80.51288787549,-15.98601266563,324.));
#29 = CARTESIAN_POINT('',(78.718205941029,-23.86141487409,324.));
#30 = CARTESIAN_POINT('',(76.046653730536,-31.49955534823,324.));
#31 = CARTESIAN_POINT('',(72.534745489874,-38.7896089576,324.));
#32 = CARTESIAN_POINT('',(68.235026949706,-45.62739102965,324.));
#33 = CARTESIAN_POINT('',(63.214960047577,-51.91499122612,324.));
#34 = CARTESIAN_POINT('',(51.914991226123,-63.2149600476,324.));
#35 = CARTESIAN_POINT('',(45.627391029714,-68.23502694957,324.));
#36 = CARTESIAN_POINT('',(38.789608957513,-72.5347454901,324.));
#37 = CARTESIAN_POINT('',(31.499555348318,-76.0466537303,324.));
#38 = CARTESIAN_POINT('',(23.861414874086,-78.71820594114,324.));
#39 = CARTESIAN_POINT('',(15.986012665631,-80.51288787545,324.));
#40 = CARTESIAN_POINT('',(7.990284580857,-81.40916926332,324.));
#41 = CARTESIAN_POINT('',(-7.990284580831,-81.40916926331,324.));
#42 = CARTESIAN_POINT('',(-15.98601266565,-80.51288787549,324.));
#43 = CARTESIAN_POINT('',(-23.861414874,-78.71820594104,324.));
#44 = CARTESIAN_POINT('',(-31.49955534835,-76.04665373047,324.));
#45 = CARTESIAN_POINT('',(-38.78960895746,-72.53474548996,324.));
#46 = CARTESIAN_POINT('',(-45.62739102971,-68.23502694965,324.));
#47 = CARTESIAN_POINT('',(-51.9149912261,-63.21496004759,324.));
#48 = CARTESIAN_POINT('',(-63.21496004758,-51.91499122612,324.));
#49 = CARTESIAN_POINT('',(-68.23502694965,-45.62739102973,324.));
#50 = CARTESIAN_POINT('',(-72.53474548992,-38.78960895752,324.));
#51 = CARTESIAN_POINT('',(-76.04665373051,-31.49955534828,324.));
#52 = CARTESIAN_POINT('',(-78.718205941,-23.86141487413,324.));
#53 = CARTESIAN_POINT('',(-80.51288787551,-15.9860126656,324.));
#54 = CARTESIAN_POINT('',(-81.4091692633,-7.99028458087,324.));
#55 = CARTESIAN_POINT('',(-81.40916926332,7.990284580833,324.));
#56 = CARTESIAN_POINT('',(-80.51288787547,15.986012665603,324.));
#57 = CARTESIAN_POINT('',(-78.71820594111,23.861414874141,324.));
#58 = CARTESIAN_POINT('',(-76.04665373039,31.499555348166,324.));
#59 = CARTESIAN_POINT('',(-72.53474549003,38.789608957623,324.));
#60 = CARTESIAN_POINT('',(-68.23502694961,45.627391029645,324.));
#61 = CARTESIAN_POINT('',(-63.2149600476,51.914991226121,324.));
#62 = CARTESIAN_POINT('',(-51.91499122612,63.214960047604,324.));
#63 = CARTESIAN_POINT('',(-45.62739102974,68.235026949531,324.));
#64 = CARTESIAN_POINT('',(-38.78960895742,72.534745490205,324.));
#65 = CARTESIAN_POINT('',(-31.49955534846,76.04665373017,324.));
#66 = CARTESIAN_POINT('',(-23.86141487397,78.71820594124,324.));
#67 = CARTESIAN_POINT('',(-15.98601266567,80.512887875424,324.));
#68 = CARTESIAN_POINT('',(-7.990284580854,81.409169263325,324.));
#69 = CARTESIAN_POINT('',(7.990284580831,81.409169263343,324.));
#70 = CARTESIAN_POINT('',(15.986012665643,80.512887875379,324.));
#71 = CARTESIAN_POINT('',(23.861414874005,78.718205941312,324.));
#72 = CARTESIAN_POINT('',(31.499555348407,76.046653730121,324.));
#73 = CARTESIAN_POINT('',(38.789608957395,72.534745490255,324.));
#74 = CARTESIAN_POINT('',(45.627391029763,68.235026949513,324.));
#75 = CARTESIAN_POINT('',(51.914991226096,63.214960047628,324.));
#76 = CARTESIAN_POINT('',(63.214960047555,51.914991226127,324.));
#77 = CARTESIAN_POINT('',(68.235026949744,45.627391029741,324.));
#78 = CARTESIAN_POINT('',(72.534745489805,38.78960895738,324.));
#79 = CARTESIAN_POINT('',(76.046653730592,31.499555348597,324.));
#80 = CARTESIAN_POINT('',(78.718205940996,23.86141487378,324.));
#81 = CARTESIAN_POINT('',(80.512887875501,15.986012665799,324.));
#82 = CARTESIAN_POINT('',(81.409169263317,7.990284580806,324.));
#83 = CARTESIAN_POINT('',(81.409168973281,-2.742572547424E-15,324.));
#84 = PCURVE('',#85,#153);
#85 = SURFACE_OF_REVOLUTION('',#86,#150);
#86 = B_SPLINE_CURVE_WITH_KNOTS('',3,(#87,#88,#89,#90,#91,#92,#93,#94,
    #95,#96,#97,#98,#99,#100,#101,#102,#103,#104,#105,#106,#107,#108,
    #109,#110,#111,#112,#113,#114,#115,#116,#117,#118,#119,#120,#121,
    #122,#123,#124,#125,#126,#127,#128,#129,#130,#131,#132,#133,#134,
    #135,#136,#137,#138,#139,#140,#141,#142,#143,#144,#145,#146,#147,
    #148,#149),.UNSPECIFIED.,.F.,.F.,(4,1,1,1,1,1,1,1,1,1,1,1,1,1,1,1,1,
    1,1,1,1,1,1,1,1,1,1,1,1,1,1,1,1,1,1,1,1,1,1,1,1,1,1,1,1,1,1,1,1,1,1,
    1,1,1,1,1,1,1,1,1,4),(0.,7.902864749699,15.802786187668,
    23.697227738035,31.584444719981,39.463827021701,47.33617980871,
    55.203925133064,63.071210750312,70.943917098593,78.829559212838,
    86.737087067448,94.676594921508,102.65895690425,110.69541143983,
    118.79712037513,126.97472934979,135.23795398435,143.59521227876,
    152.05331797539,160.61724346701,169.28995497128,178.0723177804,
    186.96306576504,195.95882703085,205.05419655689,214.24184653728,
    223.51266571574,232.85591998269,242.25942768257,251.70974429783,
    261.19235233654,270.69185329368,280.19215946003,289.67668411285,
    299.12852925025,308.53067054268,317.86613958952,327.11820390352,
    336.27054531734,345.30743772486,354.21392524235,362.97600200007,
    371.58079484454,380.01675022591,388.27382642851,396.34369202255,
    404.21993089484,411.89825335044,419.3767114358,426.65591466514,
    433.73923959245,440.63302307655,447.3467247015,453.89303898769,
    460.28793354085,466.55058645586,472.70319690461,478.77064875397,
    484.78001942796,490.75994448357),.UNSPECIFIED.);
#87 = CARTESIAN_POINT('',(0.,0.,14.));
#88 = CARTESIAN_POINT('',(2.638196702148,0.,14.));
#89 = CARTESIAN_POINT('',(7.901553473032,0.,14.1644580865));
#90 = CARTESIAN_POINT('',(15.773167205104,0.,14.90391480205));
#91 = CARTESIAN_POINT('',(23.575284142837,0.,16.134173619281));
#92 = CARTESIAN_POINT('',(31.27848734916,0.,17.85197990613));
#93 = CARTESIAN_POINT('',(38.850066789557,0.,20.052775135321));
#94 = CARTESIAN_POINT('',(46.259569875607,0.,22.730695230368));
#95 = CARTESIAN_POINT('',(53.477630412858,0.,25.878569373573));
#96 = CARTESIAN_POINT('',(60.476566136714,0.,29.487920514534));
#97 = CARTESIAN_POINT('',(67.23046949937,0.,33.548969437005));
#98 = CARTESIAN_POINT('',(73.715398013106,0.,38.050644740505));
#99 = CARTESIAN_POINT('',(79.909499571977,0.,42.980601240311));
#100 = CARTESIAN_POINT('',(85.793114562218,0.,48.325248893626));
#101 = CARTESIAN_POINT('',(91.348841380073,0.,54.069793370742));
#102 = CARTESIAN_POINT('',(96.561567289095,0.,60.198287968638));
#103 = CARTESIAN_POINT('',(101.41846363269,0.,66.693695063631));
#104 = CARTESIAN_POINT('',(105.90894705996,0.,73.537954143778));
#105 = CARTESIAN_POINT('',(110.02460992606,0.,80.712052975362));
#106 = CARTESIAN_POINT('',(113.75912470599,0.,88.196098733169));
#107 = CARTESIAN_POINT('',(117.10812828962,0.,95.969386800466));
#108 = CARTESIAN_POINT('',(120.06909235621,0.,104.01046609939));
#109 = CARTESIAN_POINT('',(122.64118566781,0.,112.2972009072));
#110 = CARTESIAN_POINT('',(124.82513328367,0.,120.80682991106));
#111 = CARTESIAN_POINT('',(126.62307663671,0.,129.51602366513));
#112 = CARTESIAN_POINT('',(128.03843735172,0.,138.40094167558));
#113 = CARTESIAN_POINT('',(129.07578676592,0.,147.43729015986));
#114 = CARTESIAN_POINT('',(129.74072239362,0.,156.6003812269));
#115 = CARTESIAN_POINT('',(130.03975205526,0.,165.8651939028));
#116 = CARTESIAN_POINT('',(129.98018603158,0.,175.20643714404));
#117 = CARTESIAN_POINT('',(129.57003736189,0.,184.59861476412));
#118 = CARTESIAN_POINT('',(128.81793024125,0.,194.01609205358));
#119 = CARTESIAN_POINT('',(127.73301635611,0.,203.43316378815));
#120 = CARTESIAN_POINT('',(126.32489891222,0.,212.82412327899));
#121 = CARTESIAN_POINT('',(124.603564042,0.,222.16333210975));
#122 = CARTESIAN_POINT('',(122.57931922494,0.,231.42529021277));
#123 = CARTESIAN_POINT('',(120.26273831283,0.,240.58470595439));
#124 = CARTESIAN_POINT('',(117.66461271902,0.,249.61656591852));
#125 = CARTESIAN_POINT('',(114.79590830843,0.,258.49620409549));
#126 = CARTESIAN_POINT('',(111.6677275116,0.,267.19937019728));
#127 = CARTESIAN_POINT('',(108.29127618064,0.,275.70229682759));
#128 = CARTESIAN_POINT('',(104.6778347092,0.,283.98176523572));
#129 = CARTESIAN_POINT('',(100.83873294827,0.,292.01516937538));
#130 = CARTESIAN_POINT('',(96.785328479163,0.,299.7805779712));
#131 = CARTESIAN_POINT('',(92.528987811013,0.,307.25679426745));
#132 = CARTESIAN_POINT('',(88.08107022487,0.,314.42341309304));
#133 = CARTESIAN_POINT('',(83.452913690388,0.,321.26087482704));
#134 = CARTESIAN_POINT('',(78.655823746425,0.,327.75051579426));
#135 = CARTESIAN_POINT('',(73.701061526449,0.,333.87461457366));
#136 = CARTESIAN_POINT('',(68.59984491301,0.,339.6164336884));
#137 = CARTESIAN_POINT('',(63.363313940603,0.,344.96025620866));
#138 = CARTESIAN_POINT('',(58.002638808622,0.,349.89141700411));
#139 = CARTESIAN_POINT('',(52.528635577467,0.,354.39632882429));
#140 = CARTESIAN_POINT('',(46.953171865482,0.,358.46250415832));
#141 = CARTESIAN_POINT('',(41.284188154886,0.,362.07857498423));
#142 = CARTESIAN_POINT('',(35.543671908498,0.,365.23431397453));
#143 = CARTESIAN_POINT('',(29.703145103637,0.,367.9206621096));
#144 = CARTESIAN_POINT('',(23.916608520724,0.,370.12976821376));
#145 = CARTESIAN_POINT('',(17.67692259536,0.,371.8550446213));
#146 = CARTESIAN_POINT('',(12.88703741307,0.,373.0912391347));
#147 = CARTESIAN_POINT('',(2.61452678257,0.,373.83451685202));
#148 = CARTESIAN_POINT('',(9.2359286067,0.,374.));
#149 = CARTESIAN_POINT('',(0.,0.,374.));
#150 = AXIS1_PLACEMENT('',#151,#152);
#151 = CARTESIAN_POINT('',(0.,0.,14.));
#152 = DIRECTION('',(0.,0.,1.));
#153 = DEFINITIONAL_REPRESENTATION('',(#154),#213);
#154 = B_SPLINE_CURVE_WITH_KNOTS('',8,(#155,#156,#157,#158,#159,#160,
    #161,#162,#163,#164,#165,#166,#167,#168,#169,#170,#171,#172,#173,
    #174,#175,#176,#177,#178,#179,#180,#181,#182,#183,#184,#185,#186,
    #187,#188,#189,#190,#191,#192,#193,#194,#195,#196,#197,#198,#199,
    #200,#201,#202,#203,#204,#205,#206,#207,#208,#209,#210,#211,#212),
  .UNSPECIFIED.,.F.,.F.,(9,7,7,7,7,7,7,7,9),(0.,0.124999999992,
    0.249999999987,0.374999999986,0.499999999988,0.624999999991,
    0.749999999995,0.874999999998,1.),.UNSPECIFIED.);
#155 = CARTESIAN_POINT('',(6.28318530718,391.62776898103));
#156 = CARTESIAN_POINT('',(6.185035596741,391.62776898103));
#157 = CARTESIAN_POINT('',(6.086819201195,391.62776898103));
#158 = CARTESIAN_POINT('',(5.988639306878,391.62776898103));
#159 = CARTESIAN_POINT('',(5.890486225469,391.62776898103));
#160 = CARTESIAN_POINT('',(5.792333144103,391.62776898103));
#161 = CARTESIAN_POINT('',(5.694153249758,391.62776898103));
#162 = CARTESIAN_POINT('',(5.595936854222,391.62776898103));
#163 = CARTESIAN_POINT('',(5.399637433341,391.62776898103));
#164 = CARTESIAN_POINT('',(5.301421037813,391.62776898103));
#165 = CARTESIAN_POINT('',(5.203241143446,391.62776898103));
#166 = CARTESIAN_POINT('',(5.105088062115,391.62776898103));
#167 = CARTESIAN_POINT('',(5.006934980671,391.62776898103));
#168 = CARTESIAN_POINT('',(4.908755086376,391.62776898103));
#169 = CARTESIAN_POINT('',(4.810538690821,391.62776898103));
#170 = CARTESIAN_POINT('',(4.614239269944,391.62776898103));
#171 = CARTESIAN_POINT('',(4.516022874411,391.62776898103));
#172 = CARTESIAN_POINT('',(4.41784298006,391.62776898103));
#173 = CARTESIAN_POINT('',(4.319689898703,391.62776898103));
#174 = CARTESIAN_POINT('',(4.221536817286,391.62776898103));
#175 = CARTESIAN_POINT('',(4.123356922973,391.62776898103));
#176 = CARTESIAN_POINT('',(4.025140527425,391.62776898103));
#177 = CARTESIAN_POINT('',(3.828841106547,391.62776898103));
#178 = CARTESIAN_POINT('',(3.730624711011,391.62776898103));
#179 = CARTESIAN_POINT('',(3.632444816669,391.62776898103));
#180 = CARTESIAN_POINT('',(3.534291735297,391.62776898103));
#181 = CARTESIAN_POINT('',(3.436138653895,391.62776898103));
#182 = CARTESIAN_POINT('',(3.337958759573,391.62776898103));
#183 = CARTESIAN_POINT('',(3.239742364028,391.62776898103));
#184 = CARTESIAN_POINT('',(3.043442943151,391.62776898103));
#185 = CARTESIAN_POINT('',(2.94522654761,391.62776898103));
#186 = CARTESIAN_POINT('',(2.847046653279,391.62776898103));
#187 = CARTESIAN_POINT('',(2.748893571891,391.62776898103));
#188 = CARTESIAN_POINT('',(2.650740490504,391.62776898103));
#189 = CARTESIAN_POINT('',(2.552560596172,391.62776898103));
#190 = CARTESIAN_POINT('',(2.454344200632,391.62776898103));
#191 = CARTESIAN_POINT('',(2.258044779753,391.62776898103));
#192 = CARTESIAN_POINT('',(2.159828384215,391.62776898103));
#193 = CARTESIAN_POINT('',(2.061648489875,391.62776898103));
#194 = CARTESIAN_POINT('',(1.963495408502,391.62776898103));
#195 = CARTESIAN_POINT('',(1.8653423271,391.62776898103));
#196 = CARTESIAN_POINT('',(1.767162432777,391.62776898103));
#197 = CARTESIAN_POINT('',(1.668946037234,391.62776898103));
#198 = CARTESIAN_POINT('',(1.472646616356,391.62776898103));
#199 = CARTESIAN_POINT('',(1.374430220813,391.62776898103));
#200 = CARTESIAN_POINT('',(1.276250326488,391.62776898103));
#201 = CARTESIAN_POINT('',(1.17809724509,391.62776898103));
#202 = CARTESIAN_POINT('',(1.079944163714,391.62776898103));
#203 = CARTESIAN_POINT('',(0.981764269375,391.62776898103));
#204 = CARTESIAN_POINT('',(0.883547873837,391.62776898103));
#205 = CARTESIAN_POINT('',(0.687248452959,391.62776898103));
#206 = CARTESIAN_POINT('',(0.589032057417,391.62776898103));
#207 = CARTESIAN_POINT('',(0.490852163087,391.62776898103));
#208 = CARTESIAN_POINT('',(0.3926990817,391.62776898103));
#209 = CARTESIAN_POINT('',(0.294546000309,391.62776898103));
#210 = CARTESIAN_POINT('',(0.196366105982,391.62776898103));
#211 = CARTESIAN_POINT('',(9.814971043867E-02,391.62776898103));
#212 = CARTESIAN_POINT('',(0.,391.62776898103));
#213 = ( GEOMETRIC_REPRESENTATION_CONTEXT(2) 
PARAMETRIC_REPRESENTATION_CONTEXT() REPRESENTATION_CONTEXT('2D SPACE',''
  ) );
#214 = PCURVE('',#215,#220);
#215 = PLANE('',#216);
#216 = AXIS2_PLACEMENT_3D('',#217,#218,#219);
#217 = CARTESIAN_POINT('',(-1.40025869572E-14,2.567913688298E-14,324.));
#218 = DIRECTION('',(0.,0.,1.));
#219 = DIRECTION('',(1.,0.,-0.));
#220 = DEFINITIONAL_REPRESENTATION('',(#221),#280);
#221 = B_SPLINE_CURVE_WITH_KNOTS('',8,(#222,#223,#224,#225,#226,#227,
    #228,#229,#230,#231,#232,#233,#234,#235,#236,#237,#238,#239,#240,
    #241,#242,#243,#244,#245,#246,#247,#248,#249,#250,#251,#252,#253,
    #254,#255,#256,#257,#258,#259,#260,#261,#262,#263,#264,#265,#266,
    #267,#268,#269,#270,#271,#272,#273,#274,#275,#276,#277,#278,#279),
  .UNSPECIFIED.,.F.,.F.,(9,7,7,7,7,7,7,7,9),(0.,0.124999999992,
    0.249999999987,0.374999999986,0.499999999988,0.624999999991,
    0.749999999995,0.874999999998,1.),.UNSPECIFIED.);
#222 = CARTESIAN_POINT('',(81.409168973281,-4.263256414561E-14));
#223 = CARTESIAN_POINT('',(81.40916926332,-7.990284580844));
#224 = CARTESIAN_POINT('',(80.51288787549,-15.98601266563));
#225 = CARTESIAN_POINT('',(78.718205941029,-23.86141487409));
#226 = CARTESIAN_POINT('',(76.046653730536,-31.49955534823));
#227 = CARTESIAN_POINT('',(72.534745489874,-38.7896089576));
#228 = CARTESIAN_POINT('',(68.235026949706,-45.62739102965));
#229 = CARTESIAN_POINT('',(63.214960047577,-51.91499122612));
#230 = CARTESIAN_POINT('',(51.914991226123,-63.2149600476));
#231 = CARTESIAN_POINT('',(45.627391029714,-68.23502694957));
#232 = CARTESIAN_POINT('',(38.789608957513,-72.5347454901));
#233 = CARTESIAN_POINT('',(31.499555348318,-76.0466537303));
#234 = CARTESIAN_POINT('',(23.861414874086,-78.71820594114));
#235 = CARTESIAN_POINT('',(15.986012665631,-80.51288787545));
#236 = CARTESIAN_POINT('',(7.990284580857,-81.40916926332));
#237 = CARTESIAN_POINT('',(-7.99028458083,-81.40916926331));
#238 = CARTESIAN_POINT('',(-15.98601266565,-80.51288787549));
#239 = CARTESIAN_POINT('',(-23.861414874,-78.71820594104));
#240 = CARTESIAN_POINT('',(-31.49955534835,-76.04665373047));
#241 = CARTESIAN_POINT('',(-38.78960895746,-72.53474548996));
#242 = CARTESIAN_POINT('',(-45.62739102971,-68.23502694965));
#243 = CARTESIAN_POINT('',(-51.9149912261,-63.21496004759));
#244 = CARTESIAN_POINT('',(-63.21496004758,-51.91499122612));
#245 = CARTESIAN_POINT('',(-68.23502694965,-45.62739102973));
#246 = CARTESIAN_POINT('',(-72.53474548992,-38.78960895752));
#247 = CARTESIAN_POINT('',(-76.04665373051,-31.49955534828));
#248 = CARTESIAN_POINT('',(-78.718205941,-23.86141487413));
#249 = CARTESIAN_POINT('',(-80.51288787551,-15.9860126656));
#250 = CARTESIAN_POINT('',(-81.4091692633,-7.99028458087));
#251 = CARTESIAN_POINT('',(-81.40916926332,7.990284580833));
#252 = CARTESIAN_POINT('',(-80.51288787547,15.986012665603));
#253 = CARTESIAN_POINT('',(-78.71820594111,23.861414874141));
#254 = CARTESIAN_POINT('',(-76.04665373039,31.499555348166));
#255 = CARTESIAN_POINT('',(-72.53474549003,38.789608957623));
#256 = CARTESIAN_POINT('',(-68.23502694961,45.627391029645));
#257 = CARTESIAN_POINT('',(-63.2149600476,51.914991226121));
#258 = CARTESIAN_POINT('',(-51.91499122612,63.214960047604));
#259 = CARTESIAN_POINT('',(-45.62739102974,68.235026949531));
#260 = CARTESIAN_POINT('',(-38.78960895742,72.534745490205));
#261 = CARTESIAN_POINT('',(-31.49955534846,76.04665373017));
#262 = CARTESIAN_POINT('',(-23.86141487397,78.71820594124));
#263 = CARTESIAN_POINT('',(-15.98601266567,80.512887875424));
#264 = CARTESIAN_POINT('',(-7.990284580854,81.409169263325));
#265 = CARTESIAN_POINT('',(7.990284580831,81.409169263343));
#266 = CARTESIAN_POINT('',(15.986012665643,80.512887875379));
#267 = CARTESIAN_POINT('',(23.861414874005,78.718205941312));
#268 = CARTESIAN_POINT('',(31.499555348407,76.046653730121));
#269 = CARTESIAN_POINT('',(38.789608957395,72.534745490255));
#270 = CARTESIAN_POINT('',(45.627391029763,68.235026949513));
#271 = CARTESIAN_POINT('',(51.914991226096,63.214960047628));
#272 = CARTESIAN_POINT('',(63.214960047555,51.914991226127));
#273 = CARTESIAN_POINT('',(68.235026949744,45.627391029741));
#274 = CARTESIAN_POINT('',(72.534745489805,38.78960895738));
#275 = CARTESIAN_POINT('',(76.046653730592,31.499555348597));
#276 = CARTESIAN_POINT('',(78.718205940996,23.86141487378));
#277 = CARTESIAN_POINT('',(80.512887875501,15.986012665799));
#278 = CARTESIAN_POINT('',(81.409169263317,7.990284580806));
#279 = CARTESIAN_POINT('',(81.409168973281,-2.84217094304E-14));
#280 = ( GEOMETRIC_REPRESENTATION_CONTEXT(2) 
PARAMETRIC_REPRESENTATION_CONTEXT() REPRESENTATION_CONTEXT('2D SPACE',''
  ) );
#281 = ORIENTED_EDGE('',*,*,#282,.T.);
#282 = EDGE_CURVE('',#22,#283,#285,.T.);
#283 = VERTEX_POINT('',#284);
#284 = CARTESIAN_POINT('',(0.,0.,374.));
#285 = SEAM_CURVE('',#286,(#350,#357),.PCURVE_S1.);
#286 = B_SPLINE_CURVE_WITH_KNOTS('',3,(#287,#288,#289,#290,#291,#292,
    #293,#294,#295,#296,#297,#298,#299,#300,#301,#302,#303,#304,#305,
    #306,#307,#308,#309,#310,#311,#312,#313,#314,#315,#316,#317,#318,
    #319,#320,#321,#322,#323,#324,#325,#326,#327,#328,#329,#330,#331,
    #332,#333,#334,#335,#336,#337,#338,#339,#340,#341,#342,#343,#344,
    #345,#346,#347,#348,#349),.UNSPECIFIED.,.F.,.F.,(4,1,1,1,1,1,1,1,1,1
    ,1,1,1,1,1,1,1,1,1,1,1,1,1,1,1,1,1,1,1,1,1,1,1,1,1,1,1,1,1,1,1,1,1,1
    ,1,1,1,1,1,1,1,1,1,1,1,1,1,1,1,1,4),(0.,7.902864749699,
    15.802786187668,23.697227738035,31.584444719981,39.463827021701,
    47.33617980871,55.203925133064,63.071210750312,70.943917098593,
    78.829559212838,86.737087067448,94.676594921508,102.65895690425,
    110.69541143983,118.79712037513,126.97472934979,135.23795398435,
    143.59521227876,152.05331797539,160.61724346701,169.28995497128,
    178.0723177804,186.96306576504,195.95882703085,205.05419655689,
    214.24184653728,223.51266571574,232.85591998269,242.25942768257,
    251.70974429783,261.19235233654,270.69185329368,280.19215946003,
    289.67668411285,299.12852925025,308.53067054268,317.86613958952,
    327.11820390352,336.27054531734,345.30743772486,354.21392524235,
    362.97600200007,371.58079484454,380.01675022591,388.27382642851,
    396.34369202255,404.21993089484,411.89825335044,419.3767114358,
    426.65591466514,433.73923959245,440.63302307655,447.3467247015,
    453.89303898769,460.28793354085,466.55058645586,472.70319690461,
    478.77064875397,484.78001942796,490.75994448357),.UNSPECIFIED.);
#287 = CARTESIAN_POINT('',(0.,0.,14.));
#288 = CARTESIAN_POINT('',(2.638196702148,0.,14.));
#289 = CARTESIAN_POINT('',(7.901553473032,0.,14.1644580865));
#290 = CARTESIAN_POINT('',(15.773167205104,0.,14.90391480205));
#291 = CARTESIAN_POINT('',(23.575284142837,0.,16.134173619281));
#292 = CARTESIAN_POINT('',(31.27848734916,0.,17.85197990613));
#293 = CARTESIAN_POINT('',(38.850066789557,0.,20.052775135321));
#294 = CARTESIAN_POINT('',(46.259569875607,0.,22.730695230368));
#295 = CARTESIAN_POINT('',(53.477630412858,0.,25.878569373573));
#296 = CARTESIAN_POINT('',(60.476566136714,0.,29.487920514534));
#297 = CARTESIAN_POINT('',(67.23046949937,0.,33.548969437005));
#298 = CARTESIAN_POINT('',(73.715398013106,0.,38.050644740505));
#299 = CARTESIAN_POINT('',(79.909499571977,0.,42.980601240311));
#300 = CARTESIAN_POINT('',(85.793114562218,0.,48.325248893626));
#301 = CARTESIAN_POINT('',(91.348841380073,0.,54.069793370742));
#302 = CARTESIAN_POINT('',(96.561567289095,0.,60.198287968638));
#303 = CARTESIAN_POINT('',(101.41846363269,0.,66.693695063631));
#304 = CARTESIAN_POINT('',(105.90894705996,0.,73.537954143778));
#305 = CARTESIAN_POINT('',(110.02460992606,0.,80.712052975362));
#306 = CARTESIAN_POINT('',(113.75912470599,0.,88.196098733169));
#307 = CARTESIAN_POINT('',(117.10812828962,0.,95.969386800466));
#308 = CARTESIAN_POINT('',(120.06909235621,0.,104.01046609939));
#309 = CARTESIAN_POINT('',(122.64118566781,0.,112.2972009072));
#310 = CARTESIAN_POINT('',(124.82513328367,0.,120.80682991106));
#311 = CARTESIAN_POINT('',(126.62307663671,0.,129.51602366513));
#312 = CARTESIAN_POINT('',(128.03843735172,0.,138.40094167558));
#313 = CARTESIAN_POINT('',(129.07578676592,0.,147.43729015986));
#314 = CARTESIAN_POINT('',(129.74072239362,0.,156.6003812269));
#315 = CARTESIAN_POINT('',(130.03975205526,0.,165.8651939028));
#316 = CARTESIAN_POINT('',(129.98018603158,0.,175.20643714404));
#317 = CARTESIAN_POINT('',(129.57003736189,0.,184.59861476412));
#318 = CARTESIAN_POINT('',(128.81793024125,0.,194.01609205358));
#319 = CARTESIAN_POINT('',(127.73301635611,0.,203.43316378815));
#320 = CARTESIAN_POINT('',(126.32489891222,0.,212.82412327899));
#321 = CARTESIAN_POINT('',(124.603564042,0.,222.16333210975));
#322 = CARTESIAN_POINT('',(122.57931922494,0.,231.42529021277));
#323 = CARTESIAN_POINT('',(120.26273831283,0.,240.58470595439));
#324 = CARTESIAN_POINT('',(117.66461271902,0.,249.61656591852));
#325 = CARTESIAN_POINT('',(114.79590830843,0.,258.49620409549));
#326 = CARTESIAN_POINT('',(111.6677275116,0.,267.19937019728));
#327 = CARTESIAN_POINT('',(108.29127618064,0.,275.70229682759));
#328 = CARTESIAN_POINT('',(104.6778347092,0.,283.98176523572));
#329 = CARTESIAN_POINT('',(100.83873294827,0.,292.01516937538));
#330 = CARTESIAN_POINT('',(96.785328479163,0.,299.7805779712));
#331 = CARTESIAN_POINT('',(92.528987811013,0.,307.25679426745));
#332 = CARTESIAN_POINT('',(88.08107022487,0.,314.42341309304));
#333 = CARTESIAN_POINT('',(83.452913690388,0.,321.26087482704));
#334 = CARTESIAN_POINT('',(78.655823746425,0.,327.75051579426));
#335 = CARTESIAN_POINT('',(73.701061526449,0.,333.87461457366));
#336 = CARTESIAN_POINT('',(68.59984491301,0.,339.6164336884));
#337 = CARTESIAN_POINT('',(63.363313940603,0.,344.96025620866));
#338 = CARTESIAN_POINT('',(58.002638808622,0.,349.89141700411));
#339 = CARTESIAN_POINT('',(52.528635577467,0.,354.39632882429));
#340 = CARTESIAN_POINT('',(46.953171865482,0.,358.46250415832));
#341 = CARTESIAN_POINT('',(41.284188154886,0.,362.07857498423));
#342 = CARTESIAN_POINT('',(35.543671908498,0.,365.23431397453));
#343 = CARTESIAN_POINT('',(29.703145103637,0.,367.9206621096));
#344 = CARTESIAN_POINT('',(23.916608520724,0.,370.12976821376));
#345 = CARTESIAN_POINT('',(17.67692259536,0.,371.8550446213));
#346 = CARTESIAN_POINT('',(12.88703741307,0.,373.0912391347));
#347 = CARTESIAN_POINT('',(2.61452678257,0.,373.83451685202));
#348 = CARTESIAN_POINT('',(9.2359286067,0.,374.));
#349 = CARTESIAN_POINT('',(0.,0.,374.));
#350 = PCURVE('',#85,#351);
#351 = DEFINITIONAL_REPRESENTATION('',(#352),#356);
#352 = LINE('',#353,#354);
#353 = CARTESIAN_POINT('',(0.,0.));
#354 = VECTOR('',#355,1.);
#355 = DIRECTION('',(0.,1.));
#356 = ( GEOMETRIC_REPRESENTATION_CONTEXT(2) 
PARAMETRIC_REPRESENTATION_CONTEXT() REPRESENTATION_CONTEXT('2D SPACE',''
  ) );
#357 = PCURVE('',#85,#358);
#358 = DEFINITIONAL_REPRESENTATION('',(#359),#363);
#359 = LINE('',#360,#361);
#360 = CARTESIAN_POINT('',(6.28318530718,0.));
#361 = VECTOR('',#362,1.);
#362 = DIRECTION('',(0.,1.));
#363 = ( GEOMETRIC_REPRESENTATION_CONTEXT(2) 
PARAMETRIC_REPRESENTATION_CONTEXT() REPRESENTATION_CONTEXT('2D SPACE',''
  ) );
#364 = ORIENTED_EDGE('',*,*,#282,.F.);
#365 = ADVANCED_FACE('',(#366,#369),#215,.F.);
#366 = FACE_BOUND('',#367,.F.);
#367 = EDGE_LOOP('',(#368));
#368 = ORIENTED_EDGE('',*,*,#21,.F.);
#369 = FACE_BOUND('',#370,.F.);
#370 = EDGE_LOOP('',(#371));
#371 = ORIENTED_EDGE('',*,*,#372,.T.);
#372 = EDGE_CURVE('',#373,#373,#375,.T.);
#373 = VERTEX_POINT('',#374);
#374 = CARTESIAN_POINT('',(78.920740224339,0.,324.));
#375 = SURFACE_CURVE('',#376,(#435,#497),.PCURVE_S1.);
#376 = B_SPLINE_CURVE_WITH_KNOTS('',8,(#377,#378,#379,#380,#381,#382,
    #383,#384,#385,#386,#387,#388,#389,#390,#391,#392,#393,#394,#395,
    #396,#397,#398,#399,#400,#401,#402,#403,#404,#405,#406,#407,#408,
    #409,#410,#411,#412,#413,#414,#415,#416,#417,#418,#419,#420,#421,
    #422,#423,#424,#425,#426,#427,#428,#429,#430,#431,#432,#433,#434),
  .UNSPECIFIED.,.T.,.F.,(9,7,7,7,7,7,7,7,9),(0.,0.125000000001,0.25,
    0.374999999999,0.5,0.625000000002,0.750000000003,0.875000000002,1.),
  .UNSPECIFIED.);
#377 = CARTESIAN_POINT('',(78.920740224339,-1.695342726263E-14,324.));
#378 = CARTESIAN_POINT('',(78.920740505473,-7.746046093233,324.));
#379 = CARTESIAN_POINT('',(78.051855688212,-15.49736924661,324.));
#380 = CARTESIAN_POINT('',(76.312031690524,-23.13204455076,324.));
#381 = CARTESIAN_POINT('',(73.722140637963,-30.53671049923,324.));
#382 = CARTESIAN_POINT('',(70.317580658976,-37.60392953018,324.));
#383 = CARTESIAN_POINT('',(66.149291326186,-44.23270155638,324.));
#384 = CARTESIAN_POINT('',(61.282672507592,-50.32810906779,324.));
#385 = CARTESIAN_POINT('',(50.328109067827,-61.28267250759,324.));
#386 = CARTESIAN_POINT('',(44.232701556273,-66.1492913261,324.));
#387 = CARTESIAN_POINT('',(37.603929530433,-70.31758065916,324.));
#388 = CARTESIAN_POINT('',(30.536710498924,-73.72214063767,324.));
#389 = CARTESIAN_POINT('',(23.132044551039,-76.31203169075,324.));
#390 = CARTESIAN_POINT('',(15.49736924649,-78.05185568809,324.));
#391 = CARTESIAN_POINT('',(7.746046093273,-78.92074050549,324.));
#392 = CARTESIAN_POINT('',(-7.746046093226,-78.9207405055,324.));
#393 = CARTESIAN_POINT('',(-15.4973692466,-78.05185568806,324.));
#394 = CARTESIAN_POINT('',(-23.13204455078,-76.31203169084,324.));
#395 = CARTESIAN_POINT('',(-30.53671049918,-73.72214063757,324.));
#396 = CARTESIAN_POINT('',(-37.60392953021,-70.31758065926,324.));
#397 = CARTESIAN_POINT('',(-44.23270155635,-66.14929132606,324.));
#398 = CARTESIAN_POINT('',(-50.32810906779,-61.28267250762,324.));
#399 = CARTESIAN_POINT('',(-61.2826725076,-50.32810906781,324.));
#400 = CARTESIAN_POINT('',(-66.14929132607,-44.23270155634,324.));
#401 = CARTESIAN_POINT('',(-70.31758065922,-37.60392953029,324.));
#402 = CARTESIAN_POINT('',(-73.7221406376,-30.53671049911,324.));
#403 = CARTESIAN_POINT('',(-76.31203169081,-23.13204455089,324.));
#404 = CARTESIAN_POINT('',(-78.05185568807,-15.49736924656,324.));
#405 = CARTESIAN_POINT('',(-78.9207405055,-7.746046093259,324.));
#406 = CARTESIAN_POINT('',(-78.9207405055,7.74604609319,324.));
#407 = CARTESIAN_POINT('',(-78.05185568808,15.49736924672,324.));
#408 = CARTESIAN_POINT('',(-76.31203169078,23.132044550583,324.));
#409 = CARTESIAN_POINT('',(-73.72214063768,30.536710499366,324.));
#410 = CARTESIAN_POINT('',(-70.31758065915,37.603929530128,324.));
#411 = CARTESIAN_POINT('',(-66.14929132612,44.23270155637,324.));
#412 = CARTESIAN_POINT('',(-61.2826725076,50.328109067795,324.));
#413 = CARTESIAN_POINT('',(-50.32810906782,61.282672507582,324.));
#414 = CARTESIAN_POINT('',(-44.23270155631,66.149291326185,324.));
#415 = CARTESIAN_POINT('',(-37.60392953036,70.31758065897,324.));
#416 = CARTESIAN_POINT('',(-30.53671049901,73.722140637938,324.));
#417 = CARTESIAN_POINT('',(-23.13204455096,76.312031690553,324.));
#418 = CARTESIAN_POINT('',(-15.49736924653,78.051855688189,324.));
#419 = CARTESIAN_POINT('',(-7.746046093264,78.920740505477,324.));
#420 = CARTESIAN_POINT('',(7.746046093154,78.920740505531,324.));
#421 = CARTESIAN_POINT('',(15.497369246914,78.051855687939,324.));
#422 = CARTESIAN_POINT('',(23.132044550116,76.312031691145,324.));
#423 = CARTESIAN_POINT('',(30.536710500013,73.722140637163,324.));
#424 = CARTESIAN_POINT('',(37.603929529597,70.317580659608,324.));
#425 = CARTESIAN_POINT('',(44.232701556624,66.149291325904,324.));
#426 = CARTESIAN_POINT('',(50.328109067739,61.282672507657,324.));
#427 = CARTESIAN_POINT('',(61.282672507584,50.328109067903,324.));
#428 = CARTESIAN_POINT('',(66.149291326167,44.232701555941,324.));
#429 = CARTESIAN_POINT('',(70.317580659025,37.603929531167,324.));
#430 = CARTESIAN_POINT('',(73.722140637879,30.53671049798,324.));
#431 = CARTESIAN_POINT('',(76.312031690585,23.132044551776,324.));
#432 = CARTESIAN_POINT('',(78.05185568819,15.497369246144,324.));
#433 = CARTESIAN_POINT('',(78.920740505474,7.746046093343,324.));
#434 = CARTESIAN_POINT('',(78.920740224339,-2.742572547424E-15,324.));
#435 = PCURVE('',#215,#436);
#436 = DEFINITIONAL_REPRESENTATION('',(#437),#496);
#437 = B_SPLINE_CURVE_WITH_KNOTS('',8,(#438,#439,#440,#441,#442,#443,
    #444,#445,#446,#447,#448,#449,#450,#451,#452,#453,#454,#455,#456,
    #457,#458,#459,#460,#461,#462,#463,#464,#465,#466,#467,#468,#469,
    #470,#471,#472,#473,#474,#475,#476,#477,#478,#479,#480,#481,#482,
    #483,#484,#485,#486,#487,#488,#489,#490,#491,#492,#493,#494,#495),
  .UNSPECIFIED.,.F.,.F.,(9,7,7,7,7,7,7,7,9),(0.,0.125000000001,0.25,
    0.374999999999,0.5,0.625000000002,0.750000000003,0.875000000002,1.),
  .UNSPECIFIED.);
#438 = CARTESIAN_POINT('',(78.920740224339,-4.263256414561E-14));
#439 = CARTESIAN_POINT('',(78.920740505473,-7.746046093233));
#440 = CARTESIAN_POINT('',(78.051855688212,-15.49736924661));
#441 = CARTESIAN_POINT('',(76.312031690524,-23.13204455076));
#442 = CARTESIAN_POINT('',(73.722140637963,-30.53671049923));
#443 = CARTESIAN_POINT('',(70.317580658976,-37.60392953018));
#444 = CARTESIAN_POINT('',(66.149291326186,-44.23270155638));
#445 = CARTESIAN_POINT('',(61.282672507592,-50.32810906779));
#446 = CARTESIAN_POINT('',(50.328109067827,-61.28267250759));
#447 = CARTESIAN_POINT('',(44.232701556273,-66.1492913261));
#448 = CARTESIAN_POINT('',(37.603929530433,-70.31758065916));
#449 = CARTESIAN_POINT('',(30.536710498924,-73.72214063767));
#450 = CARTESIAN_POINT('',(23.132044551039,-76.31203169075));
#451 = CARTESIAN_POINT('',(15.49736924649,-78.05185568809));
#452 = CARTESIAN_POINT('',(7.746046093273,-78.92074050549));
#453 = CARTESIAN_POINT('',(-7.746046093226,-78.9207405055));
#454 = CARTESIAN_POINT('',(-15.4973692466,-78.05185568806));
#455 = CARTESIAN_POINT('',(-23.13204455078,-76.31203169084));
#456 = CARTESIAN_POINT('',(-30.53671049918,-73.72214063757));
#457 = CARTESIAN_POINT('',(-37.60392953021,-70.31758065926));
#458 = CARTESIAN_POINT('',(-44.23270155635,-66.14929132606));
#459 = CARTESIAN_POINT('',(-50.32810906779,-61.28267250762));
#460 = CARTESIAN_POINT('',(-61.2826725076,-50.32810906781));
#461 = CARTESIAN_POINT('',(-66.14929132607,-44.23270155634));
#462 = CARTESIAN_POINT('',(-70.31758065922,-37.60392953029));
#463 = CARTESIAN_POINT('',(-73.7221406376,-30.53671049911));
#464 = CARTESIAN_POINT('',(-76.31203169081,-23.13204455089));
#465 = CARTESIAN_POINT('',(-78.05185568807,-15.49736924656));
#466 = CARTESIAN_POINT('',(-78.9207405055,-7.746046093259));
#467 = CARTESIAN_POINT('',(-78.9207405055,7.74604609319));
#468 = CARTESIAN_POINT('',(-78.05185568808,15.49736924672));
#469 = CARTESIAN_POINT('',(-76.31203169078,23.132044550583));
#470 = CARTESIAN_POINT('',(-73.72214063768,30.536710499366));
#471 = CARTESIAN_POINT('',(-70.31758065915,37.603929530128));
#472 = CARTESIAN_POINT('',(-66.14929132612,44.23270155637));
#473 = CARTESIAN_POINT('',(-61.2826725076,50.328109067795));
#474 = CARTESIAN_POINT('',(-50.32810906782,61.282672507582));
#475 = CARTESIAN_POINT('',(-44.23270155631,66.149291326185));
#476 = CARTESIAN_POINT('',(-37.60392953036,70.31758065897));
#477 = CARTESIAN_POINT('',(-30.53671049901,73.722140637938));
#478 = CARTESIAN_POINT('',(-23.13204455096,76.312031690553));
#479 = CARTESIAN_POINT('',(-15.49736924653,78.051855688189));
#480 = CARTESIAN_POINT('',(-7.746046093264,78.920740505476));
#481 = CARTESIAN_POINT('',(7.746046093154,78.920740505531));
#482 = CARTESIAN_POINT('',(15.497369246914,78.051855687939));
#483 = CARTESIAN_POINT('',(23.132044550116,76.312031691145));
#484 = CARTESIAN_POINT('',(30.536710500013,73.722140637163));
#485 = CARTESIAN_POINT('',(37.603929529597,70.317580659608));
#486 = CARTESIAN_POINT('',(44.232701556624,66.149291325904));
#487 = CARTESIAN_POINT('',(50.328109067739,61.282672507657));
#488 = CARTESIAN_POINT('',(61.282672507584,50.328109067903));
#489 = CARTESIAN_POINT('',(66.149291326167,44.232701555941));
#490 = CARTESIAN_POINT('',(70.317580659025,37.603929531167));
#491 = CARTESIAN_POINT('',(73.722140637879,30.536710497979));
#492 = CARTESIAN_POINT('',(76.312031690585,23.132044551776));
#493 = CARTESIAN_POINT('',(78.05185568819,15.497369246144));
#494 = CARTESIAN_POINT('',(78.920740505474,7.746046093343));
#495 = CARTESIAN_POINT('',(78.920740224339,-2.84217094304E-14));
#496 = ( GEOMETRIC_REPRESENTATION_CONTEXT(2) 
PARAMETRIC_REPRESENTATION_CONTEXT() REPRESENTATION_CONTEXT('2D SPACE',''
  ) );
#497 = PCURVE('',#498,#566);
#498 = SURFACE_OF_REVOLUTION('',#499,#563);
#499 = B_SPLINE_CURVE_WITH_KNOTS('',3,(#500,#501,#502,#503,#504,#505,
    #506,#507,#508,#509,#510,#511,#512,#513,#514,#515,#516,#517,#518,
    #519,#520,#521,#522,#523,#524,#525,#526,#527,#528,#529,#530,#531,
    #532,#533,#534,#535,#536,#537,#538,#539,#540,#541,#542,#543,#544,
    #545,#546,#547,#548,#549,#550,#551,#552,#553,#554,#555,#556,#557,
    #558,#559,#560,#561,#562),.UNSPECIFIED.,.F.,.F.,(4,1,1,1,1,1,1,1,1,1
    ,1,1,1,1,1,1,1,1,1,1,1,1,1,1,1,1,1,1,1,1,1,1,1,1,1,1,1,1,1,1,1,1,1,1
    ,1,1,1,1,1,1,1,1,1,1,1,1,1,1,1,1,4),(0.,7.778004655746,
    15.552735403833,23.321464358112,31.08221388224,38.834223805418,
    46.578234189783,54.316700238988,62.053909959299,69.795993480131,
    77.550819698316,85.327783344919,93.137493572513,100.9913828387,
    108.90126111474,116.87884425371,124.93528606687,133.08074121542,
    141.32398097223,149.67207723224,158.13016300233,166.70127101004,
    175.38624674547,184.18372851928,193.09018497385,202.09999969109,
    211.20559275989,220.39757004862,229.66489217153,238.99505651372,
    248.37428703261,257.78772779387,267.21963728301,276.65358144759,
    286.07262417964,295.45951455971,304.79687067782,314.0673602444,
    323.25387852874,332.33972443071,341.30877571818,350.14566465754,
    358.83595543,367.36632485916,375.72474806006,383.90069062709,
    391.88530885855,399.6716591898,407.25491735864,414.63260669231,
    421.80483306924,428.7745213176,435.54764381726,442.13342673081,
    448.54451275831,454.79705230932,460.9106890908,466.9084038256,
    472.81618368701,478.66248126429,484.47764768179),.UNSPECIFIED.);
#500 = CARTESIAN_POINT('',(0.,0.,16.));
#501 = CARTESIAN_POINT('',(2.596513294424,0.,16.));
#502 = CARTESIAN_POINT('',(7.776589252507,0.,16.161854619812));
#503 = CARTESIAN_POINT('',(15.523383547295,0.,16.889579158962));
#504 = CARTESIAN_POINT('',(23.201174278671,0.,18.100221775361));
#505 = CARTESIAN_POINT('',(30.780811782348,0.,19.790457328179));
#506 = CARTESIAN_POINT('',(38.229982708459,0.,21.955654671576));
#507 = CARTESIAN_POINT('',(45.518717868764,0.,24.589908786431));
#508 = CARTESIAN_POINT('',(52.618244294908,0.,27.686072329446));
#509 = CARTESIAN_POINT('',(59.501569064409,0.,31.235790770436));
#510 = CARTESIAN_POINT('',(66.14355157255,0.,35.229538197011));
#511 = CARTESIAN_POINT('',(72.521060688278,0.,39.656651526122));
#512 = CARTESIAN_POINT('',(78.613057492175,0.,44.505361299768));
#513 = CARTESIAN_POINT('',(84.400649034532,0.,49.762817993985));
#514 = CARTESIAN_POINT('',(89.867105648686,0.,55.415113761845));
#515 = CARTESIAN_POINT('',(94.997849778913,0.,61.447300588918));
#516 = CARTESIAN_POINT('',(99.780420624241,0.,67.84340675564));
#517 = CARTESIAN_POINT('',(104.2044196633,0.,74.586454092778));
#518 = CARTESIAN_POINT('',(108.26144117719,0.,81.658478676626));
#519 = CARTESIAN_POINT('',(111.94499112677,0.,89.040557331833));
#520 = CARTESIAN_POINT('',(115.2503969113,0.,96.712841679826));
#521 = CARTESIAN_POINT('',(118.17470990705,0.,104.65460064306));
#522 = CARTESIAN_POINT('',(120.7166022938,0.,112.84427146458));
#523 = CARTESIAN_POINT('',(122.87625952095,0.,121.25951857867));
#524 = CARTESIAN_POINT('',(124.65526977443,0.,129.87729916603));
#525 = CARTESIAN_POINT('',(126.05651188823,0.,138.67393397293));
#526 = CARTESIAN_POINT('',(127.08404321848,0.,147.62518194109));
#527 = CARTESIAN_POINT('',(127.7429890085,0.,156.70631732225));
#528 = CARTESIAN_POINT('',(128.03943469811,0.,165.89220817012));
#529 = CARTESIAN_POINT('',(127.98032247568,0.,175.15739535152));
#530 = CARTESIAN_POINT('',(127.57335315822,0.,184.47617145547));
#531 = CARTESIAN_POINT('',(126.82689424075,0.,193.8226591794));
#532 = CARTESIAN_POINT('',(125.74989470629,0.,203.17088892643));
#533 = CARTESIAN_POINT('',(124.35180695345,0.,212.49487545856));
#534 = CARTESIAN_POINT('',(122.64251598987,0.,221.76869352373));
#535 = CARTESIAN_POINT('',(120.63227586601,0.,230.96655242028));
#536 = CARTESIAN_POINT('',(118.33165318392,0.,240.06286948893));
#537 = CARTESIAN_POINT('',(115.75147740872,0.,249.03234253821));
#538 = CARTESIAN_POINT('',(112.90279763128,0.,257.85002122077));
#539 = CARTESIAN_POINT('',(109.79684537314,0.,266.49137739053));
#540 = CARTESIAN_POINT('',(106.44500298162,0.,274.93237448751));
#541 = CARTESIAN_POINT('',(102.8587771274,0.,283.14953602077));
#542 = CARTESIAN_POINT('',(99.049776876069,0.,291.12001325149));
#543 = CARTESIAN_POINT('',(95.029695762246,0.,298.82165221651));
#544 = CARTESIAN_POINT('',(90.810297192312,0.,306.23306027503));
#545 = CARTESIAN_POINT('',(86.403402494912,0.,313.33367239846));
#546 = CARTESIAN_POINT('',(81.820880405239,0.,320.10381744348));
#547 = CARTESIAN_POINT('',(77.074637905338,0.,326.52478462547));
#548 = CARTESIAN_POINT('',(72.176607178901,0.,332.57889030793));
#549 = CARTESIAN_POINT('',(67.138740680873,0.,338.24954498962));
#550 = CARTESIAN_POINT('',(61.972962889136,0.,343.52131993606));
#551 = CARTESIAN_POINT('',(56.691253282246,0.,348.3800121926));
#552 = CARTESIAN_POINT('',(51.305225134472,0.,352.81270567737));
#553 = CARTESIAN_POINT('',(45.827463208066,0.,356.80782470576));
#554 = CARTESIAN_POINT('',(40.266518214148,0.,360.35517481673));
#555 = CARTESIAN_POINT('',(34.644563149139,0.,363.44596457522));
#556 = CARTESIAN_POINT('',(28.933724835787,0.,366.07280181474));
#557 = CARTESIAN_POINT('',(23.28493917662,0.,368.22965942323));
#558 = CARTESIAN_POINT('',(17.200538667327,0.,369.91180988329));
#559 = CARTESIAN_POINT('',(12.540166226107,0.,371.11573327254));
#560 = CARTESIAN_POINT('',(2.531906266563,0.,371.83902281315));
#561 = CARTESIAN_POINT('',(9.003055454651,0.,372.));
#562 = CARTESIAN_POINT('',(0.,0.,372.));
#563 = AXIS1_PLACEMENT('',#564,#565);
#564 = CARTESIAN_POINT('',(0.,0.,14.));
#565 = DIRECTION('',(0.,0.,1.));
#566 = DEFINITIONAL_REPRESENTATION('',(#567),#626);
#567 = B_SPLINE_CURVE_WITH_KNOTS('',8,(#568,#569,#570,#571,#572,#573,
    #574,#575,#576,#577,#578,#579,#580,#581,#582,#583,#584,#585,#586,
    #587,#588,#589,#590,#591,#592,#593,#594,#595,#596,#597,#598,#599,
    #600,#601,#602,#603,#604,#605,#606,#607,#608,#609,#610,#611,#612,
    #613,#614,#615,#616,#617,#618,#619,#620,#621,#622,#623,#624,#625),
  .UNSPECIFIED.,.F.,.F.,(9,7,7,7,7,7,7,7,9),(0.,0.125000000001,0.25,
    0.374999999999,0.5,0.625000000002,0.750000000003,0.875000000002,1.),
  .UNSPECIFIED.);
#568 = CARTESIAN_POINT('',(6.28318530718,388.69267876638));
#569 = CARTESIAN_POINT('',(6.185035596501,388.69267876638));
#570 = CARTESIAN_POINT('',(6.086819201368,388.69267876638));
#571 = CARTESIAN_POINT('',(5.988639307065,388.69267876638));
#572 = CARTESIAN_POINT('',(5.890486225455,388.69267876638));
#573 = CARTESIAN_POINT('',(5.792333143937,388.69267876638));
#574 = CARTESIAN_POINT('',(5.694153249575,388.69267876638));
#575 = CARTESIAN_POINT('',(5.595936854465,388.69267876638));
#576 = CARTESIAN_POINT('',(5.399637433102,388.69267876638));
#577 = CARTESIAN_POINT('',(5.301421037979,388.69267876638));
#578 = CARTESIAN_POINT('',(5.20324114365,388.69267876638));
#579 = CARTESIAN_POINT('',(5.10508806208,388.69267876638));
#580 = CARTESIAN_POINT('',(5.006934980522,388.69267876638));
#581 = CARTESIAN_POINT('',(4.908755086185,388.69267876638));
#582 = CARTESIAN_POINT('',(4.810538691066,388.69267876638));
#583 = CARTESIAN_POINT('',(4.614239269703,388.69267876638));
#584 = CARTESIAN_POINT('',(4.516022874587,388.69267876638));
#585 = CARTESIAN_POINT('',(4.417842980241,388.69267876638));
#586 = CARTESIAN_POINT('',(4.319689898698,388.69267876638));
#587 = CARTESIAN_POINT('',(4.221536817113,388.69267876638));
#588 = CARTESIAN_POINT('',(4.123356922793,388.69267876638));
#589 = CARTESIAN_POINT('',(4.025140527667,388.69267876638));
#590 = CARTESIAN_POINT('',(3.828841106306,388.69267876638));
#591 = CARTESIAN_POINT('',(3.730624711189,388.69267876638));
#592 = CARTESIAN_POINT('',(3.632444816846,388.69267876638));
#593 = CARTESIAN_POINT('',(3.534291735298,388.69267876638));
#594 = CARTESIAN_POINT('',(3.436138653718,388.69267876638));
#595 = CARTESIAN_POINT('',(3.337958759395,388.69267876638));
#596 = CARTESIAN_POINT('',(3.23974236427,388.69267876638));
#597 = CARTESIAN_POINT('',(3.043442942909,388.69267876638));
#598 = CARTESIAN_POINT('',(2.945226547788,388.69267876638));
#599 = CARTESIAN_POINT('',(2.847046653455,388.69267876638));
#600 = CARTESIAN_POINT('',(2.748893571891,388.69267876638));
#601 = CARTESIAN_POINT('',(2.650740490328,388.69267876638));
#602 = CARTESIAN_POINT('',(2.552560595994,388.69267876638));
#603 = CARTESIAN_POINT('',(2.454344200873,388.69267876638));
#604 = CARTESIAN_POINT('',(2.258044779513,388.69267876638));
#605 = CARTESIAN_POINT('',(2.159828384388,388.69267876638));
#606 = CARTESIAN_POINT('',(2.061648490064,388.69267876638));
#607 = CARTESIAN_POINT('',(1.963495408485,388.69267876638));
#608 = CARTESIAN_POINT('',(1.865342326937,388.69267876638));
#609 = CARTESIAN_POINT('',(1.767162432594,388.69267876638));
#610 = CARTESIAN_POINT('',(1.668946037476,388.69267876638));
#611 = CARTESIAN_POINT('',(1.472646616115,388.69267876638));
#612 = CARTESIAN_POINT('',(1.374430220991,388.69267876638));
#613 = CARTESIAN_POINT('',(1.276250326666,388.69267876638));
#614 = CARTESIAN_POINT('',(1.178097245089,388.69267876638));
#615 = CARTESIAN_POINT('',(1.079944163538,388.69267876638));
#616 = CARTESIAN_POINT('',(0.981764269197,388.69267876638));
#617 = CARTESIAN_POINT('',(0.883547874079,388.69267876638));
#618 = CARTESIAN_POINT('',(0.687248452718,388.69267876638));
#619 = CARTESIAN_POINT('',(0.589032057592,388.69267876638));
#620 = CARTESIAN_POINT('',(0.49085216327,388.69267876638));
#621 = CARTESIAN_POINT('',(0.39269908169,388.69267876638));
#622 = CARTESIAN_POINT('',(0.294546000142,388.69267876638));
#623 = CARTESIAN_POINT('',(0.196366105798,388.69267876638));
#624 = CARTESIAN_POINT('',(9.814971068141E-02,388.69267876638));
#625 = CARTESIAN_POINT('',(0.,388.69267876638));
#626 = ( GEOMETRIC_REPRESENTATION_CONTEXT(2) 
PARAMETRIC_REPRESENTATION_CONTEXT() REPRESENTATION_CONTEXT('2D SPACE',''
  ) );
#627 = ADVANCED_FACE('',(#628),#498,.F.);
#628 = FACE_BOUND('',#629,.F.);
#629 = EDGE_LOOP('',(#630,#713,#714,#715));
#630 = ORIENTED_EDGE('',*,*,#631,.F.);
#631 = EDGE_CURVE('',#373,#632,#634,.T.);
#632 = VERTEX_POINT('',#633);
#633 = CARTESIAN_POINT('',(75.848179957917,0.,328.));
#634 = SEAM_CURVE('',#635,(#699,#706),.PCURVE_S1.);
#635 = B_SPLINE_CURVE_WITH_KNOTS('',3,(#636,#637,#638,#639,#640,#641,
    #642,#643,#644,#645,#646,#647,#648,#649,#650,#651,#652,#653,#654,
    #655,#656,#657,#658,#659,#660,#661,#662,#663,#664,#665,#666,#667,
    #668,#669,#670,#671,#672,#673,#674,#675,#676,#677,#678,#679,#680,
    #681,#682,#683,#684,#685,#686,#687,#688,#689,#690,#691,#692,#693,
    #694,#695,#696,#697,#698),.UNSPECIFIED.,.F.,.F.,(4,1,1,1,1,1,1,1,1,1
    ,1,1,1,1,1,1,1,1,1,1,1,1,1,1,1,1,1,1,1,1,1,1,1,1,1,1,1,1,1,1,1,1,1,1
    ,1,1,1,1,1,1,1,1,1,1,1,1,1,1,1,1,4),(0.,7.778004655746,
    15.552735403833,23.321464358112,31.08221388224,38.834223805418,
    46.578234189783,54.316700238988,62.053909959299,69.795993480131,
    77.550819698316,85.327783344919,93.137493572513,100.9913828387,
    108.90126111474,116.87884425371,124.93528606687,133.08074121542,
    141.32398097223,149.67207723224,158.13016300233,166.70127101004,
    175.38624674547,184.18372851928,193.09018497385,202.09999969109,
    211.20559275989,220.39757004862,229.66489217153,238.99505651372,
    248.37428703261,257.78772779387,267.21963728301,276.65358144759,
    286.07262417964,295.45951455971,304.79687067782,314.0673602444,
    323.25387852874,332.33972443071,341.30877571818,350.14566465754,
    358.83595543,367.36632485916,375.72474806006,383.90069062709,
    391.88530885855,399.6716591898,407.25491735864,414.63260669231,
    421.80483306924,428.7745213176,435.54764381726,442.13342673081,
    448.54451275831,454.79705230932,460.9106890908,466.9084038256,
    472.81618368701,478.66248126429,484.47764768179),.UNSPECIFIED.);
#636 = CARTESIAN_POINT('',(0.,0.,16.));
#637 = CARTESIAN_POINT('',(2.596513294424,0.,16.));
#638 = CARTESIAN_POINT('',(7.776589252507,0.,16.161854619812));
#639 = CARTESIAN_POINT('',(15.523383547295,0.,16.889579158962));
#640 = CARTESIAN_POINT('',(23.201174278671,0.,18.100221775361));
#641 = CARTESIAN_POINT('',(30.780811782348,0.,19.790457328179));
#642 = CARTESIAN_POINT('',(38.229982708459,0.,21.955654671576));
#643 = CARTESIAN_POINT('',(45.518717868764,0.,24.589908786431));
#644 = CARTESIAN_POINT('',(52.618244294908,0.,27.686072329446));
#645 = CARTESIAN_POINT('',(59.501569064409,0.,31.235790770436));
#646 = CARTESIAN_POINT('',(66.14355157255,0.,35.229538197011));
#647 = CARTESIAN_POINT('',(72.521060688278,0.,39.656651526122));
#648 = CARTESIAN_POINT('',(78.613057492175,0.,44.505361299768));
#649 = CARTESIAN_POINT('',(84.400649034532,0.,49.762817993985));
#650 = CARTESIAN_POINT('',(89.867105648686,0.,55.415113761845));
#651 = CARTESIAN_POINT('',(94.997849778913,0.,61.447300588918));
#652 = CARTESIAN_POINT('',(99.780420624241,0.,67.84340675564));
#653 = CARTESIAN_POINT('',(104.2044196633,0.,74.586454092778));
#654 = CARTESIAN_POINT('',(108.26144117719,0.,81.658478676626));
#655 = CARTESIAN_POINT('',(111.94499112677,0.,89.040557331833));
#656 = CARTESIAN_POINT('',(115.2503969113,0.,96.712841679826));
#657 = CARTESIAN_POINT('',(118.17470990705,0.,104.65460064306));
#658 = CARTESIAN_POINT('',(120.7166022938,0.,112.84427146458));
#659 = CARTESIAN_POINT('',(122.87625952095,0.,121.25951857867));
#660 = CARTESIAN_POINT('',(124.65526977443,0.,129.87729916603));
#661 = CARTESIAN_POINT('',(126.05651188823,0.,138.67393397293));
#662 = CARTESIAN_POINT('',(127.08404321848,0.,147.62518194109));
#663 = CARTESIAN_POINT('',(127.7429890085,0.,156.70631732225));
#664 = CARTESIAN_POINT('',(128.03943469811,0.,165.89220817012));
#665 = CARTESIAN_POINT('',(127.98032247568,0.,175.15739535152));
#666 = CARTESIAN_POINT('',(127.57335315822,0.,184.47617145547));
#667 = CARTESIAN_POINT('',(126.82689424075,0.,193.8226591794));
#668 = CARTESIAN_POINT('',(125.74989470629,0.,203.17088892643));
#669 = CARTESIAN_POINT('',(124.35180695345,0.,212.49487545856));
#670 = CARTESIAN_POINT('',(122.64251598987,0.,221.76869352373));
#671 = CARTESIAN_POINT('',(120.63227586601,0.,230.96655242028));
#672 = CARTESIAN_POINT('',(118.33165318392,0.,240.06286948893));
#673 = CARTESIAN_POINT('',(115.75147740872,0.,249.03234253821));
#674 = CARTESIAN_POINT('',(112.90279763128,0.,257.85002122077));
#675 = CARTESIAN_POINT('',(109.79684537314,0.,266.49137739053));
#676 = CARTESIAN_POINT('',(106.44500298162,0.,274.93237448751));
#677 = CARTESIAN_POINT('',(102.8587771274,0.,283.14953602077));
#678 = CARTESIAN_POINT('',(99.049776876069,0.,291.12001325149));
#679 = CARTESIAN_POINT('',(95.029695762246,0.,298.82165221651));
#680 = CARTESIAN_POINT('',(90.810297192312,0.,306.23306027503));
#681 = CARTESIAN_POINT('',(86.403402494912,0.,313.33367239846));
#682 = CARTESIAN_POINT('',(81.820880405239,0.,320.10381744348));
#683 = CARTESIAN_POINT('',(77.074637905338,0.,326.52478462547));
#684 = CARTESIAN_POINT('',(72.176607178901,0.,332.57889030793));
#685 = CARTESIAN_POINT('',(67.138740680873,0.,338.24954498962));
#686 = CARTESIAN_POINT('',(61.972962889136,0.,343.52131993606));
#687 = CARTESIAN_POINT('',(56.691253282246,0.,348.3800121926));
#688 = CARTESIAN_POINT('',(51.305225134472,0.,352.81270567737));
#689 = CARTESIAN_POINT('',(45.827463208066,0.,356.80782470576));
#690 = CARTESIAN_POINT('',(40.266518214148,0.,360.35517481673));
#691 = CARTESIAN_POINT('',(34.644563149139,0.,363.44596457522));
#692 = CARTESIAN_POINT('',(28.933724835787,0.,366.07280181474));
#693 = CARTESIAN_POINT('',(23.28493917662,0.,368.22965942323));
#694 = CARTESIAN_POINT('',(17.200538667327,0.,369.91180988329));
#695 = CARTESIAN_POINT('',(12.540166226107,0.,371.11573327254));
#696 = CARTESIAN_POINT('',(2.531906266563,0.,371.83902281315));
#697 = CARTESIAN_POINT('',(9.003055454651,0.,372.));
#698 = CARTESIAN_POINT('',(0.,0.,372.));
#699 = PCURVE('',#498,#700);
#700 = DEFINITIONAL_REPRESENTATION('',(#701),#705);
#701 = LINE('',#702,#703);
#702 = CARTESIAN_POINT('',(0.,0.));
#703 = VECTOR('',#704,1.);
#704 = DIRECTION('',(0.,1.));
#705 = ( GEOMETRIC_REPRESENTATION_CONTEXT(2) 
PARAMETRIC_REPRESENTATION_CONTEXT() REPRESENTATION_CONTEXT('2D SPACE',''
  ) );
#706 = PCURVE('',#498,#707);
#707 = DEFINITIONAL_REPRESENTATION('',(#708),#712);
#708 = LINE('',#709,#710);
#709 = CARTESIAN_POINT('',(6.28318530718,0.));
#710 = VECTOR('',#711,1.);
#711 = DIRECTION('',(0.,1.));
#712 = ( GEOMETRIC_REPRESENTATION_CONTEXT(2) 
PARAMETRIC_REPRESENTATION_CONTEXT() REPRESENTATION_CONTEXT('2D SPACE',''
  ) );
#713 = ORIENTED_EDGE('',*,*,#372,.F.);
#714 = ORIENTED_EDGE('',*,*,#631,.T.);
#715 = ORIENTED_EDGE('',*,*,#716,.T.);
#716 = EDGE_CURVE('',#632,#632,#717,.T.);
#717 = SURFACE_CURVE('',#718,(#777,#839),.PCURVE_S1.);
#718 = B_SPLINE_CURVE_WITH_KNOTS('',8,(#719,#720,#721,#722,#723,#724,
    #725,#726,#727,#728,#729,#730,#731,#732,#733,#734,#735,#736,#737,
    #738,#739,#740,#741,#742,#743,#744,#745,#746,#747,#748,#749,#750,
    #751,#752,#753,#754,#755,#756,#757,#758,#759,#760,#761,#762,#763,
    #764,#765,#766,#767,#768,#769,#770,#771,#772,#773,#774,#775,#776),
  .UNSPECIFIED.,.T.,.F.,(9,7,7,7,7,7,7,7,9),(0.,0.124999999995,
    0.24999999999,0.374999999989,0.499999999992,0.624999999995,
    0.749999999998,0.874999999999,1.),.UNSPECIFIED.);
#719 = CARTESIAN_POINT('',(75.848179957917,-1.695342726263E-14,328.));
#720 = CARTESIAN_POINT('',(75.84818022813,-7.444475284417,328.));
#721 = CARTESIAN_POINT('',(75.013123027068,-14.89402211218,328.));
#722 = CARTESIAN_POINT('',(73.34103427027,-22.2314624954,328.));
#723 = CARTESIAN_POINT('',(70.851973440401,-29.34784832019,328.));
#724 = CARTESIAN_POINT('',(67.579960558109,-36.13992478517,328.));
#725 = CARTESIAN_POINT('',(63.573952005005,-42.51062393591,328.));
#726 = CARTESIAN_POINT('',(58.89680153598,-48.36872362394,328.));
#727 = CARTESIAN_POINT('',(48.368723623968,-58.89680153596,328.));
#728 = CARTESIAN_POINT('',(42.510623935818,-63.57395200505,328.));
#729 = CARTESIAN_POINT('',(36.139924785453,-67.57996055798,328.));
#730 = CARTESIAN_POINT('',(29.34784831981,-70.85197344054,328.));
#731 = CARTESIAN_POINT('',(22.231462495743,-73.34103427016,328.));
#732 = CARTESIAN_POINT('',(14.894022112026,-75.01312302711,328.));
#733 = CARTESIAN_POINT('',(7.444475284463,-75.84818022812,328.));
#734 = CARTESIAN_POINT('',(-7.444475284429,-75.84818022812,328.));
#735 = CARTESIAN_POINT('',(-14.89402211209,-75.0131230271,328.));
#736 = CARTESIAN_POINT('',(-22.23146249557,-73.34103427017,328.));
#737 = CARTESIAN_POINT('',(-29.34784831996,-70.85197344055,328.));
#738 = CARTESIAN_POINT('',(-36.13992478532,-67.57996055798,328.));
#739 = CARTESIAN_POINT('',(-42.51062393584,-63.57395200507,328.));
#740 = CARTESIAN_POINT('',(-48.36872362395,-58.89680153597,328.));
#741 = CARTESIAN_POINT('',(-58.89680153595,-48.36872362396,328.));
#742 = CARTESIAN_POINT('',(-63.57395200505,-42.51062393587,328.));
#743 = CARTESIAN_POINT('',(-67.57996055797,-36.13992478531,328.));
#744 = CARTESIAN_POINT('',(-70.85197344054,-29.34784832004,328.));
#745 = CARTESIAN_POINT('',(-73.34103427016,-22.23146249552,328.));
#746 = CARTESIAN_POINT('',(-75.0131230271,-14.89402211214,328.));
#747 = CARTESIAN_POINT('',(-75.84818022812,-7.444475284437,328.));
#748 = CARTESIAN_POINT('',(-75.84818022812,7.444475284419,328.));
#749 = CARTESIAN_POINT('',(-75.01312302708,14.894022112118,328.));
#750 = CARTESIAN_POINT('',(-73.34103427022,22.231462495541,328.));
#751 = CARTESIAN_POINT('',(-70.85197344049,29.347848319964,328.));
#752 = CARTESIAN_POINT('',(-67.57996055801,36.139924785365,328.));
#753 = CARTESIAN_POINT('',(-63.57395200506,42.510623935811,328.));
#754 = CARTESIAN_POINT('',(-58.89680153596,48.368723623963,328.));
#755 = CARTESIAN_POINT('',(-48.36872362399,58.896801535998,328.));
#756 = CARTESIAN_POINT('',(-42.51062393575,63.573952004869,328.));
#757 = CARTESIAN_POINT('',(-36.13992478556,67.579960558416,328.));
#758 = CARTESIAN_POINT('',(-29.34784831973,70.851973439956,328.));
#759 = CARTESIAN_POINT('',(-22.23146249576,73.341034270639,328.));
#760 = CARTESIAN_POINT('',(-14.89402211203,75.013123026884,328.));
#761 = CARTESIAN_POINT('',(-7.444475284462,75.848180228171,328.));
#762 = CARTESIAN_POINT('',(7.444475284405,75.848180228165,328.));
#763 = CARTESIAN_POINT('',(14.894022112193,75.013123026923,328.));
#764 = CARTESIAN_POINT('',(22.231462495388,73.341034270568,328.));
#765 = CARTESIAN_POINT('',(29.347848320127,70.851973440071,328.));
#766 = CARTESIAN_POINT('',(36.139924785285,67.579960558326,328.));
#767 = CARTESIAN_POINT('',(42.510623935825,63.573952004936,328.));
#768 = CARTESIAN_POINT('',(48.368723623967,58.896801535993,328.));
#769 = CARTESIAN_POINT('',(58.896801535994,48.368723624002,328.));
#770 = CARTESIAN_POINT('',(63.57395200489,42.510623935697,328.));
#771 = CARTESIAN_POINT('',(67.579960558366,36.139924785664,328.));
#772 = CARTESIAN_POINT('',(70.851973440044,29.347848319623,328.));
#773 = CARTESIAN_POINT('',(73.341034270558,22.231462495815,328.));
#774 = CARTESIAN_POINT('',(75.013123026932,14.894022112021,328.));
#775 = CARTESIAN_POINT('',(75.84818022816,7.44447528445,328.));
#776 = CARTESIAN_POINT('',(75.848179957917,-2.742572547424E-15,328.));
#777 = PCURVE('',#498,#778);
#778 = DEFINITIONAL_REPRESENTATION('',(#779),#838);
#779 = B_SPLINE_CURVE_WITH_KNOTS('',8,(#780,#781,#782,#783,#784,#785,
    #786,#787,#788,#789,#790,#791,#792,#793,#794,#795,#796,#797,#798,
    #799,#800,#801,#802,#803,#804,#805,#806,#807,#808,#809,#810,#811,
    #812,#813,#814,#815,#816,#817,#818,#819,#820,#821,#822,#823,#824,
    #825,#826,#827,#828,#829,#830,#831,#832,#833,#834,#835,#836,#837),
  .UNSPECIFIED.,.F.,.F.,(9,7,7,7,7,7,7,7,9),(0.,0.124999999995,
    0.24999999999,0.374999999989,0.499999999992,0.624999999995,
    0.749999999998,0.874999999999,1.),.UNSPECIFIED.);
#780 = CARTESIAN_POINT('',(6.28318530718,393.73631457318));
#781 = CARTESIAN_POINT('',(6.185035596168,393.73631457318));
#782 = CARTESIAN_POINT('',(6.086819201622,393.73631457318));
#783 = CARTESIAN_POINT('',(5.988639307288,393.73631457318));
#784 = CARTESIAN_POINT('',(5.890486225477,393.73631457318));
#785 = CARTESIAN_POINT('',(5.792333143679,393.73631457318));
#786 = CARTESIAN_POINT('',(5.694153249337,393.73631457318));
#787 = CARTESIAN_POINT('',(5.595936854795,393.73631457318));
#788 = CARTESIAN_POINT('',(5.39963743277,393.73631457318));
#789 = CARTESIAN_POINT('',(5.301421038228,393.73631457318));
#790 = CARTESIAN_POINT('',(5.203241143884,393.73631457318));
#791 = CARTESIAN_POINT('',(5.10508806209,393.73631457318));
#792 = CARTESIAN_POINT('',(5.006934980273,393.73631457318));
#793 = CARTESIAN_POINT('',(4.908755085944,393.73631457318));
#794 = CARTESIAN_POINT('',(4.810538691396,393.73631457318));
#795 = CARTESIAN_POINT('',(4.614239269369,393.73631457318));
#796 = CARTESIAN_POINT('',(4.516022874842,393.73631457318));
#797 = CARTESIAN_POINT('',(4.417842980461,393.73631457318));
#798 = CARTESIAN_POINT('',(4.319689898724,393.73631457318));
#799 = CARTESIAN_POINT('',(4.221536816852,393.73631457318));
#800 = CARTESIAN_POINT('',(4.123356922557,393.73631457318));
#801 = CARTESIAN_POINT('',(4.025140527997,393.73631457318));
#802 = CARTESIAN_POINT('',(3.828841105975,393.73631457318));
#803 = CARTESIAN_POINT('',(3.730624711432,393.73631457318));
#804 = CARTESIAN_POINT('',(3.63244481709,393.73631457318));
#805 = CARTESIAN_POINT('',(3.534291735294,393.73631457318));
#806 = CARTESIAN_POINT('',(3.436138653478,393.73631457318));
#807 = CARTESIAN_POINT('',(3.337958759149,393.73631457318));
#808 = CARTESIAN_POINT('',(3.239742364601,393.73631457318));
#809 = CARTESIAN_POINT('',(3.043442942579,393.73631457318));
#810 = CARTESIAN_POINT('',(2.945226548029,393.73631457318));
#811 = CARTESIAN_POINT('',(2.847046653704,393.73631457318));
#812 = CARTESIAN_POINT('',(2.748893571884,393.73631457318));
#813 = CARTESIAN_POINT('',(2.65074049009,393.73631457318));
#814 = CARTESIAN_POINT('',(2.552560595748,393.73631457318));
#815 = CARTESIAN_POINT('',(2.454344201205,393.73631457318));
#816 = CARTESIAN_POINT('',(2.258044779181,393.73631457318));
#817 = CARTESIAN_POINT('',(2.159828384635,393.73631457318));
#818 = CARTESIAN_POINT('',(2.061648490302,393.73631457318));
#819 = CARTESIAN_POINT('',(1.96349540849,393.73631457318));
#820 = CARTESIAN_POINT('',(1.865342326691,393.73631457318));
#821 = CARTESIAN_POINT('',(1.76716243235,393.73631457318));
#822 = CARTESIAN_POINT('',(1.668946037807,393.73631457318));
#823 = CARTESIAN_POINT('',(1.472646615784,393.73631457318));
#824 = CARTESIAN_POINT('',(1.374430221236,393.73631457318));
#825 = CARTESIAN_POINT('',(1.276250326907,393.73631457318));
#826 = CARTESIAN_POINT('',(1.178097245091,393.73631457318));
#827 = CARTESIAN_POINT('',(1.079944163294,393.73631457318));
#828 = CARTESIAN_POINT('',(0.981764268953,393.73631457318));
#829 = CARTESIAN_POINT('',(0.88354787441,393.73631457318));
#830 = CARTESIAN_POINT('',(0.687248452386,393.73631457318));
#831 = CARTESIAN_POINT('',(0.589032057839,393.73631457318));
#832 = CARTESIAN_POINT('',(0.490852163508,393.73631457318));
#833 = CARTESIAN_POINT('',(0.392699081695,393.73631457318));
#834 = CARTESIAN_POINT('',(0.294545999895,393.73631457318));
#835 = CARTESIAN_POINT('',(0.196366105557,393.73631457318));
#836 = CARTESIAN_POINT('',(9.814971101202E-02,393.73631457318));
#837 = CARTESIAN_POINT('',(0.,393.73631457318));
#838 = ( GEOMETRIC_REPRESENTATION_CONTEXT(2) 
PARAMETRIC_REPRESENTATION_CONTEXT() REPRESENTATION_CONTEXT('2D SPACE',''
  ) );
#839 = PCURVE('',#840,#845);
#840 = PLANE('',#841);
#841 = AXIS2_PLACEMENT_3D('',#842,#843,#844);
#842 = CARTESIAN_POINT('',(-1.40025869572E-14,2.567913688298E-14,328.));
#843 = DIRECTION('',(0.,0.,1.));
#844 = DIRECTION('',(1.,0.,-0.));
#845 = DEFINITIONAL_REPRESENTATION('',(#846),#905);
#846 = B_SPLINE_CURVE_WITH_KNOTS('',8,(#847,#848,#849,#850,#851,#852,
    #853,#854,#855,#856,#857,#858,#859,#860,#861,#862,#863,#864,#865,
    #866,#867,#868,#869,#870,#871,#872,#873,#874,#875,#876,#877,#878,
    #879,#880,#881,#882,#883,#884,#885,#886,#887,#888,#889,#890,#891,
    #892,#893,#894,#895,#896,#897,#898,#899,#900,#901,#902,#903,#904),
  .UNSPECIFIED.,.F.,.F.,(9,7,7,7,7,7,7,7,9),(0.,0.124999999995,
    0.24999999999,0.374999999989,0.499999999992,0.624999999995,
    0.749999999998,0.874999999999,1.),.UNSPECIFIED.);
#847 = CARTESIAN_POINT('',(75.848179957917,-4.263256414561E-14));
#848 = CARTESIAN_POINT('',(75.84818022813,-7.444475284417));
#849 = CARTESIAN_POINT('',(75.013123027068,-14.89402211218));
#850 = CARTESIAN_POINT('',(73.34103427027,-22.2314624954));
#851 = CARTESIAN_POINT('',(70.851973440401,-29.34784832019));
#852 = CARTESIAN_POINT('',(67.579960558109,-36.13992478517));
#853 = CARTESIAN_POINT('',(63.573952005005,-42.51062393591));
#854 = CARTESIAN_POINT('',(58.89680153598,-48.36872362394));
#855 = CARTESIAN_POINT('',(48.368723623968,-58.89680153596));
#856 = CARTESIAN_POINT('',(42.510623935818,-63.57395200505));
#857 = CARTESIAN_POINT('',(36.139924785454,-67.57996055798));
#858 = CARTESIAN_POINT('',(29.34784831981,-70.85197344054));
#859 = CARTESIAN_POINT('',(22.231462495743,-73.34103427016));
#860 = CARTESIAN_POINT('',(14.894022112026,-75.01312302711));
#861 = CARTESIAN_POINT('',(7.444475284463,-75.84818022812));
#862 = CARTESIAN_POINT('',(-7.444475284429,-75.84818022812));
#863 = CARTESIAN_POINT('',(-14.89402211209,-75.0131230271));
#864 = CARTESIAN_POINT('',(-22.23146249557,-73.34103427017));
#865 = CARTESIAN_POINT('',(-29.34784831996,-70.85197344055));
#866 = CARTESIAN_POINT('',(-36.13992478532,-67.57996055798));
#867 = CARTESIAN_POINT('',(-42.51062393584,-63.57395200507));
#868 = CARTESIAN_POINT('',(-48.36872362395,-58.89680153597));
#869 = CARTESIAN_POINT('',(-58.89680153595,-48.36872362396));
#870 = CARTESIAN_POINT('',(-63.57395200505,-42.51062393587));
#871 = CARTESIAN_POINT('',(-67.57996055797,-36.13992478531));
#872 = CARTESIAN_POINT('',(-70.85197344054,-29.34784832004));
#873 = CARTESIAN_POINT('',(-73.34103427016,-22.23146249552));
#874 = CARTESIAN_POINT('',(-75.0131230271,-14.89402211214));
#875 = CARTESIAN_POINT('',(-75.84818022812,-7.444475284437));
#876 = CARTESIAN_POINT('',(-75.84818022812,7.444475284418));
#877 = CARTESIAN_POINT('',(-75.01312302708,14.894022112118));
#878 = CARTESIAN_POINT('',(-73.34103427022,22.231462495541));
#879 = CARTESIAN_POINT('',(-70.85197344049,29.347848319964));
#880 = CARTESIAN_POINT('',(-67.57996055801,36.139924785365));
#881 = CARTESIAN_POINT('',(-63.57395200506,42.510623935811));
#882 = CARTESIAN_POINT('',(-58.89680153596,48.368723623963));
#883 = CARTESIAN_POINT('',(-48.36872362399,58.896801535998));
#884 = CARTESIAN_POINT('',(-42.51062393575,63.573952004869));
#885 = CARTESIAN_POINT('',(-36.13992478556,67.579960558416));
#886 = CARTESIAN_POINT('',(-29.34784831973,70.851973439956));
#887 = CARTESIAN_POINT('',(-22.23146249576,73.341034270639));
#888 = CARTESIAN_POINT('',(-14.89402211203,75.013123026884));
#889 = CARTESIAN_POINT('',(-7.444475284462,75.848180228171));
#890 = CARTESIAN_POINT('',(7.444475284405,75.848180228165));
#891 = CARTESIAN_POINT('',(14.894022112193,75.013123026923));
#892 = CARTESIAN_POINT('',(22.231462495388,73.341034270568));
#893 = CARTESIAN_POINT('',(29.347848320127,70.851973440071));
#894 = CARTESIAN_POINT('',(36.139924785285,67.579960558326));
#895 = CARTESIAN_POINT('',(42.510623935825,63.573952004936));
#896 = CARTESIAN_POINT('',(48.368723623967,58.896801535993));
#897 = CARTESIAN_POINT('',(58.896801535994,48.368723624002));
#898 = CARTESIAN_POINT('',(63.57395200489,42.510623935697));
#899 = CARTESIAN_POINT('',(67.579960558367,36.139924785664));
#900 = CARTESIAN_POINT('',(70.851973440044,29.347848319623));
#901 = CARTESIAN_POINT('',(73.341034270558,22.231462495815));
#902 = CARTESIAN_POINT('',(75.013123026932,14.894022112021));
#903 = CARTESIAN_POINT('',(75.84818022816,7.44447528445));
#904 = CARTESIAN_POINT('',(75.848179957917,-2.84217094304E-14));
#905 = ( GEOMETRIC_REPRESENTATION_CONTEXT(2) 
PARAMETRIC_REPRESENTATION_CONTEXT() REPRESENTATION_CONTEXT('2D SPACE',''
  ) );
#906 = ADVANCED_FACE('',(#907),#840,.F.);
#907 = FACE_BOUND('',#908,.F.);
#908 = EDGE_LOOP('',(#909));
#909 = ORIENTED_EDGE('',*,*,#716,.F.);
#910 = ORIENTED_CLOSED_SHELL('',*,#911,.F.);
#911 = CLOSED_SHELL('',(#912,#1260));
#912 = ADVANCED_FACE('',(#913),#980,.T.);
#913 = FACE_BOUND('',#914,.T.);
#914 = EDGE_LOOP('',(#915,#1176,#1259));
#915 = ORIENTED_EDGE('',*,*,#916,.F.);
#916 = EDGE_CURVE('',#917,#917,#919,.T.);
#917 = VERTEX_POINT('',#918);
#918 = CARTESIAN_POINT('',(74.242965020179,0.,330.));
#919 = SURFACE_CURVE('',#920,(#979,#1109),.PCURVE_S1.);
#920 = B_SPLINE_CURVE_WITH_KNOTS('',8,(#921,#922,#923,#924,#925,#926,
    #927,#928,#929,#930,#931,#932,#933,#934,#935,#936,#937,#938,#939,
    #940,#941,#942,#943,#944,#945,#946,#947,#948,#949,#950,#951,#952,
    #953,#954,#955,#956,#957,#958,#959,#960,#961,#962,#963,#964,#965,
    #966,#967,#968,#969,#970,#971,#972,#973,#974,#975,#976,#977,#978),
  .UNSPECIFIED.,.T.,.F.,(9,7,7,7,7,7,7,7,9),(0.,0.124999999997,
    0.249999999997,0.375000000001,0.500000000003,0.625000000005,
    0.750000000004,0.875000000002,1.),.UNSPECIFIED.);
#921 = CARTESIAN_POINT('',(74.242965020179,-1.695342726263E-14,330.));
#922 = CARTESIAN_POINT('',(74.242965284642,-7.286923951391,330.));
#923 = CARTESIAN_POINT('',(73.425580835489,-14.5788120756,330.));
#924 = CARTESIAN_POINT('',(71.788879381081,-21.76096634787,330.));
#925 = CARTESIAN_POINT('',(69.352495852386,-28.72674436649,330.));
#926 = CARTESIAN_POINT('',(66.149730293951,-35.37507655436,330.));
#927 = CARTESIAN_POINT('',(62.228503001601,-41.61094924104,330.));
#928 = CARTESIAN_POINT('',(57.650337548205,-47.34507086813,330.));
#929 = CARTESIAN_POINT('',(47.345070868186,-57.6503375482,330.));
#930 = CARTESIAN_POINT('',(41.610949240859,-62.22850300156,330.));
#931 = CARTESIAN_POINT('',(35.37507655481,-66.14973029404,330.));
#932 = CARTESIAN_POINT('',(28.72674436588,-69.35249585224,330.));
#933 = CARTESIAN_POINT('',(21.760966348441,-71.78887938119,330.));
#934 = CARTESIAN_POINT('',(14.578812075326,-73.42558083542,330.));
#935 = CARTESIAN_POINT('',(7.28692395147,-74.24296528465,330.));
#936 = CARTESIAN_POINT('',(-7.286923951398,-74.24296528466,330.));
#937 = CARTESIAN_POINT('',(-14.57881207556,-73.42558083538,330.));
#938 = CARTESIAN_POINT('',(-21.7609663479,-71.78887938131,330.));
#939 = CARTESIAN_POINT('',(-28.7267443665,-69.35249585209,330.));
#940 = CARTESIAN_POINT('',(-35.3750765543,-66.14973029418,330.));
#941 = CARTESIAN_POINT('',(-41.61094924106,-62.2285030015,330.));
#942 = CARTESIAN_POINT('',(-47.34507086812,-57.65033754823,330.));
#943 = CARTESIAN_POINT('',(-57.65033754822,-47.34507086812,330.));
#944 = CARTESIAN_POINT('',(-62.22850300145,-41.61094924117,330.));
#945 = CARTESIAN_POINT('',(-66.14973029423,-35.37507655415,330.));
#946 = CARTESIAN_POINT('',(-69.35249585201,-28.72674436673,330.));
#947 = CARTESIAN_POINT('',(-71.78887938135,-21.76096634777,330.));
#948 = CARTESIAN_POINT('',(-73.42558083536,-14.57881207563,330.));
#949 = CARTESIAN_POINT('',(-74.24296528466,-7.286923951404,330.));
#950 = CARTESIAN_POINT('',(-74.24296528467,7.286923951406,330.));
#951 = CARTESIAN_POINT('',(-73.42558083536,14.578812075521,330.));
#952 = CARTESIAN_POINT('',(-71.78887938136,21.760966347977,330.));
#953 = CARTESIAN_POINT('',(-69.35249585203,28.726744366428,330.));
#954 = CARTESIAN_POINT('',(-66.14973029423,35.37507655437,330.));
#955 = CARTESIAN_POINT('',(-62.22850300148,41.610949241034,330.));
#956 = CARTESIAN_POINT('',(-57.65033754823,47.345070868137,330.));
#957 = CARTESIAN_POINT('',(-47.34507086816,57.650337548215,330.));
#958 = CARTESIAN_POINT('',(-41.61094924096,62.228503001507,330.));
#959 = CARTESIAN_POINT('',(-35.37507655459,66.149730294136,330.));
#960 = CARTESIAN_POINT('',(-28.72674436619,69.352495852144,330.));
#961 = CARTESIAN_POINT('',(-21.76096634818,71.78887938126,330.));
#962 = CARTESIAN_POINT('',(-14.57881207545,73.425580835405,330.));
#963 = CARTESIAN_POINT('',(-7.286923951443,74.242965284659,330.));
#964 = CARTESIAN_POINT('',(7.286923951448,74.242965284733,330.));
#965 = CARTESIAN_POINT('',(14.57881207536,73.425580835083,330.));
#966 = CARTESIAN_POINT('',(21.760966348293,71.788879381974,330.));
#967 = CARTESIAN_POINT('',(28.726744366059,69.352495851239,330.));
#968 = CARTESIAN_POINT('',(35.375076554637,66.149730294863,330.));
#969 = CARTESIAN_POINT('',(41.610949240924,62.228503001186,330.));
#970 = CARTESIAN_POINT('',(47.345070868159,57.6503375483,330.));
#971 = CARTESIAN_POINT('',(57.650337548258,47.345070868142,330.));
#972 = CARTESIAN_POINT('',(62.228503001342,41.610949241061,330.));
#973 = CARTESIAN_POINT('',(66.149730294467,35.375076554385,330.));
#974 = CARTESIAN_POINT('',(69.352495851758,28.726744366425,330.));
#975 = CARTESIAN_POINT('',(71.788879381546,21.760966347997,330.));
#976 = CARTESIAN_POINT('',(73.425580835283,14.578812075533,330.));
#977 = CARTESIAN_POINT('',(74.242965284686,7.286923951416,330.));
#978 = CARTESIAN_POINT('',(74.242965020179,-2.742572547424E-15,330.));
#979 = PCURVE('',#980,#1048);
#980 = SURFACE_OF_REVOLUTION('',#981,#1045);
#981 = B_SPLINE_CURVE_WITH_KNOTS('',3,(#982,#983,#984,#985,#986,#987,
    #988,#989,#990,#991,#992,#993,#994,#995,#996,#997,#998,#999,#1000,
    #1001,#1002,#1003,#1004,#1005,#1006,#1007,#1008,#1009,#1010,#1011,
    #1012,#1013,#1014,#1015,#1016,#1017,#1018,#1019,#1020,#1021,#1022,
    #1023,#1024,#1025,#1026,#1027,#1028,#1029,#1030,#1031,#1032,#1033,
    #1034,#1035,#1036,#1037,#1038,#1039,#1040,#1041,#1042,#1043,#1044),
  .UNSPECIFIED.,.F.,.F.,(4,1,1,1,1,1,1,1,1,1,1,1,1,1,1,1,1,1,1,1,1,1,1,1
    ,1,1,1,1,1,1,1,1,1,1,1,1,1,1,1,1,1,1,1,1,1,1,1,1,1,1,1,1,1,1,1,1,1,1
    ,1,1,4),(0.,7.778004655746,15.552735403833,23.321464358112,
    31.08221388224,38.834223805418,46.578234189783,54.316700238988,
    62.053909959299,69.795993480131,77.550819698316,85.327783344919,
    93.137493572513,100.9913828387,108.90126111474,116.87884425371,
    124.93528606687,133.08074121542,141.32398097223,149.67207723224,
    158.13016300233,166.70127101004,175.38624674547,184.18372851928,
    193.09018497385,202.09999969109,211.20559275989,220.39757004862,
    229.66489217153,238.99505651372,248.37428703261,257.78772779387,
    267.21963728301,276.65358144759,286.07262417964,295.45951455971,
    304.79687067782,314.0673602444,323.25387852874,332.33972443071,
    341.30877571818,350.14566465754,358.83595543,367.36632485916,
    375.72474806006,383.90069062709,391.88530885855,399.6716591898,
    407.25491735864,414.63260669231,421.80483306924,428.7745213176,
    435.54764381726,442.13342673081,448.54451275831,454.79705230932,
    460.9106890908,466.9084038256,472.81618368701,478.66248126429,
    484.47764768179),.UNSPECIFIED.);
#982 = CARTESIAN_POINT('',(0.,0.,16.));
#983 = CARTESIAN_POINT('',(2.596513294424,0.,16.));
#984 = CARTESIAN_POINT('',(7.776589252507,0.,16.161854619812));
#985 = CARTESIAN_POINT('',(15.523383547295,0.,16.889579158962));
#986 = CARTESIAN_POINT('',(23.201174278671,0.,18.100221775361));
#987 = CARTESIAN_POINT('',(30.780811782348,0.,19.790457328179));
#988 = CARTESIAN_POINT('',(38.229982708459,0.,21.955654671576));
#989 = CARTESIAN_POINT('',(45.518717868764,0.,24.589908786431));
#990 = CARTESIAN_POINT('',(52.618244294908,0.,27.686072329446));
#991 = CARTESIAN_POINT('',(59.501569064409,0.,31.235790770436));
#992 = CARTESIAN_POINT('',(66.14355157255,0.,35.229538197011));
#993 = CARTESIAN_POINT('',(72.521060688278,0.,39.656651526122));
#994 = CARTESIAN_POINT('',(78.613057492175,0.,44.505361299768));
#995 = CARTESIAN_POINT('',(84.400649034532,0.,49.762817993985));
#996 = CARTESIAN_POINT('',(89.867105648686,0.,55.415113761845));
#997 = CARTESIAN_POINT('',(94.997849778913,0.,61.447300588918));
#998 = CARTESIAN_POINT('',(99.780420624241,0.,67.84340675564));
#999 = CARTESIAN_POINT('',(104.2044196633,0.,74.586454092778));
#1000 = CARTESIAN_POINT('',(108.26144117719,0.,81.658478676626));
#1001 = CARTESIAN_POINT('',(111.94499112677,0.,89.040557331833));
#1002 = CARTESIAN_POINT('',(115.2503969113,0.,96.712841679826));
#1003 = CARTESIAN_POINT('',(118.17470990705,0.,104.65460064306));
#1004 = CARTESIAN_POINT('',(120.7166022938,0.,112.84427146458));
#1005 = CARTESIAN_POINT('',(122.87625952095,0.,121.25951857867));
#1006 = CARTESIAN_POINT('',(124.65526977443,0.,129.87729916603));
#1007 = CARTESIAN_POINT('',(126.05651188823,0.,138.67393397293));
#1008 = CARTESIAN_POINT('',(127.08404321848,0.,147.62518194109));
#1009 = CARTESIAN_POINT('',(127.7429890085,0.,156.70631732225));
#1010 = CARTESIAN_POINT('',(128.03943469811,0.,165.89220817012));
#1011 = CARTESIAN_POINT('',(127.98032247568,0.,175.15739535152));
#1012 = CARTESIAN_POINT('',(127.57335315822,0.,184.47617145547));
#1013 = CARTESIAN_POINT('',(126.82689424075,0.,193.8226591794));
#1014 = CARTESIAN_POINT('',(125.74989470629,0.,203.17088892643));
#1015 = CARTESIAN_POINT('',(124.35180695345,0.,212.49487545856));
#1016 = CARTESIAN_POINT('',(122.64251598987,0.,221.76869352373));
#1017 = CARTESIAN_POINT('',(120.63227586601,0.,230.96655242028));
#1018 = CARTESIAN_POINT('',(118.33165318392,0.,240.06286948893));
#1019 = CARTESIAN_POINT('',(115.75147740872,0.,249.03234253821));
#1020 = CARTESIAN_POINT('',(112.90279763128,0.,257.85002122077));
#1021 = CARTESIAN_POINT('',(109.79684537314,0.,266.49137739053));
#1022 = CARTESIAN_POINT('',(106.44500298162,0.,274.93237448751));
#1023 = CARTESIAN_POINT('',(102.8587771274,0.,283.14953602077));
#1024 = CARTESIAN_POINT('',(99.049776876069,0.,291.12001325149));
#1025 = CARTESIAN_POINT('',(95.029695762246,0.,298.82165221651));
#1026 = CARTESIAN_POINT('',(90.810297192312,0.,306.23306027503));
#1027 = CARTESIAN_POINT('',(86.403402494912,0.,313.33367239846));
#1028 = CARTESIAN_POINT('',(81.820880405239,0.,320.10381744348));
#1029 = CARTESIAN_POINT('',(77.074637905338,0.,326.52478462547));
#1030 = CARTESIAN_POINT('',(72.176607178901,0.,332.57889030793));
#1031 = CARTESIAN_POINT('',(67.138740680873,0.,338.24954498962));
#1032 = CARTESIAN_POINT('',(61.972962889136,0.,343.52131993606));
#1033 = CARTESIAN_POINT('',(56.691253282246,0.,348.3800121926));
#1034 = CARTESIAN_POINT('',(51.305225134472,0.,352.81270567737));
#1035 = CARTESIAN_POINT('',(45.827463208066,0.,356.80782470576));
#1036 = CARTESIAN_POINT('',(40.266518214148,0.,360.35517481673));
#1037 = CARTESIAN_POINT('',(34.644563149139,0.,363.44596457522));
#1038 = CARTESIAN_POINT('',(28.933724835787,0.,366.07280181474));
#1039 = CARTESIAN_POINT('',(23.28493917662,0.,368.22965942323));
#1040 = CARTESIAN_POINT('',(17.200538667327,0.,369.91180988329));
#1041 = CARTESIAN_POINT('',(12.540166226107,0.,371.11573327254));
#1042 = CARTESIAN_POINT('',(2.531906266563,0.,371.83902281315));
#1043 = CARTESIAN_POINT('',(9.003055454651,0.,372.));
#1044 = CARTESIAN_POINT('',(0.,0.,372.));
#1045 = AXIS1_PLACEMENT('',#1046,#1047);
#1046 = CARTESIAN_POINT('',(0.,0.,14.));
#1047 = DIRECTION('',(0.,0.,1.));
#1048 = DEFINITIONAL_REPRESENTATION('',(#1049),#1108);
#1049 = B_SPLINE_CURVE_WITH_KNOTS('',8,(#1050,#1051,#1052,#1053,#1054,
    #1055,#1056,#1057,#1058,#1059,#1060,#1061,#1062,#1063,#1064,#1065,
    #1066,#1067,#1068,#1069,#1070,#1071,#1072,#1073,#1074,#1075,#1076,
    #1077,#1078,#1079,#1080,#1081,#1082,#1083,#1084,#1085,#1086,#1087,
    #1088,#1089,#1090,#1091,#1092,#1093,#1094,#1095,#1096,#1097,#1098,
    #1099,#1100,#1101,#1102,#1103,#1104,#1105,#1106,#1107),
  .UNSPECIFIED.,.F.,.F.,(9,7,7,7,7,7,7,7,9),(0.,0.124999999997,
    0.249999999997,0.375000000001,0.500000000003,0.625000000005,
    0.750000000004,0.875000000002,1.),.UNSPECIFIED.);
#1050 = CARTESIAN_POINT('',(6.28318530718,396.30063098733));
#1051 = CARTESIAN_POINT('',(6.185035595977,396.30063098733));
#1052 = CARTESIAN_POINT('',(6.086819201767,396.30063098733));
#1053 = CARTESIAN_POINT('',(5.988639307416,396.30063098733));
#1054 = CARTESIAN_POINT('',(5.890486225491,396.30063098733));
#1055 = CARTESIAN_POINT('',(5.79233314353,396.30063098733));
#1056 = CARTESIAN_POINT('',(5.694153249201,396.30063098733));
#1057 = CARTESIAN_POINT('',(5.595936854984,396.30063098733));
#1058 = CARTESIAN_POINT('',(5.399637432578,396.30063098733));
#1059 = CARTESIAN_POINT('',(5.301421038378,396.30063098733));
#1060 = CARTESIAN_POINT('',(5.203241144,396.30063098733));
#1061 = CARTESIAN_POINT('',(5.105088062119,396.30063098733));
#1062 = CARTESIAN_POINT('',(5.006934980112,396.30063098733));
#1063 = CARTESIAN_POINT('',(4.908755085814,396.30063098733));
#1064 = CARTESIAN_POINT('',(4.810538691584,396.30063098733));
#1065 = CARTESIAN_POINT('',(4.614239269184,396.30063098733));
#1066 = CARTESIAN_POINT('',(4.516022874965,396.30063098733));
#1067 = CARTESIAN_POINT('',(4.417842980637,396.30063098733));
#1068 = CARTESIAN_POINT('',(4.319689898678,396.30063098733));
#1069 = CARTESIAN_POINT('',(4.221536816749,396.30063098733));
#1070 = CARTESIAN_POINT('',(4.123356922401,396.30063098733));
#1071 = CARTESIAN_POINT('',(4.02514052819,396.30063098733));
#1072 = CARTESIAN_POINT('',(3.828841105785,396.30063098733));
#1073 = CARTESIAN_POINT('',(3.730624711571,396.30063098733));
#1074 = CARTESIAN_POINT('',(3.632444817233,396.30063098733));
#1075 = CARTESIAN_POINT('',(3.534291735288,396.30063098733));
#1076 = CARTESIAN_POINT('',(3.436138653346,396.30063098733));
#1077 = CARTESIAN_POINT('',(3.337958759006,396.30063098733));
#1078 = CARTESIAN_POINT('',(3.239742364792,396.30063098733));
#1079 = CARTESIAN_POINT('',(3.043442942389,396.30063098733));
#1080 = CARTESIAN_POINT('',(2.945226548169,396.30063098733));
#1081 = CARTESIAN_POINT('',(2.847046653844,396.30063098733));
#1082 = CARTESIAN_POINT('',(2.74889357188,396.30063098733));
#1083 = CARTESIAN_POINT('',(2.650740489955,396.30063098733));
#1084 = CARTESIAN_POINT('',(2.552560595606,396.30063098733));
#1085 = CARTESIAN_POINT('',(2.454344201395,396.30063098733));
#1086 = CARTESIAN_POINT('',(2.258044778991,396.30063098733));
#1087 = CARTESIAN_POINT('',(2.159828384772,396.30063098733));
#1088 = CARTESIAN_POINT('',(2.061648490445,396.30063098733));
#1089 = CARTESIAN_POINT('',(1.963495408484,396.30063098733));
#1090 = CARTESIAN_POINT('',(1.865342326557,396.30063098733));
#1091 = CARTESIAN_POINT('',(1.767162432208,396.30063098733));
#1092 = CARTESIAN_POINT('',(1.668946037998,396.30063098733));
#1093 = CARTESIAN_POINT('',(1.472646615593,396.30063098733));
#1094 = CARTESIAN_POINT('',(1.374430221377,396.30063098733));
#1095 = CARTESIAN_POINT('',(1.276250327043,396.30063098733));
#1096 = CARTESIAN_POINT('',(1.178097245092,396.30063098733));
#1097 = CARTESIAN_POINT('',(1.079944163156,396.30063098733));
#1098 = CARTESIAN_POINT('',(0.981764268813,396.30063098733));
#1099 = CARTESIAN_POINT('',(0.8835478746,396.30063098733));
#1100 = CARTESIAN_POINT('',(0.687248452196,396.30063098733));
#1101 = CARTESIAN_POINT('',(0.589032057981,396.30063098733));
#1102 = CARTESIAN_POINT('',(0.490852163644,396.30063098733));
#1103 = CARTESIAN_POINT('',(0.392699081698,396.30063098733));
#1104 = CARTESIAN_POINT('',(0.294545999755,396.30063098733));
#1105 = CARTESIAN_POINT('',(0.196366105417,396.30063098733));
#1106 = CARTESIAN_POINT('',(9.814971120189E-02,396.30063098733));
#1107 = CARTESIAN_POINT('',(0.,396.30063098733));
#1108 = ( GEOMETRIC_REPRESENTATION_CONTEXT(2) 
PARAMETRIC_REPRESENTATION_CONTEXT() REPRESENTATION_CONTEXT('2D SPACE',''
  ) );
#1109 = PCURVE('',#1110,#1115);
#1110 = PLANE('',#1111);
#1111 = AXIS2_PLACEMENT_3D('',#1112,#1113,#1114);
#1112 = CARTESIAN_POINT('',(-1.40025869572E-14,2.567913688298E-14,330.)
  );
#1113 = DIRECTION('',(0.,0.,1.));
#1114 = DIRECTION('',(1.,0.,-0.));
#1115 = DEFINITIONAL_REPRESENTATION('',(#1116),#1175);
#1116 = B_SPLINE_CURVE_WITH_KNOTS('',8,(#1117,#1118,#1119,#1120,#1121,
    #1122,#1123,#1124,#1125,#1126,#1127,#1128,#1129,#1130,#1131,#1132,
    #1133,#1134,#1135,#1136,#1137,#1138,#1139,#1140,#1141,#1142,#1143,
    #1144,#1145,#1146,#1147,#1148,#1149,#1150,#1151,#1152,#1153,#1154,
    #1155,#1156,#1157,#1158,#1159,#1160,#1161,#1162,#1163,#1164,#1165,
    #1166,#1167,#1168,#1169,#1170,#1171,#1172,#1173,#1174),
  .UNSPECIFIED.,.F.,.F.,(9,7,7,7,7,7,7,7,9),(0.,0.124999999997,
    0.249999999997,0.375000000001,0.500000000003,0.625000000005,
    0.750000000004,0.875000000002,1.),.UNSPECIFIED.);
#1117 = CARTESIAN_POINT('',(74.242965020179,-4.263256414561E-14));
#1118 = CARTESIAN_POINT('',(74.242965284642,-7.286923951391));
#1119 = CARTESIAN_POINT('',(73.425580835489,-14.5788120756));
#1120 = CARTESIAN_POINT('',(71.788879381081,-21.76096634787));
#1121 = CARTESIAN_POINT('',(69.352495852386,-28.72674436649));
#1122 = CARTESIAN_POINT('',(66.149730293951,-35.37507655436));
#1123 = CARTESIAN_POINT('',(62.228503001601,-41.61094924104));
#1124 = CARTESIAN_POINT('',(57.650337548205,-47.34507086813));
#1125 = CARTESIAN_POINT('',(47.345070868186,-57.6503375482));
#1126 = CARTESIAN_POINT('',(41.610949240859,-62.22850300156));
#1127 = CARTESIAN_POINT('',(35.37507655481,-66.14973029404));
#1128 = CARTESIAN_POINT('',(28.72674436588,-69.35249585224));
#1129 = CARTESIAN_POINT('',(21.760966348441,-71.78887938119));
#1130 = CARTESIAN_POINT('',(14.578812075326,-73.42558083542));
#1131 = CARTESIAN_POINT('',(7.28692395147,-74.24296528465));
#1132 = CARTESIAN_POINT('',(-7.286923951398,-74.24296528466));
#1133 = CARTESIAN_POINT('',(-14.57881207556,-73.42558083538));
#1134 = CARTESIAN_POINT('',(-21.7609663479,-71.78887938131));
#1135 = CARTESIAN_POINT('',(-28.7267443665,-69.35249585209));
#1136 = CARTESIAN_POINT('',(-35.3750765543,-66.14973029418));
#1137 = CARTESIAN_POINT('',(-41.61094924106,-62.2285030015));
#1138 = CARTESIAN_POINT('',(-47.34507086812,-57.65033754823));
#1139 = CARTESIAN_POINT('',(-57.65033754822,-47.34507086812));
#1140 = CARTESIAN_POINT('',(-62.22850300145,-41.61094924117));
#1141 = CARTESIAN_POINT('',(-66.14973029423,-35.37507655415));
#1142 = CARTESIAN_POINT('',(-69.35249585201,-28.72674436673));
#1143 = CARTESIAN_POINT('',(-71.78887938135,-21.76096634777));
#1144 = CARTESIAN_POINT('',(-73.42558083536,-14.57881207563));
#1145 = CARTESIAN_POINT('',(-74.24296528466,-7.286923951404));
#1146 = CARTESIAN_POINT('',(-74.24296528467,7.286923951406));
#1147 = CARTESIAN_POINT('',(-73.42558083536,14.578812075521));
#1148 = CARTESIAN_POINT('',(-71.78887938136,21.760966347976));
#1149 = CARTESIAN_POINT('',(-69.35249585203,28.726744366428));
#1150 = CARTESIAN_POINT('',(-66.14973029423,35.37507655437));
#1151 = CARTESIAN_POINT('',(-62.22850300148,41.610949241034));
#1152 = CARTESIAN_POINT('',(-57.65033754823,47.345070868137));
#1153 = CARTESIAN_POINT('',(-47.34507086816,57.650337548215));
#1154 = CARTESIAN_POINT('',(-41.61094924096,62.228503001507));
#1155 = CARTESIAN_POINT('',(-35.37507655459,66.149730294136));
#1156 = CARTESIAN_POINT('',(-28.72674436619,69.352495852144));
#1157 = CARTESIAN_POINT('',(-21.76096634818,71.78887938126));
#1158 = CARTESIAN_POINT('',(-14.57881207545,73.425580835405));
#1159 = CARTESIAN_POINT('',(-7.286923951443,74.242965284659));
#1160 = CARTESIAN_POINT('',(7.286923951448,74.242965284733));
#1161 = CARTESIAN_POINT('',(14.57881207536,73.425580835083));
#1162 = CARTESIAN_POINT('',(21.760966348293,71.788879381974));
#1163 = CARTESIAN_POINT('',(28.726744366059,69.352495851239));
#1164 = CARTESIAN_POINT('',(35.375076554637,66.149730294863));
#1165 = CARTESIAN_POINT('',(41.610949240924,62.228503001186));
#1166 = CARTESIAN_POINT('',(47.345070868159,57.6503375483));
#1167 = CARTESIAN_POINT('',(57.650337548258,47.345070868142));
#1168 = CARTESIAN_POINT('',(62.228503001342,41.610949241061));
#1169 = CARTESIAN_POINT('',(66.149730294467,35.375076554385));
#1170 = CARTESIAN_POINT('',(69.352495851758,28.726744366425));
#1171 = CARTESIAN_POINT('',(71.788879381546,21.760966347997));
#1172 = CARTESIAN_POINT('',(73.425580835283,14.578812075533));
#1173 = CARTESIAN_POINT('',(74.242965284686,7.286923951416));
#1174 = CARTESIAN_POINT('',(74.242965020179,-2.84217094304E-14));
#1175 = ( GEOMETRIC_REPRESENTATION_CONTEXT(2) 
PARAMETRIC_REPRESENTATION_CONTEXT() REPRESENTATION_CONTEXT('2D SPACE',''
  ) );
#1176 = ORIENTED_EDGE('',*,*,#1177,.T.);
#1177 = EDGE_CURVE('',#917,#1178,#1180,.T.);
#1178 = VERTEX_POINT('',#1179);
#1179 = CARTESIAN_POINT('',(0.,0.,372.));
#1180 = SEAM_CURVE('',#1181,(#1245,#1252),.PCURVE_S1.);
#1181 = B_SPLINE_CURVE_WITH_KNOTS('',3,(#1182,#1183,#1184,#1185,#1186,
    #1187,#1188,#1189,#1190,#1191,#1192,#1193,#1194,#1195,#1196,#1197,
    #1198,#1199,#1200,#1201,#1202,#1203,#1204,#1205,#1206,#1207,#1208,
    #1209,#1210,#1211,#1212,#1213,#1214,#1215,#1216,#1217,#1218,#1219,
    #1220,#1221,#1222,#1223,#1224,#1225,#1226,#1227,#1228,#1229,#1230,
    #1231,#1232,#1233,#1234,#1235,#1236,#1237,#1238,#1239,#1240,#1241,
    #1242,#1243,#1244),.UNSPECIFIED.,.F.,.F.,(4,1,1,1,1,1,1,1,1,1,1,1,1,
    1,1,1,1,1,1,1,1,1,1,1,1,1,1,1,1,1,1,1,1,1,1,1,1,1,1,1,1,1,1,1,1,1,1,
    1,1,1,1,1,1,1,1,1,1,1,1,1,4),(0.,7.778004655746,15.552735403833,
    23.321464358112,31.08221388224,38.834223805418,46.578234189783,
    54.316700238988,62.053909959299,69.795993480131,77.550819698316,
    85.327783344919,93.137493572513,100.9913828387,108.90126111474,
    116.87884425371,124.93528606687,133.08074121542,141.32398097223,
    149.67207723224,158.13016300233,166.70127101004,175.38624674547,
    184.18372851928,193.09018497385,202.09999969109,211.20559275989,
    220.39757004862,229.66489217153,238.99505651372,248.37428703261,
    257.78772779387,267.21963728301,276.65358144759,286.07262417964,
    295.45951455971,304.79687067782,314.0673602444,323.25387852874,
    332.33972443071,341.30877571818,350.14566465754,358.83595543,
    367.36632485916,375.72474806006,383.90069062709,391.88530885855,
    399.6716591898,407.25491735864,414.63260669231,421.80483306924,
    428.7745213176,435.54764381726,442.13342673081,448.54451275831,
    454.79705230932,460.9106890908,466.9084038256,472.81618368701,
    478.66248126429,484.47764768179),.UNSPECIFIED.);
#1182 = CARTESIAN_POINT('',(0.,0.,16.));
#1183 = CARTESIAN_POINT('',(2.596513294424,0.,16.));
#1184 = CARTESIAN_POINT('',(7.776589252507,0.,16.161854619812));
#1185 = CARTESIAN_POINT('',(15.523383547295,0.,16.889579158962));
#1186 = CARTESIAN_POINT('',(23.201174278671,0.,18.100221775361));
#1187 = CARTESIAN_POINT('',(30.780811782348,0.,19.790457328179));
#1188 = CARTESIAN_POINT('',(38.229982708459,0.,21.955654671576));
#1189 = CARTESIAN_POINT('',(45.518717868764,0.,24.589908786431));
#1190 = CARTESIAN_POINT('',(52.618244294908,0.,27.686072329446));
#1191 = CARTESIAN_POINT('',(59.501569064409,0.,31.235790770436));
#1192 = CARTESIAN_POINT('',(66.14355157255,0.,35.229538197011));
#1193 = CARTESIAN_POINT('',(72.521060688278,0.,39.656651526122));
#1194 = CARTESIAN_POINT('',(78.613057492175,0.,44.505361299768));
#1195 = CARTESIAN_POINT('',(84.400649034532,0.,49.762817993985));
#1196 = CARTESIAN_POINT('',(89.867105648686,0.,55.415113761845));
#1197 = CARTESIAN_POINT('',(94.997849778913,0.,61.447300588918));
#1198 = CARTESIAN_POINT('',(99.780420624241,0.,67.84340675564));
#1199 = CARTESIAN_POINT('',(104.2044196633,0.,74.586454092778));
#1200 = CARTESIAN_POINT('',(108.26144117719,0.,81.658478676626));
#1201 = CARTESIAN_POINT('',(111.94499112677,0.,89.040557331833));
#1202 = CARTESIAN_POINT('',(115.2503969113,0.,96.712841679826));
#1203 = CARTESIAN_POINT('',(118.17470990705,0.,104.65460064306));
#1204 = CARTESIAN_POINT('',(120.7166022938,0.,112.84427146458));
#1205 = CARTESIAN_POINT('',(122.87625952095,0.,121.25951857867));
#1206 = CARTESIAN_POINT('',(124.65526977443,0.,129.87729916603));
#1207 = CARTESIAN_POINT('',(126.05651188823,0.,138.67393397293));
#1208 = CARTESIAN_POINT('',(127.08404321848,0.,147.62518194109));
#1209 = CARTESIAN_POINT('',(127.7429890085,0.,156.70631732225));
#1210 = CARTESIAN_POINT('',(128.03943469811,0.,165.89220817012));
#1211 = CARTESIAN_POINT('',(127.98032247568,0.,175.15739535152));
#1212 = CARTESIAN_POINT('',(127.57335315822,0.,184.47617145547));
#1213 = CARTESIAN_POINT('',(126.82689424075,0.,193.8226591794));
#1214 = CARTESIAN_POINT('',(125.74989470629,0.,203.17088892643));
#1215 = CARTESIAN_POINT('',(124.35180695345,0.,212.49487545856));
#1216 = CARTESIAN_POINT('',(122.64251598987,0.,221.76869352373));
#1217 = CARTESIAN_POINT('',(120.63227586601,0.,230.96655242028));
#1218 = CARTESIAN_POINT('',(118.33165318392,0.,240.06286948893));
#1219 = CARTESIAN_POINT('',(115.75147740872,0.,249.03234253821));
#1220 = CARTESIAN_POINT('',(112.90279763128,0.,257.85002122077));
#1221 = CARTESIAN_POINT('',(109.79684537314,0.,266.49137739053));
#1222 = CARTESIAN_POINT('',(106.44500298162,0.,274.93237448751));
#1223 = CARTESIAN_POINT('',(102.8587771274,0.,283.14953602077));
#1224 = CARTESIAN_POINT('',(99.049776876069,0.,291.12001325149));
#1225 = CARTESIAN_POINT('',(95.029695762246,0.,298.82165221651));
#1226 = CARTESIAN_POINT('',(90.810297192312,0.,306.23306027503));
#1227 = CARTESIAN_POINT('',(86.403402494912,0.,313.33367239846));
#1228 = CARTESIAN_POINT('',(81.820880405239,0.,320.10381744348));
#1229 = CARTESIAN_POINT('',(77.074637905338,0.,326.52478462547));
#1230 = CARTESIAN_POINT('',(72.176607178901,0.,332.57889030793));
#1231 = CARTESIAN_POINT('',(67.138740680873,0.,338.24954498962));
#1232 = CARTESIAN_POINT('',(61.972962889136,0.,343.52131993606));
#1233 = CARTESIAN_POINT('',(56.691253282246,0.,348.3800121926));
#1234 = CARTESIAN_POINT('',(51.305225134472,0.,352.81270567737));
#1235 = CARTESIAN_POINT('',(45.827463208066,0.,356.80782470576));
#1236 = CARTESIAN_POINT('',(40.266518214148,0.,360.35517481673));
#1237 = CARTESIAN_POINT('',(34.644563149139,0.,363.44596457522));
#1238 = CARTESIAN_POINT('',(28.933724835787,0.,366.07280181474));
#1239 = CARTESIAN_POINT('',(23.28493917662,0.,368.22965942323));
#1240 = CARTESIAN_POINT('',(17.200538667327,0.,369.91180988329));
#1241 = CARTESIAN_POINT('',(12.540166226107,0.,371.11573327254));
#1242 = CARTESIAN_POINT('',(2.531906266563,0.,371.83902281315));
#1243 = CARTESIAN_POINT('',(9.003055454651,0.,372.));
#1244 = CARTESIAN_POINT('',(0.,0.,372.));
#1245 = PCURVE('',#980,#1246);
#1246 = DEFINITIONAL_REPRESENTATION('',(#1247),#1251);
#1247 = LINE('',#1248,#1249);
#1248 = CARTESIAN_POINT('',(0.,0.));
#1249 = VECTOR('',#1250,1.);
#1250 = DIRECTION('',(0.,1.));
#1251 = ( GEOMETRIC_REPRESENTATION_CONTEXT(2) 
PARAMETRIC_REPRESENTATION_CONTEXT() REPRESENTATION_CONTEXT('2D SPACE',''
  ) );
#1252 = PCURVE('',#980,#1253);
#1253 = DEFINITIONAL_REPRESENTATION('',(#1254),#1258);
#1254 = LINE('',#1255,#1256);
#1255 = CARTESIAN_POINT('',(6.28318530718,0.));
#1256 = VECTOR('',#1257,1.);
#1257 = DIRECTION('',(0.,1.));
#1258 = ( GEOMETRIC_REPRESENTATION_CONTEXT(2) 
PARAMETRIC_REPRESENTATION_CONTEXT() REPRESENTATION_CONTEXT('2D SPACE',''
  ) );
#1259 = ORIENTED_EDGE('',*,*,#1177,.F.);
#1260 = ADVANCED_FACE('',(#1261),#1110,.F.);
#1261 = FACE_BOUND('',#1262,.F.);
#1262 = EDGE_LOOP('',(#1263));
#1263 = ORIENTED_EDGE('',*,*,#916,.F.);
#1264 = ( GEOMETRIC_REPRESENTATION_CONTEXT(3) 
GLOBAL_UNCERTAINTY_ASSIGNED_CONTEXT((#1268)) 
GLOBAL_UNIT_ASSIGNED_CONTEXT((#1265,#1266,#1267)) REPRESENTATION_CONTEXT
('Context #1','3D Context with UNIT and UNCERTAINTY') );
#1265 = ( LENGTH_UNIT() NAMED_UNIT(*) SI_UNIT(.MILLI.,.METRE.) );
#1266 = ( NAMED_UNIT(*) PLANE_ANGLE_UNIT() SI_UNIT($,.RADIAN.) );
#1267 = ( NAMED_UNIT(*) SI_UNIT($,.STERADIAN.) SOLID_ANGLE_UNIT() );
#1268 = UNCERTAINTY_MEASURE_WITH_UNIT(LENGTH_MEASURE(2.E-06),#1265,
  'distance_accuracy_value','confusion accuracy');
#1269 = PRODUCT_RELATED_PRODUCT_CATEGORY('part',$,(#7));
ENDSEC;
END-ISO-10303-21;
