ISO-10303-21;
HEADER;
FILE_DESCRIPTION(('Open CASCADE Model'),'2;1');
FILE_NAME('Open CASCADE Shape Model','2026-10-08T17:46:09',('Author'),(
    'Open CASCADE'),'Open CASCADE STEP processor 7.9','Open CASCADE 7.9'
  ,'Unknown');
FILE_SCHEMA(('AUTOMOTIVE_DESIGN { 1 0 10303 214 1 1 1 1 }'));
ENDSEC;
DATA;
#1 = APPLICATION_PROTOCOL_DEFINITION('international standard',
  'automotive_design',2000,#2);
#2 = APPLICATION_CONTEXT(
  'core data for automotive mechanical design processes');
#3 = SHAPE_DEFINITION_REPRESENTATION(#4,#10);
#4 = PRODUCT_DEFINITION_SHAPE('','',#5);
#5 = PRODUCT_DEFINITION('design','',#6,#9);
#6 = PRODUCT_DEFINITION_FORMATION('','',#7);
#7 = PRODUCT('Open CASCADE STEP translator 7.9 4',
  'Open CASCADE STEP translator 7.9 4','',(#8));
#8 = PRODUCT_CONTEXT('',#2,'mechanical');
#9 = PRODUCT_DEFINITION_CONTEXT('part definition',#2,'design');
#10 = ADVANCED_BREP_SHAPE_REPRESENTATION('',(#11,#15),#1131);
#11 = AXIS2_PLACEMENT_3D('',#12,#13,#14);
#12 = CARTESIAN_POINT('',(0.,0.,0.));
#13 = DIRECTION('',(0.,0.,1.));
#14 = DIRECTION('',(1.,0.,-0.));
#15 = MANIFOLD_SOLID_BREP('',#16);
#16 = CLOSED_SHELL('',(#17,#108,#610,#1104));
#17 = ADVANCED_FACE('',(#18),#32,.F.);
#18 = FACE_BOUND('',#19,.F.);
#19 = EDGE_LOOP('',(#20,#53,#80,#81));
#20 = ORIENTED_EDGE('',*,*,#21,.T.);
#21 = EDGE_CURVE('',#22,#24,#26,.T.);
#22 = VERTEX_POINT('',#23);
#23 = CARTESIAN_POINT('',(371.,84.813589648853,0.));
#24 = VERTEX_POINT('',#25);
#25 = CARTESIAN_POINT('',(373.,84.813589648853,0.));
#26 = SEAM_CURVE('',#27,(#31,#46),.PCURVE_S1.);
#27 = LINE('',#28,#29);
#28 = CARTESIAN_POINT('',(371.,84.813589648853,0.));
#29 = VECTOR('',#30,1.);
#30 = DIRECTION('',(1.,0.,0.));
#31 = PCURVE('',#32,#40);
#32 = SURFACE_OF_LINEAR_EXTRUSION('',#33,#38);
#33 = ELLIPSE('',#34,84.813589648853,57.51324096122);
#34 = AXIS2_PLACEMENT_3D('',#35,#36,#37);
#35 = CARTESIAN_POINT('',(371.,0.,0.));
#36 = DIRECTION('',(1.,0.,0.));
#37 = DIRECTION('',(0.,1.,0.));
#38 = VECTOR('',#39,1.);
#39 = DIRECTION('',(-1.,-0.,-0.));
#40 = DEFINITIONAL_REPRESENTATION('',(#41),#45);
#41 = LINE('',#42,#43);
#42 = CARTESIAN_POINT('',(0.,0.));
#43 = VECTOR('',#44,1.);
#44 = DIRECTION('',(0.,-1.));
#45 = ( GEOMETRIC_REPRESENTATION_CONTEXT(2) 
PARAMETRIC_REPRESENTATION_CONTEXT() REPRESENTATION_CONTEXT('2D SPACE',''
  ) );
#46 = PCURVE('',#32,#47);
#47 = DEFINITIONAL_REPRESENTATION('',(#48),#52);
#48 = LINE('',#49,#50);
#49 = CARTESIAN_POINT('',(6.28318530718,0.));
#50 = VECTOR('',#51,1.);
#51 = DIRECTION('',(0.,-1.));
#52 = ( GEOMETRIC_REPRESENTATION_CONTEXT(2) 
PARAMETRIC_REPRESENTATION_CONTEXT() REPRESENTATION_CONTEXT('2D SPACE',''
  ) );
#53 = ORIENTED_EDGE('',*,*,#54,.T.);
#54 = EDGE_CURVE('',#24,#24,#55,.T.);
#55 = SURFACE_CURVE('',#56,(#61,#68),.PCURVE_S1.);
#56 = ELLIPSE('',#57,84.813589648853,57.51324096122);
#57 = AXIS2_PLACEMENT_3D('',#58,#59,#60);
#58 = CARTESIAN_POINT('',(373.,0.,0.));
#59 = DIRECTION('',(1.,0.,0.));
#60 = DIRECTION('',(0.,1.,0.));
#61 = PCURVE('',#32,#62);
#62 = DEFINITIONAL_REPRESENTATION('',(#63),#67);
#63 = LINE('',#64,#65);
#64 = CARTESIAN_POINT('',(0.,-2.));
#65 = VECTOR('',#66,1.);
#66 = DIRECTION('',(1.,0.));
#67 = ( GEOMETRIC_REPRESENTATION_CONTEXT(2) 
PARAMETRIC_REPRESENTATION_CONTEXT() REPRESENTATION_CONTEXT('2D SPACE',''
  ) );
#68 = PCURVE('',#69,#74);
#69 = PLANE('',#70);
#70 = AXIS2_PLACEMENT_3D('',#71,#72,#73);
#71 = CARTESIAN_POINT('',(373.,4.208947163233,2.297651425338E-15));
#72 = DIRECTION('',(1.,0.,0.));
#73 = DIRECTION('',(-0.,0.,1.));
#74 = DEFINITIONAL_REPRESENTATION('',(#75),#79);
#75 = ELLIPSE('',#76,84.813589648853,57.51324096122);
#76 = AXIS2_PLACEMENT_2D('',#77,#78);
#77 = CARTESIAN_POINT('',(-2.297651425338E-15,4.208947163233));
#78 = DIRECTION('',(0.,-1.));
#79 = ( GEOMETRIC_REPRESENTATION_CONTEXT(2) 
PARAMETRIC_REPRESENTATION_CONTEXT() REPRESENTATION_CONTEXT('2D SPACE',''
  ) );
#80 = ORIENTED_EDGE('',*,*,#21,.F.);
#81 = ORIENTED_EDGE('',*,*,#82,.F.);
#82 = EDGE_CURVE('',#22,#22,#83,.T.);
#83 = SURFACE_CURVE('',#84,(#89,#96),.PCURVE_S1.);
#84 = ELLIPSE('',#85,84.813589648853,57.51324096122);
#85 = AXIS2_PLACEMENT_3D('',#86,#87,#88);
#86 = CARTESIAN_POINT('',(371.,0.,0.));
#87 = DIRECTION('',(1.,0.,0.));
#88 = DIRECTION('',(0.,1.,0.));
#89 = PCURVE('',#32,#90);
#90 = DEFINITIONAL_REPRESENTATION('',(#91),#95);
#91 = LINE('',#92,#93);
#92 = CARTESIAN_POINT('',(0.,0.));
#93 = VECTOR('',#94,1.);
#94 = DIRECTION('',(1.,0.));
#95 = ( GEOMETRIC_REPRESENTATION_CONTEXT(2) 
PARAMETRIC_REPRESENTATION_CONTEXT() REPRESENTATION_CONTEXT('2D SPACE',''
  ) );
#96 = PCURVE('',#97,#102);
#97 = PLANE('',#98);
#98 = AXIS2_PLACEMENT_3D('',#99,#100,#101);
#99 = CARTESIAN_POINT('',(371.,4.208947163233,2.297651425338E-15));
#100 = DIRECTION('',(1.,0.,0.));
#101 = DIRECTION('',(-0.,0.,1.));
#102 = DEFINITIONAL_REPRESENTATION('',(#103),#107);
#103 = ELLIPSE('',#104,84.813589648853,57.51324096122);
#104 = AXIS2_PLACEMENT_2D('',#105,#106);
#105 = CARTESIAN_POINT('',(-2.297651425338E-15,4.208947163233));
#106 = DIRECTION('',(0.,-1.));
#107 = ( GEOMETRIC_REPRESENTATION_CONTEXT(2) 
PARAMETRIC_REPRESENTATION_CONTEXT() REPRESENTATION_CONTEXT('2D SPACE',''
  ) );
#108 = ADVANCED_FACE('',(#109,#112),#97,.F.);
#109 = FACE_BOUND('',#110,.F.);
#110 = EDGE_LOOP('',(#111));
#111 = ORIENTED_EDGE('',*,*,#82,.T.);
#112 = FACE_BOUND('',#113,.F.);
#113 = EDGE_LOOP('',(#114));
#114 = ORIENTED_EDGE('',*,*,#115,.T.);
#115 = EDGE_CURVE('',#116,#116,#118,.T.);
#116 = VERTEX_POINT('',#117);
#117 = CARTESIAN_POINT('',(371.,82.313589648853,0.));
#118 = SURFACE_CURVE('',#119,(#278,#440),.PCURVE_S1.);
#119 = B_SPLINE_CURVE_WITH_KNOTS('',7,(#120,#121,#122,#123,#124,#125,
    #126,#127,#128,#129,#130,#131,#132,#133,#134,#135,#136,#137,#138,
    #139,#140,#141,#142,#143,#144,#145,#146,#147,#148,#149,#150,#151,
    #152,#153,#154,#155,#156,#157,#158,#159,#160,#161,#162,#163,#164,
    #165,#166,#167,#168,#169,#170,#171,#172,#173,#174,#175,#176,#177,
    #178,#179,#180,#181,#182,#183,#184,#185,#186,#187,#188,#189,#190,
    #191,#192,#193,#194,#195,#196,#197,#198,#199,#200,#201,#202,#203,
    #204,#205,#206,#207,#208,#209,#210,#211,#212,#213,#214,#215,#216,
    #217,#218,#219,#220,#221,#222,#223,#224,#225,#226,#227,#228,#229,
    #230,#231,#232,#233,#234,#235,#236,#237,#238,#239,#240,#241,#242,
    #243,#244,#245,#246,#247,#248,#249,#250,#251,#252,#253,#254,#255,
    #256,#257,#258,#259,#260,#261,#262,#263,#264,#265,#266,#267,#268,
    #269,#270,#271,#272,#273,#274,#275,#276,#277),.UNSPECIFIED.,.T.,.F.,
  (8,6,6,6,6,6,6,6,6,6,6,6,6,6,6,6,6,6,6,6,6,6,6,6,6,6,8),(0.,
    4.380881447699E-02,7.284169016043E-02,0.112473014719,0.146192462348,
    0.173999981556,0.24999632001,0.325992658464,0.353800177671,
    0.387519625301,0.42715094986,0.456183825544,0.480066702972,
    0.500001026371,0.528856914825,0.54381703154,0.572849852676,
    0.612481102775,0.646200487052,0.674007954015,0.750004149685,
    0.826000345357,0.853807812319,0.887527196597,0.927158446696,
    0.956191267832,1.),.UNSPECIFIED.);
#120 = CARTESIAN_POINT('',(371.,82.313589648853,-1.191320328986E-14));
#121 = CARTESIAN_POINT('',(371.,82.313589809871,-2.72655977396));
#122 = CARTESIAN_POINT('',(371.,82.077696369023,-5.45524012769));
#123 = CARTESIAN_POINT('',(371.,81.605254677202,-8.157368081091));
#124 = CARTESIAN_POINT('',(371.,80.906212473624,-10.81004676489));
#125 = CARTESIAN_POINT('',(371.,79.996186650727,-13.39506033987));
#126 = CARTESIAN_POINT('',(371.,78.894230012257,-15.89833956441));
#127 = CARTESIAN_POINT('',(371.,76.77710195149,-19.90738827868));
#128 = CARTESIAN_POINT('',(371.,75.857738142186,-21.46535646694));
#129 = CARTESIAN_POINT('',(371.,74.868424401387,-22.98093752264));
#130 = CARTESIAN_POINT('',(371.,73.814741147861,-24.45253073548));
#131 = CARTESIAN_POINT('',(371.,72.702027844057,-25.87921425442));
#132 = CARTESIAN_POINT('',(371.,71.535202459725,-27.26061770917));
#133 = CARTESIAN_POINT('',(371.,68.657975808998,-30.42084243972));
#134 = CARTESIAN_POINT('',(371.,66.904926956291,-32.16033004698));
#135 = CARTESIAN_POINT('',(371.,65.07051744021,-33.81577060266));
#136 = CARTESIAN_POINT('',(371.,63.164612886591,-35.38828255));
#137 = CARTESIAN_POINT('',(371.,61.195824367956,-36.87951262463));
#138 = CARTESIAN_POINT('',(371.,59.17139818553,-38.29150146842));
#139 = CARTESIAN_POINT('',(371.,55.332216711571,-40.76241716334));
#140 = CARTESIAN_POINT('',(371.,53.531464846126,-41.84244168941));
#141 = CARTESIAN_POINT('',(371.,51.698547942171,-42.86794583434));
#142 = CARTESIAN_POINT('',(371.,49.836779593034,-43.84018772066));
#143 = CARTESIAN_POINT('',(371.,47.949094184563,-44.76037702587));
#144 = CARTESIAN_POINT('',(371.,46.038051237074,-45.62968255014));
#145 = CARTESIAN_POINT('',(371.,42.512373482755,-47.12506234527));
#146 = CARTESIAN_POINT('',(371.,40.904566603224,-47.76703865469));
#147 = CARTESIAN_POINT('',(371.,39.283658784576,-48.37575710753));
#148 = CARTESIAN_POINT('',(371.,37.650804364684,-48.95178037125));
#149 = CARTESIAN_POINT('',(371.,36.007061236668,-49.49562593658));
#150 = CARTESIAN_POINT('',(371.,34.353392564668,-50.00777083663));
#151 = CARTESIAN_POINT('',(371.,28.146538947503,-51.80288800857));
#152 = CARTESIAN_POINT('',(371.,23.535803784352,-52.88334467078));
#153 = CARTESIAN_POINT('',(371.,18.874939683494,-53.73955460341));
#154 = CARTESIAN_POINT('',(371.,14.178599295374,-54.3774812042));
#155 = CARTESIAN_POINT('',(371.,9.459889515478,-54.80127950396));
#156 = CARTESIAN_POINT('',(371.,4.73037086686,-55.01324057124));
#157 = CARTESIAN_POINT('',(371.,-4.730370866824,-55.01324057124));
#158 = CARTESIAN_POINT('',(371.,-9.45988951554,-54.80127950395));
#159 = CARTESIAN_POINT('',(371.,-14.17859929522,-54.37748120421));
#160 = CARTESIAN_POINT('',(371.,-18.87493968361,-53.7395546034));
#161 = CARTESIAN_POINT('',(371.,-23.53580378426,-52.88334467079));
#162 = CARTESIAN_POINT('',(371.,-28.1465389475,-51.80288800857));
#163 = CARTESIAN_POINT('',(371.,-34.35339256465,-50.00777083663));
#164 = CARTESIAN_POINT('',(371.,-36.00706123665,-49.49562593658));
#165 = CARTESIAN_POINT('',(371.,-37.65080436467,-48.95178037125));
#166 = CARTESIAN_POINT('',(371.,-39.28365878456,-48.37575710754));
#167 = CARTESIAN_POINT('',(371.,-40.90456660321,-47.7670386547));
#168 = CARTESIAN_POINT('',(371.,-42.51237348274,-47.12506234528));
#169 = CARTESIAN_POINT('',(371.,-46.03805123706,-45.62968255014));
#170 = CARTESIAN_POINT('',(371.,-47.94909418453,-44.76037702588));
#171 = CARTESIAN_POINT('',(371.,-49.83677959303,-43.84018772067));
#172 = CARTESIAN_POINT('',(371.,-51.69854794217,-42.86794583435));
#173 = CARTESIAN_POINT('',(371.,-53.53146484609,-41.84244168942));
#174 = CARTESIAN_POINT('',(371.,-55.33221671156,-40.76241716334));
#175 = CARTESIAN_POINT('',(371.,-59.17139818552,-38.29150146842));
#176 = CARTESIAN_POINT('',(371.,-61.19582436793,-36.87951262464));
#177 = CARTESIAN_POINT('',(371.,-63.16461288658,-35.38828255001));
#178 = CARTESIAN_POINT('',(371.,-65.0705174402,-33.81577060267));
#179 = CARTESIAN_POINT('',(371.,-66.90492695627,-32.16033004699));
#180 = CARTESIAN_POINT('',(371.,-68.65797580899,-30.42084243972));
#181 = CARTESIAN_POINT('',(371.,-71.53520245971,-27.26061770917));
#182 = CARTESIAN_POINT('',(371.,-72.70202784405,-25.87921425443));
#183 = CARTESIAN_POINT('',(371.,-73.81474114785,-24.45253073549));
#184 = CARTESIAN_POINT('',(371.,-74.86842440138,-22.98093752264));
#185 = CARTESIAN_POINT('',(371.,-75.85773814218,-21.46535646695));
#186 = CARTESIAN_POINT('',(371.,-76.77710195148,-19.90738827869));
#187 = CARTESIAN_POINT('',(371.,-78.31508660653,-16.99502005454));
#188 = CARTESIAN_POINT('',(371.,-78.95812785499,-15.65353226009));
#189 = CARTESIAN_POINT('',(371.,-79.54691044278,-14.28646492409));
#190 = CARTESIAN_POINT('',(371.,-80.07831953557,-12.89565587107));
#191 = CARTESIAN_POINT('',(371.,-80.5493788823,-11.48337363901));
#192 = CARTESIAN_POINT('',(371.,-80.95739947518,-10.05237304502));
#193 = CARTESIAN_POINT('',(371.,-81.58627583242,-7.398694816571));
#194 = CARTESIAN_POINT('',(371.,-81.82694224302,-6.180603103759));
#195 = CARTESIAN_POINT('',(371.,-82.02087436334,-4.953642490013));
#196 = CARTESIAN_POINT('',(371.,-82.16704726464,-3.719872104697));
#197 = CARTESIAN_POINT('',(371.,-82.26474385309,-2.481463311076));
#198 = CARTESIAN_POINT('',(371.,-82.31358999612,-1.240703519404));
#199 = CARTESIAN_POINT('',(371.,-82.31358979657,1.795977954033));
#200 = CARTESIAN_POINT('',(371.,-82.21123953774,3.592283267337));
#201 = CARTESIAN_POINT('',(371.,-82.00647492533,5.3813172719));
#202 = CARTESIAN_POINT('',(371.,-81.70101920771,7.156232465191));
#203 = CARTESIAN_POINT('',(371.,-81.29797671778,8.91086999796));
#204 = CARTESIAN_POINT('',(371.,-80.80153927616,10.639713809827));
#205 = CARTESIAN_POINT('',(371.,-79.91365412192,13.218253176203));
#206 = CARTESIAN_POINT('',(371.,-79.58674434023,14.090468486623));
#207 = CARTESIAN_POINT('',(371.,-79.23676070681,14.953876614701));
#208 = CARTESIAN_POINT('',(371.,-78.86442915598,15.807926330523));
#209 = CARTESIAN_POINT('',(371.,-78.4705030324,16.652140027507));
#210 = CARTESIAN_POINT('',(371.,-78.05574951056,17.486107846427));
#211 = CARTESIAN_POINT('',(371.,-76.77710195149,19.907388278678));
#212 = CARTESIAN_POINT('',(371.,-75.85773814219,21.465356466941));
#213 = CARTESIAN_POINT('',(371.,-74.86842440138,22.980937522635));
#214 = CARTESIAN_POINT('',(371.,-73.81474114786,24.452530735482));
#215 = CARTESIAN_POINT('',(371.,-72.70202784406,25.879214254421));
#216 = CARTESIAN_POINT('',(371.,-71.53520245972,27.260617709164));
#217 = CARTESIAN_POINT('',(371.,-68.65797580899,30.420842439715));
#218 = CARTESIAN_POINT('',(371.,-66.90492695631,32.160330046982));
#219 = CARTESIAN_POINT('',(371.,-65.0705174402,33.81577060266));
#220 = CARTESIAN_POINT('',(371.,-63.16461288658,35.388282550004));
#221 = CARTESIAN_POINT('',(371.,-61.19582436797,36.879512624633));
#222 = CARTESIAN_POINT('',(371.,-59.17139818552,38.291501468417));
#223 = CARTESIAN_POINT('',(371.,-55.33221671157,40.762417163339));
#224 = CARTESIAN_POINT('',(371.,-53.53146484613,41.842441689412));
#225 = CARTESIAN_POINT('',(371.,-51.69854794217,42.867945834344));
#226 = CARTESIAN_POINT('',(371.,-49.83677959303,43.840187720666));
#227 = CARTESIAN_POINT('',(371.,-47.94909418457,44.760377025871));
#228 = CARTESIAN_POINT('',(371.,-46.03805123707,45.62968255014));
#229 = CARTESIAN_POINT('',(371.,-42.51237348275,47.125062345274));
#230 = CARTESIAN_POINT('',(371.,-40.90456660322,47.767038654697));
#231 = CARTESIAN_POINT('',(371.,-39.28365878458,48.375757107533));
#232 = CARTESIAN_POINT('',(371.,-37.65080436468,48.951780371251));
#233 = CARTESIAN_POINT('',(371.,-36.00706123667,49.495625936579));
#234 = CARTESIAN_POINT('',(371.,-34.35339256467,50.007770836629));
#235 = CARTESIAN_POINT('',(371.,-28.14653894753,51.802888008575));
#236 = CARTESIAN_POINT('',(371.,-23.53580378425,52.883344670759));
#237 = CARTESIAN_POINT('',(371.,-18.87493968367,53.739554603465));
#238 = CARTESIAN_POINT('',(371.,-14.17859929521,54.377481204141));
#239 = CARTESIAN_POINT('',(371.,-9.459889515567,54.801279504));
#240 = CARTESIAN_POINT('',(371.,-4.730370866842,55.013240571234));
#241 = CARTESIAN_POINT('',(371.,4.730370866841,55.013240571251));
#242 = CARTESIAN_POINT('',(371.,9.459889515478,54.801279503943));
#243 = CARTESIAN_POINT('',(371.,14.178599295312,54.377481204239));
#244 = CARTESIAN_POINT('',(371.,18.874939683533,53.739554603383));
#245 = CARTESIAN_POINT('',(371.,23.535803784299,52.883344670806));
#246 = CARTESIAN_POINT('',(371.,28.1465389475,51.80288800857));
#247 = CARTESIAN_POINT('',(371.,34.353392564654,50.007770836635));
#248 = CARTESIAN_POINT('',(371.,36.007061236654,49.495625936585));
#249 = CARTESIAN_POINT('',(371.,37.650804364671,48.951780371257));
#250 = CARTESIAN_POINT('',(371.,39.283658784563,48.37575710754));
#251 = CARTESIAN_POINT('',(371.,40.904566603211,47.767038654704));
#252 = CARTESIAN_POINT('',(371.,42.512373482742,47.125062345281));
#253 = CARTESIAN_POINT('',(371.,46.038051237061,45.629682550147));
#254 = CARTESIAN_POINT('',(371.,47.949094184554,44.760377025879));
#255 = CARTESIAN_POINT('',(371.,49.836779593021,43.840187720674));
#256 = CARTESIAN_POINT('',(371.,51.698547942159,42.867945834353));
#257 = CARTESIAN_POINT('',(371.,53.531464846118,41.842441689422));
#258 = CARTESIAN_POINT('',(371.,55.33221671156,40.762417163347));
#259 = CARTESIAN_POINT('',(371.,59.17139818552,38.291501468429));
#260 = CARTESIAN_POINT('',(371.,61.195824367948,36.879512624639));
#261 = CARTESIAN_POINT('',(371.,63.164612886582,35.388282550017));
#262 = CARTESIAN_POINT('',(371.,65.070517440202,33.815770602674));
#263 = CARTESIAN_POINT('',(371.,66.904926956284,32.160330046989));
#264 = CARTESIAN_POINT('',(371.,68.657975808992,30.420842439728));
#265 = CARTESIAN_POINT('',(371.,71.535202459721,27.260617709176));
#266 = CARTESIAN_POINT('',(371.,72.702027844049,25.879214254433));
#267 = CARTESIAN_POINT('',(371.,73.814741147857,24.452530735493));
#268 = CARTESIAN_POINT('',(371.,74.868424401384,22.980937522647));
#269 = CARTESIAN_POINT('',(371.,75.857738142179,21.465356466955));
#270 = CARTESIAN_POINT('',(371.,76.777101951487,19.907388278689));
#271 = CARTESIAN_POINT('',(371.,78.894230012254,15.898339564437));
#272 = CARTESIAN_POINT('',(371.,79.996186650729,13.395060339818));
#273 = CARTESIAN_POINT('',(371.,80.906212473616,10.810046765008));
#274 = CARTESIAN_POINT('',(371.,81.605254677209,8.157368080974));
#275 = CARTESIAN_POINT('',(371.,82.077696369019,5.455240127762));
#276 = CARTESIAN_POINT('',(371.,82.313589809872,2.726559773941));
#277 = CARTESIAN_POINT('',(371.,82.313589648853,2.297651425338E-15));
#278 = PCURVE('',#97,#279);
#279 = DEFINITIONAL_REPRESENTATION('',(#280),#439);
#280 = B_SPLINE_CURVE_WITH_KNOTS('',7,(#281,#282,#283,#284,#285,#286,
    #287,#288,#289,#290,#291,#292,#293,#294,#295,#296,#297,#298,#299,
    #300,#301,#302,#303,#304,#305,#306,#307,#308,#309,#310,#311,#312,
    #313,#314,#315,#316,#317,#318,#319,#320,#321,#322,#323,#324,#325,
    #326,#327,#328,#329,#330,#331,#332,#333,#334,#335,#336,#337,#338,
    #339,#340,#341,#342,#343,#344,#345,#346,#347,#348,#349,#350,#351,
    #352,#353,#354,#355,#356,#357,#358,#359,#360,#361,#362,#363,#364,
    #365,#366,#367,#368,#369,#370,#371,#372,#373,#374,#375,#376,#377,
    #378,#379,#380,#381,#382,#383,#384,#385,#386,#387,#388,#389,#390,
    #391,#392,#393,#394,#395,#396,#397,#398,#399,#400,#401,#402,#403,
    #404,#405,#406,#407,#408,#409,#410,#411,#412,#413,#414,#415,#416,
    #417,#418,#419,#420,#421,#422,#423,#424,#425,#426,#427,#428,#429,
    #430,#431,#432,#433,#434,#435,#436,#437,#438),.UNSPECIFIED.,.F.,.F.,
  (8,6,6,6,6,6,6,6,6,6,6,6,6,6,6,6,6,6,6,6,6,6,6,6,6,6,8),(0.,
    4.380881447699E-02,7.284169016043E-02,0.112473014719,0.146192462348,
    0.173999981556,0.24999632001,0.325992658464,0.353800177671,
    0.387519625301,0.42715094986,0.456183825544,0.480066702972,
    0.500001026371,0.528856914825,0.54381703154,0.572849852676,
    0.612481102775,0.646200487052,0.674007954015,0.750004149685,
    0.826000345357,0.853807812319,0.887527196597,0.927158446696,
    0.956191267832,1.),.UNSPECIFIED.);
#281 = CARTESIAN_POINT('',(-1.42108547152E-14,-78.10464248562));
#282 = CARTESIAN_POINT('',(-2.72655977396,-78.10464264663));
#283 = CARTESIAN_POINT('',(-5.45524012769,-77.86874920579));
#284 = CARTESIAN_POINT('',(-8.157368081091,-77.39630751396));
#285 = CARTESIAN_POINT('',(-10.81004676489,-76.69726531039));
#286 = CARTESIAN_POINT('',(-13.39506033987,-75.78723948749));
#287 = CARTESIAN_POINT('',(-15.89833956441,-74.68528284902));
#288 = CARTESIAN_POINT('',(-19.90738827868,-72.56815478825));
#289 = CARTESIAN_POINT('',(-21.46535646694,-71.64879097895));
#290 = CARTESIAN_POINT('',(-22.98093752264,-70.65947723815));
#291 = CARTESIAN_POINT('',(-24.45253073548,-69.60579398462));
#292 = CARTESIAN_POINT('',(-25.87921425442,-68.49308068082));
#293 = CARTESIAN_POINT('',(-27.26061770917,-67.32625529649));
#294 = CARTESIAN_POINT('',(-30.42084243972,-64.44902864576));
#295 = CARTESIAN_POINT('',(-32.16033004698,-62.69597979305));
#296 = CARTESIAN_POINT('',(-33.81577060266,-60.86157027697));
#297 = CARTESIAN_POINT('',(-35.38828255,-58.95566572335));
#298 = CARTESIAN_POINT('',(-36.87951262463,-56.98687720472));
#299 = CARTESIAN_POINT('',(-38.29150146842,-54.96245102229));
#300 = CARTESIAN_POINT('',(-40.76241716334,-51.12326954833));
#301 = CARTESIAN_POINT('',(-41.84244168941,-49.32251768289));
#302 = CARTESIAN_POINT('',(-42.86794583434,-47.48960077893));
#303 = CARTESIAN_POINT('',(-43.84018772066,-45.6278324298));
#304 = CARTESIAN_POINT('',(-44.76037702587,-43.74014702133));
#305 = CARTESIAN_POINT('',(-45.62968255014,-41.82910407384));
#306 = CARTESIAN_POINT('',(-47.12506234527,-38.30342631952));
#307 = CARTESIAN_POINT('',(-47.76703865469,-36.69561943999));
#308 = CARTESIAN_POINT('',(-48.37575710753,-35.07471162134));
#309 = CARTESIAN_POINT('',(-48.95178037125,-33.44185720145));
#310 = CARTESIAN_POINT('',(-49.49562593658,-31.79811407343));
#311 = CARTESIAN_POINT('',(-50.00777083663,-30.14444540143));
#312 = CARTESIAN_POINT('',(-51.80288800857,-23.93759178427));
#313 = CARTESIAN_POINT('',(-52.88334467078,-19.32685662111));
#314 = CARTESIAN_POINT('',(-53.73955460341,-14.66599252026));
#315 = CARTESIAN_POINT('',(-54.3774812042,-9.969652132141));
#316 = CARTESIAN_POINT('',(-54.80127950396,-5.250942352245));
#317 = CARTESIAN_POINT('',(-55.01324057124,-0.521423703627));
#318 = CARTESIAN_POINT('',(-55.01324057124,8.939318030057));
#319 = CARTESIAN_POINT('',(-54.80127950395,13.668836678773));
#320 = CARTESIAN_POINT('',(-54.37748120421,18.387546458453));
#321 = CARTESIAN_POINT('',(-53.7395546034,23.083886846843));
#322 = CARTESIAN_POINT('',(-52.88334467079,27.7447509475));
#323 = CARTESIAN_POINT('',(-51.80288800857,32.355486110738));
#324 = CARTESIAN_POINT('',(-50.00777083663,38.562339727886));
#325 = CARTESIAN_POINT('',(-49.49562593658,40.216008399887));
#326 = CARTESIAN_POINT('',(-48.95178037125,41.859751527903));
#327 = CARTESIAN_POINT('',(-48.37575710754,43.492605947795));
#328 = CARTESIAN_POINT('',(-47.7670386547,45.113513766443));
#329 = CARTESIAN_POINT('',(-47.12506234528,46.721320645974));
#330 = CARTESIAN_POINT('',(-45.62968255014,50.246998400302));
#331 = CARTESIAN_POINT('',(-44.76037702588,52.158041347763));
#332 = CARTESIAN_POINT('',(-43.84018772067,54.045726756265));
#333 = CARTESIAN_POINT('',(-42.86794583435,55.907495105404));
#334 = CARTESIAN_POINT('',(-41.84244168942,57.740412009329));
#335 = CARTESIAN_POINT('',(-40.76241716334,59.5411638748));
#336 = CARTESIAN_POINT('',(-38.29150146842,63.380345348757));
#337 = CARTESIAN_POINT('',(-36.87951262464,65.404771531166));
#338 = CARTESIAN_POINT('',(-35.38828255001,67.373560049821));
#339 = CARTESIAN_POINT('',(-33.81577060267,69.279464603442));
#340 = CARTESIAN_POINT('',(-32.16033004699,71.113874119505));
#341 = CARTESIAN_POINT('',(-30.42084243972,72.866922972228));
#342 = CARTESIAN_POINT('',(-27.26061770917,75.744149622951));
#343 = CARTESIAN_POINT('',(-25.87921425443,76.910975007284));
#344 = CARTESIAN_POINT('',(-24.45253073549,78.023688311088));
#345 = CARTESIAN_POINT('',(-22.98093752264,79.077371564614));
#346 = CARTESIAN_POINT('',(-21.46535646695,80.066685305414));
#347 = CARTESIAN_POINT('',(-19.90738827869,80.986049114718));
#348 = CARTESIAN_POINT('',(-16.99502005454,82.524033769769));
#349 = CARTESIAN_POINT('',(-15.65353226009,83.167075018232));
#350 = CARTESIAN_POINT('',(-14.28646492409,83.755857606019));
#351 = CARTESIAN_POINT('',(-12.89565587107,84.287266698803));
#352 = CARTESIAN_POINT('',(-11.48337363901,84.758326045542));
#353 = CARTESIAN_POINT('',(-10.05237304502,85.166346638418));
#354 = CARTESIAN_POINT('',(-7.398694816571,85.795222995653));
#355 = CARTESIAN_POINT('',(-6.180603103759,86.03588940626));
#356 = CARTESIAN_POINT('',(-4.953642490013,86.229821526575));
#357 = CARTESIAN_POINT('',(-3.719872104697,86.37599442788));
#358 = CARTESIAN_POINT('',(-2.481463311076,86.473691016328));
#359 = CARTESIAN_POINT('',(-1.240703519404,86.522537159355));
#360 = CARTESIAN_POINT('',(1.795977954033,86.522536959806));
#361 = CARTESIAN_POINT('',(3.592283267337,86.420186700981));
#362 = CARTESIAN_POINT('',(5.3813172719,86.215422088572));
#363 = CARTESIAN_POINT('',(7.156232465191,85.909966370948));
#364 = CARTESIAN_POINT('',(8.91086999796,85.50692388102));
#365 = CARTESIAN_POINT('',(10.639713809827,85.010486439396));
#366 = CARTESIAN_POINT('',(13.218253176203,84.122601285153));
#367 = CARTESIAN_POINT('',(14.090468486623,83.795691503471));
#368 = CARTESIAN_POINT('',(14.953876614701,83.445707870047));
#369 = CARTESIAN_POINT('',(15.807926330523,83.073376319218));
#370 = CARTESIAN_POINT('',(16.652140027507,82.679450195642));
#371 = CARTESIAN_POINT('',(17.486107846427,82.264696673795));
#372 = CARTESIAN_POINT('',(19.907388278678,80.986049114727));
#373 = CARTESIAN_POINT('',(21.465356466941,80.066685305423));
#374 = CARTESIAN_POINT('',(22.980937522635,79.077371564622));
#375 = CARTESIAN_POINT('',(24.452530735482,78.023688311098));
#376 = CARTESIAN_POINT('',(25.879214254421,76.910975007296));
#377 = CARTESIAN_POINT('',(27.260617709164,75.74414962296));
#378 = CARTESIAN_POINT('',(30.420842439715,72.866922972229));
#379 = CARTESIAN_POINT('',(32.160330046982,71.113874119546));
#380 = CARTESIAN_POINT('',(33.81577060266,69.279464603437));
#381 = CARTESIAN_POINT('',(35.388282550004,67.373560049818));
#382 = CARTESIAN_POINT('',(36.879512624633,65.404771531212));
#383 = CARTESIAN_POINT('',(38.291501468417,63.380345348759));
#384 = CARTESIAN_POINT('',(40.762417163339,59.541163874807));
#385 = CARTESIAN_POINT('',(41.842441689412,57.740412009367));
#386 = CARTESIAN_POINT('',(42.867945834344,55.907495105407));
#387 = CARTESIAN_POINT('',(43.840187720666,54.045726756269));
#388 = CARTESIAN_POINT('',(44.760377025871,52.158041347804));
#389 = CARTESIAN_POINT('',(45.62968255014,50.246998400309));
#390 = CARTESIAN_POINT('',(47.125062345274,46.721320645992));
#391 = CARTESIAN_POINT('',(47.767038654697,45.113513766462));
#392 = CARTESIAN_POINT('',(48.375757107533,43.492605947814));
#393 = CARTESIAN_POINT('',(48.951780371251,41.859751527921));
#394 = CARTESIAN_POINT('',(49.495625936579,40.216008399905));
#395 = CARTESIAN_POINT('',(50.007770836629,38.562339727906));
#396 = CARTESIAN_POINT('',(51.802888008575,32.355486110767));
#397 = CARTESIAN_POINT('',(52.883344670759,27.744750947487));
#398 = CARTESIAN_POINT('',(53.739554603465,23.083886846903));
#399 = CARTESIAN_POINT('',(54.377481204141,18.387546458444));
#400 = CARTESIAN_POINT('',(54.801279504,13.6688366788));
#401 = CARTESIAN_POINT('',(55.013240571234,8.939318030075));
#402 = CARTESIAN_POINT('',(55.013240571251,-0.521423703608));
#403 = CARTESIAN_POINT('',(54.801279503943,-5.250942352245));
#404 = CARTESIAN_POINT('',(54.377481204239,-9.969652132079));
#405 = CARTESIAN_POINT('',(53.739554603383,-14.6659925203));
#406 = CARTESIAN_POINT('',(52.883344670806,-19.32685662106));
#407 = CARTESIAN_POINT('',(51.80288800857,-23.93759178426));
#408 = CARTESIAN_POINT('',(50.007770836635,-30.14444540142));
#409 = CARTESIAN_POINT('',(49.495625936585,-31.79811407342));
#410 = CARTESIAN_POINT('',(48.951780371257,-33.44185720143));
#411 = CARTESIAN_POINT('',(48.37575710754,-35.07471162133));
#412 = CARTESIAN_POINT('',(47.767038654704,-36.69561943997));
#413 = CARTESIAN_POINT('',(47.125062345281,-38.3034263195));
#414 = CARTESIAN_POINT('',(45.629682550147,-41.82910407382));
#415 = CARTESIAN_POINT('',(44.760377025879,-43.74014702132));
#416 = CARTESIAN_POINT('',(43.840187720674,-45.62783242978));
#417 = CARTESIAN_POINT('',(42.867945834353,-47.48960077892));
#418 = CARTESIAN_POINT('',(41.842441689422,-49.32251768288));
#419 = CARTESIAN_POINT('',(40.762417163347,-51.12326954832));
#420 = CARTESIAN_POINT('',(38.291501468429,-54.96245102228));
#421 = CARTESIAN_POINT('',(36.879512624639,-56.98687720471));
#422 = CARTESIAN_POINT('',(35.388282550017,-58.95566572334));
#423 = CARTESIAN_POINT('',(33.815770602674,-60.86157027696));
#424 = CARTESIAN_POINT('',(32.160330046989,-62.69597979305));
#425 = CARTESIAN_POINT('',(30.420842439728,-64.44902864575));
#426 = CARTESIAN_POINT('',(27.260617709176,-67.32625529648));
#427 = CARTESIAN_POINT('',(25.879214254433,-68.49308068081));
#428 = CARTESIAN_POINT('',(24.452530735493,-69.60579398462));
#429 = CARTESIAN_POINT('',(22.980937522647,-70.65947723815));
#430 = CARTESIAN_POINT('',(21.465356466955,-71.64879097894));
#431 = CARTESIAN_POINT('',(19.907388278689,-72.56815478825));
#432 = CARTESIAN_POINT('',(15.898339564437,-74.68528284902));
#433 = CARTESIAN_POINT('',(13.395060339818,-75.78723948749));
#434 = CARTESIAN_POINT('',(10.810046765008,-76.69726531038));
#435 = CARTESIAN_POINT('',(8.157368080974,-77.39630751397));
#436 = CARTESIAN_POINT('',(5.455240127762,-77.86874920578));
#437 = CARTESIAN_POINT('',(2.726559773941,-78.10464264663));
#438 = CARTESIAN_POINT('',(0.,-78.10464248562));
#439 = ( GEOMETRIC_REPRESENTATION_CONTEXT(2) 
PARAMETRIC_REPRESENTATION_CONTEXT() REPRESENTATION_CONTEXT('2D SPACE',''
  ) );
#440 = PCURVE('',#441,#449);
#441 = SURFACE_OF_LINEAR_EXTRUSION('',#442,#447);
#442 = ELLIPSE('',#443,82.313589648853,55.01324096122);
#443 = AXIS2_PLACEMENT_3D('',#444,#445,#446);
#444 = CARTESIAN_POINT('',(370.,0.,0.));
#445 = DIRECTION('',(1.,0.,0.));
#446 = DIRECTION('',(0.,1.,0.));
#447 = VECTOR('',#448,1.);
#448 = DIRECTION('',(-1.,-0.,-0.));
#449 = DEFINITIONAL_REPRESENTATION('',(#450),#609);
#450 = B_SPLINE_CURVE_WITH_KNOTS('',7,(#451,#452,#453,#454,#455,#456,
    #457,#458,#459,#460,#461,#462,#463,#464,#465,#466,#467,#468,#469,
    #470,#471,#472,#473,#474,#475,#476,#477,#478,#479,#480,#481,#482,
    #483,#484,#485,#486,#487,#488,#489,#490,#491,#492,#493,#494,#495,
    #496,#497,#498,#499,#500,#501,#502,#503,#504,#505,#506,#507,#508,
    #509,#510,#511,#512,#513,#514,#515,#516,#517,#518,#519,#520,#521,
    #522,#523,#524,#525,#526,#527,#528,#529,#530,#531,#532,#533,#534,
    #535,#536,#537,#538,#539,#540,#541,#542,#543,#544,#545,#546,#547,
    #548,#549,#550,#551,#552,#553,#554,#555,#556,#557,#558,#559,#560,
    #561,#562,#563,#564,#565,#566,#567,#568,#569,#570,#571,#572,#573,
    #574,#575,#576,#577,#578,#579,#580,#581,#582,#583,#584,#585,#586,
    #587,#588,#589,#590,#591,#592,#593,#594,#595,#596,#597,#598,#599,
    #600,#601,#602,#603,#604,#605,#606,#607,#608),.UNSPECIFIED.,.F.,.F.,
  (8,6,6,6,6,6,6,6,6,6,6,6,6,6,6,6,6,6,6,6,6,6,6,6,6,6,8),(0.,
    4.380881447699E-02,7.284169016043E-02,0.112473014719,0.146192462348,
    0.173999981556,0.24999632001,0.325992658464,0.353800177671,
    0.387519625301,0.42715094986,0.456183825544,0.480066702972,
    0.500001026371,0.528856914825,0.54381703154,0.572849852676,
    0.612481102775,0.646200487052,0.674007954015,0.750004149685,
    0.826000345357,0.853807812319,0.887527196597,0.927158446696,
    0.956191267832,1.),.UNSPECIFIED.);
#451 = CARTESIAN_POINT('',(6.28318530718,-1.));
#452 = CARTESIAN_POINT('',(6.233623422547,-1.));
#453 = CARTESIAN_POINT('',(6.184023009117,-1.));
#454 = CARTESIAN_POINT('',(6.134706333778,-1.));
#455 = CARTESIAN_POINT('',(6.085889624855,-1.));
#456 = CARTESIAN_POINT('',(6.037736061147,-1.));
#457 = CARTESIAN_POINT('',(5.990371387609,-1.));
#458 = CARTESIAN_POINT('',(5.913091450816,-1.));
#459 = CARTESIAN_POINT('',(5.882668806562,-1.));
#460 = CARTESIAN_POINT('',(5.852642144988,-1.));
#461 = CARTESIAN_POINT('',(5.823019081944,-1.));
#462 = CARTESIAN_POINT('',(5.793800278884,-1.));
#463 = CARTESIAN_POINT('',(5.764980452268,-1.));
#464 = CARTESIAN_POINT('',(5.697736721986,-1.));
#465 = CARTESIAN_POINT('',(5.659654294435,-1.));
#466 = CARTESIAN_POINT('',(5.622267724139,-1.));
#467 = CARTESIAN_POINT('',(5.585542560392,-1.));
#468 = CARTESIAN_POINT('',(5.549441488151,-1.));
#469 = CARTESIAN_POINT('',(5.513922607927,-1.));
#470 = CARTESIAN_POINT('',(5.449171347012,-1.));
#471 = CARTESIAN_POINT('',(5.419795481039,-1.));
#472 = CARTESIAN_POINT('',(5.390782517971,-1.));
#473 = CARTESIAN_POINT('',(5.362107569388,-1.));
#474 = CARTESIAN_POINT('',(5.333747022192,-1.));
#475 = CARTESIAN_POINT('',(5.305677580558,-1.));
#476 = CARTESIAN_POINT('',(5.254948162208,-1.));
#477 = CARTESIAN_POINT('',(5.232203327379,-1.));
#478 = CARTESIAN_POINT('',(5.209628365292,-1.));
#479 = CARTESIAN_POINT('',(5.187211344545,-1.));
#480 = CARTESIAN_POINT('',(5.16494093136,-1.));
#481 = CARTESIAN_POINT('',(5.142806130361,-1.));
#482 = CARTESIAN_POINT('',(5.060643683919,-1.));
#483 = CARTESIAN_POINT('',(5.001436353802,-1.));
#484 = CARTESIAN_POINT('',(4.94293358206,-1.));
#485 = CARTESIAN_POINT('',(4.884950047579,-1.));
#486 = CARTESIAN_POINT('',(4.827313959669,-1.));
#487 = CARTESIAN_POINT('',(4.769856662811,-1.));
#488 = CARTESIAN_POINT('',(4.654921297958,-1.));
#489 = CARTESIAN_POINT('',(4.597464001102,-1.));
#490 = CARTESIAN_POINT('',(4.539827913189,-1.));
#491 = CARTESIAN_POINT('',(4.481844378711,-1.));
#492 = CARTESIAN_POINT('',(4.423341606967,-1.));
#493 = CARTESIAN_POINT('',(4.36413427685,-1.));
#494 = CARTESIAN_POINT('',(4.281971830408,-1.));
#495 = CARTESIAN_POINT('',(4.259837029409,-1.));
#496 = CARTESIAN_POINT('',(4.237566616224,-1.));
#497 = CARTESIAN_POINT('',(4.215149595478,-1.));
#498 = CARTESIAN_POINT('',(4.192574633391,-1.));
#499 = CARTESIAN_POINT('',(4.169829798561,-1.));
#500 = CARTESIAN_POINT('',(4.119100380211,-1.));
#501 = CARTESIAN_POINT('',(4.091030938577,-1.));
#502 = CARTESIAN_POINT('',(4.062670391382,-1.));
#503 = CARTESIAN_POINT('',(4.033995442798,-1.));
#504 = CARTESIAN_POINT('',(4.004982479731,-1.));
#505 = CARTESIAN_POINT('',(3.975606613758,-1.));
#506 = CARTESIAN_POINT('',(3.910855352842,-1.));
#507 = CARTESIAN_POINT('',(3.875336472618,-1.));
#508 = CARTESIAN_POINT('',(3.839235400377,-1.));
#509 = CARTESIAN_POINT('',(3.802510236631,-1.));
#510 = CARTESIAN_POINT('',(3.765123666335,-1.));
#511 = CARTESIAN_POINT('',(3.727041238783,-1.));
#512 = CARTESIAN_POINT('',(3.659797508502,-1.));
#513 = CARTESIAN_POINT('',(3.630977681886,-1.));
#514 = CARTESIAN_POINT('',(3.601758878826,-1.));
#515 = CARTESIAN_POINT('',(3.572135815782,-1.));
#516 = CARTESIAN_POINT('',(3.542109154208,-1.));
#517 = CARTESIAN_POINT('',(3.511686509953,-1.));
#518 = CARTESIAN_POINT('',(3.455546598224,-1.));
#519 = CARTESIAN_POINT('',(3.429951934032,-1.));
#520 = CARTESIAN_POINT('',(3.404111609844,-1.));
#521 = CARTESIAN_POINT('',(3.378040759094,-1.));
#522 = CARTESIAN_POINT('',(3.351759090729,-1.));
#523 = CARTESIAN_POINT('',(3.325291982936,-1.));
#524 = CARTESIAN_POINT('',(3.276453621717,-1.));
#525 = CARTESIAN_POINT('',(3.254127041857,-1.));
#526 = CARTESIAN_POINT('',(3.231712157885,-1.));
#527 = CARTESIAN_POINT('',(3.20922915415,-1.));
#528 = CARTESIAN_POINT('',(3.186699301888,-1.));
#529 = CARTESIAN_POINT('',(3.164145472959,-1.));
#530 = CARTESIAN_POINT('',(3.108946366729,-1.));
#531 = CARTESIAN_POINT('',(3.076294139223,-1.));
#532 = CARTESIAN_POINT('',(3.043717228604,-1.));
#533 = CARTESIAN_POINT('',(3.011283253702,-1.));
#534 = CARTESIAN_POINT('',(2.979050840583,-1.));
#535 = CARTESIAN_POINT('',(2.947072820885,-1.));
#536 = CARTESIAN_POINT('',(2.898976402602,-1.));
#537 = CARTESIAN_POINT('',(2.882634934804,-1.));
#538 = CARTESIAN_POINT('',(2.866379374363,-1.));
#539 = CARTESIAN_POINT('',(2.850214559333,-1.));
#540 = CARTESIAN_POINT('',(2.834144467609,-1.));
#541 = CARTESIAN_POINT('',(2.818172313952,-1.));
#542 = CARTESIAN_POINT('',(2.771498797227,-1.));
#543 = CARTESIAN_POINT('',(2.741076152972,-1.));
#544 = CARTESIAN_POINT('',(2.711049491398,-1.));
#545 = CARTESIAN_POINT('',(2.681426428354,-1.));
#546 = CARTESIAN_POINT('',(2.652207625294,-1.));
#547 = CARTESIAN_POINT('',(2.623387798678,-1.));
#548 = CARTESIAN_POINT('',(2.556144068396,-1.));
#549 = CARTESIAN_POINT('',(2.518061640845,-1.));
#550 = CARTESIAN_POINT('',(2.480675070549,-1.));
#551 = CARTESIAN_POINT('',(2.443949906802,-1.));
#552 = CARTESIAN_POINT('',(2.407848834562,-1.));
#553 = CARTESIAN_POINT('',(2.372329954338,-1.));
#554 = CARTESIAN_POINT('',(2.307578693422,-1.));
#555 = CARTESIAN_POINT('',(2.278202827449,-1.));
#556 = CARTESIAN_POINT('',(2.249189864381,-1.));
#557 = CARTESIAN_POINT('',(2.220514915798,-1.));
#558 = CARTESIAN_POINT('',(2.192154368603,-1.));
#559 = CARTESIAN_POINT('',(2.164084926968,-1.));
#560 = CARTESIAN_POINT('',(2.113355508618,-1.));
#561 = CARTESIAN_POINT('',(2.090610673789,-1.));
#562 = CARTESIAN_POINT('',(2.068035711702,-1.));
#563 = CARTESIAN_POINT('',(2.045618690955,-1.));
#564 = CARTESIAN_POINT('',(2.023348277771,-1.));
#565 = CARTESIAN_POINT('',(2.001213476772,-1.));
#566 = CARTESIAN_POINT('',(1.91905103033,-1.));
#567 = CARTESIAN_POINT('',(1.85984370021,-1.));
#568 = CARTESIAN_POINT('',(1.801340928475,-1.));
#569 = CARTESIAN_POINT('',(1.743357393985,-1.));
#570 = CARTESIAN_POINT('',(1.685721306081,-1.));
#571 = CARTESIAN_POINT('',(1.628264009221,-1.));
#572 = CARTESIAN_POINT('',(1.513328644369,-1.));
#573 = CARTESIAN_POINT('',(1.455871347511,-1.));
#574 = CARTESIAN_POINT('',(1.398235259603,-1.));
#575 = CARTESIAN_POINT('',(1.340251725118,-1.));
#576 = CARTESIAN_POINT('',(1.281748953379,-1.));
#577 = CARTESIAN_POINT('',(1.22254162326,-1.));
#578 = CARTESIAN_POINT('',(1.140379176818,-1.));
#579 = CARTESIAN_POINT('',(1.118244375819,-1.));
#580 = CARTESIAN_POINT('',(1.095973962635,-1.));
#581 = CARTESIAN_POINT('',(1.073556941888,-1.));
#582 = CARTESIAN_POINT('',(1.050981979801,-1.));
#583 = CARTESIAN_POINT('',(1.028237144972,-1.));
#584 = CARTESIAN_POINT('',(0.977507726622,-1.));
#585 = CARTESIAN_POINT('',(0.949438284987,-1.));
#586 = CARTESIAN_POINT('',(0.921077737792,-1.));
#587 = CARTESIAN_POINT('',(0.892402789209,-1.));
#588 = CARTESIAN_POINT('',(0.863389826141,-1.));
#589 = CARTESIAN_POINT('',(0.834013960168,-1.));
#590 = CARTESIAN_POINT('',(0.769262699252,-1.));
#591 = CARTESIAN_POINT('',(0.733743819028,-1.));
#592 = CARTESIAN_POINT('',(0.697642746788,-1.));
#593 = CARTESIAN_POINT('',(0.660917583041,-1.));
#594 = CARTESIAN_POINT('',(0.623531012745,-1.));
#595 = CARTESIAN_POINT('',(0.585448585194,-1.));
#596 = CARTESIAN_POINT('',(0.518204854912,-1.));
#597 = CARTESIAN_POINT('',(0.489385028296,-1.));
#598 = CARTESIAN_POINT('',(0.460166225236,-1.));
#599 = CARTESIAN_POINT('',(0.430543162192,-1.));
#600 = CARTESIAN_POINT('',(0.400516500618,-1.));
#601 = CARTESIAN_POINT('',(0.370093856363,-1.));
#602 = CARTESIAN_POINT('',(0.292813919571,-1.));
#603 = CARTESIAN_POINT('',(0.245449246033,-1.));
#604 = CARTESIAN_POINT('',(0.197295682326,-1.));
#605 = CARTESIAN_POINT('',(0.148478973401,-1.));
#606 = CARTESIAN_POINT('',(9.916229806312E-02,-1.));
#607 = CARTESIAN_POINT('',(4.956188463238E-02,-1.));
#608 = CARTESIAN_POINT('',(0.,-1.));
#609 = ( GEOMETRIC_REPRESENTATION_CONTEXT(2) 
PARAMETRIC_REPRESENTATION_CONTEXT() REPRESENTATION_CONTEXT('2D SPACE',''
  ) );
#610 = ADVANCED_FACE('',(#611,#614),#69,.T.);
#611 = FACE_BOUND('',#612,.T.);
#612 = EDGE_LOOP('',(#613));
#613 = ORIENTED_EDGE('',*,*,#54,.T.);
#614 = FACE_BOUND('',#615,.T.);
#615 = EDGE_LOOP('',(#616));
#616 = ORIENTED_EDGE('',*,*,#617,.T.);
#617 = EDGE_CURVE('',#618,#618,#620,.T.);
#618 = VERTEX_POINT('',#619);
#619 = CARTESIAN_POINT('',(373.,82.313589648853,0.));
#620 = SURFACE_CURVE('',#621,(#780,#942),.PCURVE_S1.);
#621 = B_SPLINE_CURVE_WITH_KNOTS('',7,(#622,#623,#624,#625,#626,#627,
    #628,#629,#630,#631,#632,#633,#634,#635,#636,#637,#638,#639,#640,
    #641,#642,#643,#644,#645,#646,#647,#648,#649,#650,#651,#652,#653,
    #654,#655,#656,#657,#658,#659,#660,#661,#662,#663,#664,#665,#666,
    #667,#668,#669,#670,#671,#672,#673,#674,#675,#676,#677,#678,#679,
    #680,#681,#682,#683,#684,#685,#686,#687,#688,#689,#690,#691,#692,
    #693,#694,#695,#696,#697,#698,#699,#700,#701,#702,#703,#704,#705,
    #706,#707,#708,#709,#710,#711,#712,#713,#714,#715,#716,#717,#718,
    #719,#720,#721,#722,#723,#724,#725,#726,#727,#728,#729,#730,#731,
    #732,#733,#734,#735,#736,#737,#738,#739,#740,#741,#742,#743,#744,
    #745,#746,#747,#748,#749,#750,#751,#752,#753,#754,#755,#756,#757,
    #758,#759,#760,#761,#762,#763,#764,#765,#766,#767,#768,#769,#770,
    #771,#772,#773,#774,#775,#776,#777,#778,#779),.UNSPECIFIED.,.T.,.F.,
  (8,6,6,6,6,6,6,6,6,6,6,6,6,6,6,6,6,6,6,6,6,6,6,6,6,6,8),(0.,
    4.380881447699E-02,7.284169016043E-02,0.112473014719,0.146192462348,
    0.173999981556,0.24999632001,0.325992658464,0.353800177671,
    0.387519625301,0.42715094986,0.456183825544,0.480066702972,
    0.500001026371,0.528856914825,0.54381703154,0.572849852676,
    0.612481102775,0.646200487052,0.674007954015,0.750004149685,
    0.826000345357,0.853807812319,0.887527196597,0.927158446696,
    0.956191267832,1.),.UNSPECIFIED.);
#622 = CARTESIAN_POINT('',(373.,82.313589648853,-1.191320328986E-14));
#623 = CARTESIAN_POINT('',(373.,82.313589809871,-2.72655977396));
#624 = CARTESIAN_POINT('',(373.,82.077696369023,-5.45524012769));
#625 = CARTESIAN_POINT('',(373.,81.605254677202,-8.157368081091));
#626 = CARTESIAN_POINT('',(373.,80.906212473624,-10.81004676489));
#627 = CARTESIAN_POINT('',(373.,79.996186650727,-13.39506033987));
#628 = CARTESIAN_POINT('',(373.,78.894230012257,-15.89833956441));
#629 = CARTESIAN_POINT('',(373.,76.77710195149,-19.90738827868));
#630 = CARTESIAN_POINT('',(373.,75.857738142186,-21.46535646694));
#631 = CARTESIAN_POINT('',(373.,74.868424401387,-22.98093752264));
#632 = CARTESIAN_POINT('',(373.,73.814741147861,-24.45253073548));
#633 = CARTESIAN_POINT('',(373.,72.702027844057,-25.87921425442));
#634 = CARTESIAN_POINT('',(373.,71.535202459725,-27.26061770917));
#635 = CARTESIAN_POINT('',(373.,68.657975808998,-30.42084243972));
#636 = CARTESIAN_POINT('',(373.,66.904926956291,-32.16033004698));
#637 = CARTESIAN_POINT('',(373.,65.07051744021,-33.81577060266));
#638 = CARTESIAN_POINT('',(373.,63.164612886591,-35.38828255));
#639 = CARTESIAN_POINT('',(373.,61.195824367956,-36.87951262463));
#640 = CARTESIAN_POINT('',(373.,59.17139818553,-38.29150146842));
#641 = CARTESIAN_POINT('',(373.,55.332216711571,-40.76241716334));
#642 = CARTESIAN_POINT('',(373.,53.531464846126,-41.84244168941));
#643 = CARTESIAN_POINT('',(373.,51.698547942171,-42.86794583434));
#644 = CARTESIAN_POINT('',(373.,49.836779593034,-43.84018772066));
#645 = CARTESIAN_POINT('',(373.,47.949094184563,-44.76037702587));
#646 = CARTESIAN_POINT('',(373.,46.038051237074,-45.62968255014));
#647 = CARTESIAN_POINT('',(373.,42.512373482755,-47.12506234527));
#648 = CARTESIAN_POINT('',(373.,40.904566603224,-47.76703865469));
#649 = CARTESIAN_POINT('',(373.,39.283658784576,-48.37575710753));
#650 = CARTESIAN_POINT('',(373.,37.650804364684,-48.95178037125));
#651 = CARTESIAN_POINT('',(373.,36.007061236668,-49.49562593658));
#652 = CARTESIAN_POINT('',(373.,34.353392564668,-50.00777083663));
#653 = CARTESIAN_POINT('',(373.,28.146538947503,-51.80288800857));
#654 = CARTESIAN_POINT('',(373.,23.535803784352,-52.88334467078));
#655 = CARTESIAN_POINT('',(373.,18.874939683494,-53.73955460341));
#656 = CARTESIAN_POINT('',(373.,14.178599295374,-54.3774812042));
#657 = CARTESIAN_POINT('',(373.,9.459889515478,-54.80127950396));
#658 = CARTESIAN_POINT('',(373.,4.73037086686,-55.01324057124));
#659 = CARTESIAN_POINT('',(373.,-4.730370866824,-55.01324057124));
#660 = CARTESIAN_POINT('',(373.,-9.45988951554,-54.80127950395));
#661 = CARTESIAN_POINT('',(373.,-14.17859929522,-54.37748120421));
#662 = CARTESIAN_POINT('',(373.,-18.87493968361,-53.7395546034));
#663 = CARTESIAN_POINT('',(373.,-23.53580378426,-52.88334467079));
#664 = CARTESIAN_POINT('',(373.,-28.1465389475,-51.80288800857));
#665 = CARTESIAN_POINT('',(373.,-34.35339256465,-50.00777083663));
#666 = CARTESIAN_POINT('',(373.,-36.00706123665,-49.49562593658));
#667 = CARTESIAN_POINT('',(373.,-37.65080436467,-48.95178037125));
#668 = CARTESIAN_POINT('',(373.,-39.28365878456,-48.37575710754));
#669 = CARTESIAN_POINT('',(373.,-40.90456660321,-47.7670386547));
#670 = CARTESIAN_POINT('',(373.,-42.51237348274,-47.12506234528));
#671 = CARTESIAN_POINT('',(373.,-46.03805123706,-45.62968255014));
#672 = CARTESIAN_POINT('',(373.,-47.94909418453,-44.76037702588));
#673 = CARTESIAN_POINT('',(373.,-49.83677959303,-43.84018772067));
#674 = CARTESIAN_POINT('',(373.,-51.69854794217,-42.86794583435));
#675 = CARTESIAN_POINT('',(373.,-53.53146484609,-41.84244168942));
#676 = CARTESIAN_POINT('',(373.,-55.33221671156,-40.76241716334));
#677 = CARTESIAN_POINT('',(373.,-59.17139818552,-38.29150146842));
#678 = CARTESIAN_POINT('',(373.,-61.19582436793,-36.87951262464));
#679 = CARTESIAN_POINT('',(373.,-63.16461288658,-35.38828255001));
#680 = CARTESIAN_POINT('',(373.,-65.0705174402,-33.81577060267));
#681 = CARTESIAN_POINT('',(373.,-66.90492695627,-32.16033004699));
#682 = CARTESIAN_POINT('',(373.,-68.65797580899,-30.42084243972));
#683 = CARTESIAN_POINT('',(373.,-71.53520245971,-27.26061770917));
#684 = CARTESIAN_POINT('',(373.,-72.70202784405,-25.87921425443));
#685 = CARTESIAN_POINT('',(373.,-73.81474114785,-24.45253073549));
#686 = CARTESIAN_POINT('',(373.,-74.86842440138,-22.98093752264));
#687 = CARTESIAN_POINT('',(373.,-75.85773814218,-21.46535646695));
#688 = CARTESIAN_POINT('',(373.,-76.77710195148,-19.90738827869));
#689 = CARTESIAN_POINT('',(373.,-78.31508660653,-16.99502005454));
#690 = CARTESIAN_POINT('',(373.,-78.95812785499,-15.65353226009));
#691 = CARTESIAN_POINT('',(373.,-79.54691044278,-14.28646492409));
#692 = CARTESIAN_POINT('',(373.,-80.07831953557,-12.89565587107));
#693 = CARTESIAN_POINT('',(373.,-80.5493788823,-11.48337363901));
#694 = CARTESIAN_POINT('',(373.,-80.95739947518,-10.05237304502));
#695 = CARTESIAN_POINT('',(373.,-81.58627583242,-7.398694816571));
#696 = CARTESIAN_POINT('',(373.,-81.82694224302,-6.180603103759));
#697 = CARTESIAN_POINT('',(373.,-82.02087436334,-4.953642490013));
#698 = CARTESIAN_POINT('',(373.,-82.16704726464,-3.719872104697));
#699 = CARTESIAN_POINT('',(373.,-82.26474385309,-2.481463311076));
#700 = CARTESIAN_POINT('',(373.,-82.31358999612,-1.240703519404));
#701 = CARTESIAN_POINT('',(373.,-82.31358979657,1.795977954033));
#702 = CARTESIAN_POINT('',(373.,-82.21123953774,3.592283267337));
#703 = CARTESIAN_POINT('',(373.,-82.00647492533,5.3813172719));
#704 = CARTESIAN_POINT('',(373.,-81.70101920771,7.156232465191));
#705 = CARTESIAN_POINT('',(373.,-81.29797671778,8.91086999796));
#706 = CARTESIAN_POINT('',(373.,-80.80153927616,10.639713809827));
#707 = CARTESIAN_POINT('',(373.,-79.91365412192,13.218253176203));
#708 = CARTESIAN_POINT('',(373.,-79.58674434023,14.090468486623));
#709 = CARTESIAN_POINT('',(373.,-79.23676070681,14.953876614701));
#710 = CARTESIAN_POINT('',(373.,-78.86442915598,15.807926330523));
#711 = CARTESIAN_POINT('',(373.,-78.4705030324,16.652140027507));
#712 = CARTESIAN_POINT('',(373.,-78.05574951056,17.486107846427));
#713 = CARTESIAN_POINT('',(373.,-76.77710195149,19.907388278678));
#714 = CARTESIAN_POINT('',(373.,-75.85773814219,21.465356466941));
#715 = CARTESIAN_POINT('',(373.,-74.86842440138,22.980937522635));
#716 = CARTESIAN_POINT('',(373.,-73.81474114786,24.452530735482));
#717 = CARTESIAN_POINT('',(373.,-72.70202784406,25.879214254421));
#718 = CARTESIAN_POINT('',(373.,-71.53520245972,27.260617709164));
#719 = CARTESIAN_POINT('',(373.,-68.65797580899,30.420842439715));
#720 = CARTESIAN_POINT('',(373.,-66.90492695631,32.160330046982));
#721 = CARTESIAN_POINT('',(373.,-65.0705174402,33.81577060266));
#722 = CARTESIAN_POINT('',(373.,-63.16461288658,35.388282550004));
#723 = CARTESIAN_POINT('',(373.,-61.19582436797,36.879512624633));
#724 = CARTESIAN_POINT('',(373.,-59.17139818552,38.291501468417));
#725 = CARTESIAN_POINT('',(373.,-55.33221671157,40.762417163339));
#726 = CARTESIAN_POINT('',(373.,-53.53146484613,41.842441689412));
#727 = CARTESIAN_POINT('',(373.,-51.69854794217,42.867945834344));
#728 = CARTESIAN_POINT('',(373.,-49.83677959303,43.840187720666));
#729 = CARTESIAN_POINT('',(373.,-47.94909418457,44.760377025871));
#730 = CARTESIAN_POINT('',(373.,-46.03805123707,45.62968255014));
#731 = CARTESIAN_POINT('',(373.,-42.51237348275,47.125062345274));
#732 = CARTESIAN_POINT('',(373.,-40.90456660322,47.767038654697));
#733 = CARTESIAN_POINT('',(373.,-39.28365878458,48.375757107533));
#734 = CARTESIAN_POINT('',(373.,-37.65080436468,48.951780371251));
#735 = CARTESIAN_POINT('',(373.,-36.00706123667,49.495625936579));
#736 = CARTESIAN_POINT('',(373.,-34.35339256467,50.007770836629));
#737 = CARTESIAN_POINT('',(373.,-28.14653894753,51.802888008575));
#738 = CARTESIAN_POINT('',(373.,-23.53580378425,52.883344670759));
#739 = CARTESIAN_POINT('',(373.,-18.87493968367,53.739554603465));
#740 = CARTESIAN_POINT('',(373.,-14.17859929521,54.377481204141));
#741 = CARTESIAN_POINT('',(373.,-9.459889515567,54.801279504));
#742 = CARTESIAN_POINT('',(373.,-4.730370866842,55.013240571234));
#743 = CARTESIAN_POINT('',(373.,4.730370866841,55.013240571251));
#744 = CARTESIAN_POINT('',(373.,9.459889515478,54.801279503943));
#745 = CARTESIAN_POINT('',(373.,14.178599295312,54.377481204239));
#746 = CARTESIAN_POINT('',(373.,18.874939683533,53.739554603383));
#747 = CARTESIAN_POINT('',(373.,23.535803784299,52.883344670806));
#748 = CARTESIAN_POINT('',(373.,28.1465389475,51.80288800857));
#749 = CARTESIAN_POINT('',(373.,34.353392564654,50.007770836635));
#750 = CARTESIAN_POINT('',(373.,36.007061236654,49.495625936585));
#751 = CARTESIAN_POINT('',(373.,37.650804364671,48.951780371257));
#752 = CARTESIAN_POINT('',(373.,39.283658784563,48.37575710754));
#753 = CARTESIAN_POINT('',(373.,40.904566603211,47.767038654704));
#754 = CARTESIAN_POINT('',(373.,42.512373482742,47.125062345281));
#755 = CARTESIAN_POINT('',(373.,46.038051237061,45.629682550147));
#756 = CARTESIAN_POINT('',(373.,47.949094184554,44.760377025879));
#757 = CARTESIAN_POINT('',(373.,49.836779593021,43.840187720674));
#758 = CARTESIAN_POINT('',(373.,51.698547942159,42.867945834353));
#759 = CARTESIAN_POINT('',(373.,53.531464846118,41.842441689422));
#760 = CARTESIAN_POINT('',(373.,55.33221671156,40.762417163347));
#761 = CARTESIAN_POINT('',(373.,59.17139818552,38.291501468429));
#762 = CARTESIAN_POINT('',(373.,61.195824367948,36.879512624639));
#763 = CARTESIAN_POINT('',(373.,63.164612886582,35.388282550017));
#764 = CARTESIAN_POINT('',(373.,65.070517440202,33.815770602674));
#765 = CARTESIAN_POINT('',(373.,66.904926956284,32.160330046989));
#766 = CARTESIAN_POINT('',(373.,68.657975808992,30.420842439728));
#767 = CARTESIAN_POINT('',(373.,71.535202459721,27.260617709176));
#768 = CARTESIAN_POINT('',(373.,72.702027844049,25.879214254433));
#769 = CARTESIAN_POINT('',(373.,73.814741147857,24.452530735493));
#770 = CARTESIAN_POINT('',(373.,74.868424401384,22.980937522647));
#771 = CARTESIAN_POINT('',(373.,75.857738142179,21.465356466955));
#772 = CARTESIAN_POINT('',(373.,76.777101951487,19.907388278689));
#773 = CARTESIAN_POINT('',(373.,78.894230012254,15.898339564437));
#774 = CARTESIAN_POINT('',(373.,79.996186650729,13.395060339818));
#775 = CARTESIAN_POINT('',(373.,80.906212473616,10.810046765008));
#776 = CARTESIAN_POINT('',(373.,81.605254677209,8.157368080974));
#777 = CARTESIAN_POINT('',(373.,82.077696369019,5.455240127762));
#778 = CARTESIAN_POINT('',(373.,82.313589809872,2.726559773941));
#779 = CARTESIAN_POINT('',(373.,82.313589648853,2.297651425338E-15));
#780 = PCURVE('',#69,#781);
#781 = DEFINITIONAL_REPRESENTATION('',(#782),#941);
#782 = B_SPLINE_CURVE_WITH_KNOTS('',7,(#783,#784,#785,#786,#787,#788,
    #789,#790,#791,#792,#793,#794,#795,#796,#797,#798,#799,#800,#801,
    #802,#803,#804,#805,#806,#807,#808,#809,#810,#811,#812,#813,#814,
    #815,#816,#817,#818,#819,#820,#821,#822,#823,#824,#825,#826,#827,
    #828,#829,#830,#831,#832,#833,#834,#835,#836,#837,#838,#839,#840,
    #841,#842,#843,#844,#845,#846,#847,#848,#849,#850,#851,#852,#853,
    #854,#855,#856,#857,#858,#859,#860,#861,#862,#863,#864,#865,#866,
    #867,#868,#869,#870,#871,#872,#873,#874,#875,#876,#877,#878,#879,
    #880,#881,#882,#883,#884,#885,#886,#887,#888,#889,#890,#891,#892,
    #893,#894,#895,#896,#897,#898,#899,#900,#901,#902,#903,#904,#905,
    #906,#907,#908,#909,#910,#911,#912,#913,#914,#915,#916,#917,#918,
    #919,#920,#921,#922,#923,#924,#925,#926,#927,#928,#929,#930,#931,
    #932,#933,#934,#935,#936,#937,#938,#939,#940),.UNSPECIFIED.,.F.,.F.,
  (8,6,6,6,6,6,6,6,6,6,6,6,6,6,6,6,6,6,6,6,6,6,6,6,6,6,8),(0.,
    4.380881447699E-02,7.284169016043E-02,0.112473014719,0.146192462348,
    0.173999981556,0.24999632001,0.325992658464,0.353800177671,
    0.387519625301,0.42715094986,0.456183825544,0.480066702972,
    0.500001026371,0.528856914825,0.54381703154,0.572849852676,
    0.612481102775,0.646200487052,0.674007954015,0.750004149685,
    0.826000345357,0.853807812319,0.887527196597,0.927158446696,
    0.956191267832,1.),.UNSPECIFIED.);
#783 = CARTESIAN_POINT('',(-1.42108547152E-14,-78.10464248562));
#784 = CARTESIAN_POINT('',(-2.72655977396,-78.10464264663));
#785 = CARTESIAN_POINT('',(-5.45524012769,-77.86874920579));
#786 = CARTESIAN_POINT('',(-8.157368081091,-77.39630751396));
#787 = CARTESIAN_POINT('',(-10.81004676489,-76.69726531039));
#788 = CARTESIAN_POINT('',(-13.39506033987,-75.78723948749));
#789 = CARTESIAN_POINT('',(-15.89833956441,-74.68528284902));
#790 = CARTESIAN_POINT('',(-19.90738827868,-72.56815478825));
#791 = CARTESIAN_POINT('',(-21.46535646694,-71.64879097895));
#792 = CARTESIAN_POINT('',(-22.98093752264,-70.65947723815));
#793 = CARTESIAN_POINT('',(-24.45253073548,-69.60579398462));
#794 = CARTESIAN_POINT('',(-25.87921425442,-68.49308068082));
#795 = CARTESIAN_POINT('',(-27.26061770917,-67.32625529649));
#796 = CARTESIAN_POINT('',(-30.42084243972,-64.44902864576));
#797 = CARTESIAN_POINT('',(-32.16033004698,-62.69597979305));
#798 = CARTESIAN_POINT('',(-33.81577060266,-60.86157027697));
#799 = CARTESIAN_POINT('',(-35.38828255,-58.95566572335));
#800 = CARTESIAN_POINT('',(-36.87951262463,-56.98687720472));
#801 = CARTESIAN_POINT('',(-38.29150146842,-54.96245102229));
#802 = CARTESIAN_POINT('',(-40.76241716334,-51.12326954833));
#803 = CARTESIAN_POINT('',(-41.84244168941,-49.32251768289));
#804 = CARTESIAN_POINT('',(-42.86794583434,-47.48960077893));
#805 = CARTESIAN_POINT('',(-43.84018772066,-45.6278324298));
#806 = CARTESIAN_POINT('',(-44.76037702587,-43.74014702133));
#807 = CARTESIAN_POINT('',(-45.62968255014,-41.82910407384));
#808 = CARTESIAN_POINT('',(-47.12506234527,-38.30342631952));
#809 = CARTESIAN_POINT('',(-47.76703865469,-36.69561943999));
#810 = CARTESIAN_POINT('',(-48.37575710753,-35.07471162134));
#811 = CARTESIAN_POINT('',(-48.95178037125,-33.44185720145));
#812 = CARTESIAN_POINT('',(-49.49562593658,-31.79811407343));
#813 = CARTESIAN_POINT('',(-50.00777083663,-30.14444540143));
#814 = CARTESIAN_POINT('',(-51.80288800857,-23.93759178427));
#815 = CARTESIAN_POINT('',(-52.88334467078,-19.32685662111));
#816 = CARTESIAN_POINT('',(-53.73955460341,-14.66599252026));
#817 = CARTESIAN_POINT('',(-54.3774812042,-9.969652132141));
#818 = CARTESIAN_POINT('',(-54.80127950396,-5.250942352245));
#819 = CARTESIAN_POINT('',(-55.01324057124,-0.521423703627));
#820 = CARTESIAN_POINT('',(-55.01324057124,8.939318030057));
#821 = CARTESIAN_POINT('',(-54.80127950395,13.668836678773));
#822 = CARTESIAN_POINT('',(-54.37748120421,18.387546458453));
#823 = CARTESIAN_POINT('',(-53.7395546034,23.083886846843));
#824 = CARTESIAN_POINT('',(-52.88334467079,27.7447509475));
#825 = CARTESIAN_POINT('',(-51.80288800857,32.355486110738));
#826 = CARTESIAN_POINT('',(-50.00777083663,38.562339727886));
#827 = CARTESIAN_POINT('',(-49.49562593658,40.216008399887));
#828 = CARTESIAN_POINT('',(-48.95178037125,41.859751527903));
#829 = CARTESIAN_POINT('',(-48.37575710754,43.492605947795));
#830 = CARTESIAN_POINT('',(-47.7670386547,45.113513766443));
#831 = CARTESIAN_POINT('',(-47.12506234528,46.721320645974));
#832 = CARTESIAN_POINT('',(-45.62968255014,50.246998400302));
#833 = CARTESIAN_POINT('',(-44.76037702588,52.158041347763));
#834 = CARTESIAN_POINT('',(-43.84018772067,54.045726756265));
#835 = CARTESIAN_POINT('',(-42.86794583435,55.907495105404));
#836 = CARTESIAN_POINT('',(-41.84244168942,57.740412009329));
#837 = CARTESIAN_POINT('',(-40.76241716334,59.5411638748));
#838 = CARTESIAN_POINT('',(-38.29150146842,63.380345348757));
#839 = CARTESIAN_POINT('',(-36.87951262464,65.404771531166));
#840 = CARTESIAN_POINT('',(-35.38828255001,67.373560049821));
#841 = CARTESIAN_POINT('',(-33.81577060267,69.279464603442));
#842 = CARTESIAN_POINT('',(-32.16033004699,71.113874119505));
#843 = CARTESIAN_POINT('',(-30.42084243972,72.866922972228));
#844 = CARTESIAN_POINT('',(-27.26061770917,75.744149622951));
#845 = CARTESIAN_POINT('',(-25.87921425443,76.910975007284));
#846 = CARTESIAN_POINT('',(-24.45253073549,78.023688311088));
#847 = CARTESIAN_POINT('',(-22.98093752264,79.077371564614));
#848 = CARTESIAN_POINT('',(-21.46535646695,80.066685305414));
#849 = CARTESIAN_POINT('',(-19.90738827869,80.986049114718));
#850 = CARTESIAN_POINT('',(-16.99502005454,82.524033769769));
#851 = CARTESIAN_POINT('',(-15.65353226009,83.167075018232));
#852 = CARTESIAN_POINT('',(-14.28646492409,83.755857606019));
#853 = CARTESIAN_POINT('',(-12.89565587107,84.287266698803));
#854 = CARTESIAN_POINT('',(-11.48337363901,84.758326045542));
#855 = CARTESIAN_POINT('',(-10.05237304502,85.166346638418));
#856 = CARTESIAN_POINT('',(-7.398694816571,85.795222995653));
#857 = CARTESIAN_POINT('',(-6.180603103759,86.03588940626));
#858 = CARTESIAN_POINT('',(-4.953642490013,86.229821526575));
#859 = CARTESIAN_POINT('',(-3.719872104697,86.37599442788));
#860 = CARTESIAN_POINT('',(-2.481463311076,86.473691016328));
#861 = CARTESIAN_POINT('',(-1.240703519404,86.522537159355));
#862 = CARTESIAN_POINT('',(1.795977954033,86.522536959806));
#863 = CARTESIAN_POINT('',(3.592283267337,86.420186700981));
#864 = CARTESIAN_POINT('',(5.3813172719,86.215422088572));
#865 = CARTESIAN_POINT('',(7.156232465191,85.909966370948));
#866 = CARTESIAN_POINT('',(8.91086999796,85.50692388102));
#867 = CARTESIAN_POINT('',(10.639713809827,85.010486439396));
#868 = CARTESIAN_POINT('',(13.218253176203,84.122601285153));
#869 = CARTESIAN_POINT('',(14.090468486623,83.795691503471));
#870 = CARTESIAN_POINT('',(14.953876614701,83.445707870047));
#871 = CARTESIAN_POINT('',(15.807926330523,83.073376319218));
#872 = CARTESIAN_POINT('',(16.652140027507,82.679450195642));
#873 = CARTESIAN_POINT('',(17.486107846427,82.264696673795));
#874 = CARTESIAN_POINT('',(19.907388278678,80.986049114727));
#875 = CARTESIAN_POINT('',(21.465356466941,80.066685305423));
#876 = CARTESIAN_POINT('',(22.980937522635,79.077371564622));
#877 = CARTESIAN_POINT('',(24.452530735482,78.023688311098));
#878 = CARTESIAN_POINT('',(25.879214254421,76.910975007296));
#879 = CARTESIAN_POINT('',(27.260617709164,75.74414962296));
#880 = CARTESIAN_POINT('',(30.420842439715,72.866922972229));
#881 = CARTESIAN_POINT('',(32.160330046982,71.113874119546));
#882 = CARTESIAN_POINT('',(33.81577060266,69.279464603437));
#883 = CARTESIAN_POINT('',(35.388282550004,67.373560049818));
#884 = CARTESIAN_POINT('',(36.879512624633,65.404771531212));
#885 = CARTESIAN_POINT('',(38.291501468417,63.380345348759));
#886 = CARTESIAN_POINT('',(40.762417163339,59.541163874807));
#887 = CARTESIAN_POINT('',(41.842441689412,57.740412009367));
#888 = CARTESIAN_POINT('',(42.867945834344,55.907495105407));
#889 = CARTESIAN_POINT('',(43.840187720666,54.045726756269));
#890 = CARTESIAN_POINT('',(44.760377025871,52.158041347804));
#891 = CARTESIAN_POINT('',(45.62968255014,50.246998400309));
#892 = CARTESIAN_POINT('',(47.125062345274,46.721320645992));
#893 = CARTESIAN_POINT('',(47.767038654697,45.113513766462));
#894 = CARTESIAN_POINT('',(48.375757107533,43.492605947814));
#895 = CARTESIAN_POINT('',(48.951780371251,41.859751527921));
#896 = CARTESIAN_POINT('',(49.495625936579,40.216008399905));
#897 = CARTESIAN_POINT('',(50.007770836629,38.562339727906));
#898 = CARTESIAN_POINT('',(51.802888008575,32.355486110767));
#899 = CARTESIAN_POINT('',(52.883344670759,27.744750947487));
#900 = CARTESIAN_POINT('',(53.739554603465,23.083886846903));
#901 = CARTESIAN_POINT('',(54.377481204141,18.387546458444));
#902 = CARTESIAN_POINT('',(54.801279504,13.6688366788));
#903 = CARTESIAN_POINT('',(55.013240571234,8.939318030075));
#904 = CARTESIAN_POINT('',(55.013240571251,-0.521423703608));
#905 = CARTESIAN_POINT('',(54.801279503943,-5.250942352245));
#906 = CARTESIAN_POINT('',(54.377481204239,-9.969652132079));
#907 = CARTESIAN_POINT('',(53.739554603383,-14.6659925203));
#908 = CARTESIAN_POINT('',(52.883344670806,-19.32685662106));
#909 = CARTESIAN_POINT('',(51.80288800857,-23.93759178426));
#910 = CARTESIAN_POINT('',(50.007770836635,-30.14444540142));
#911 = CARTESIAN_POINT('',(49.495625936585,-31.79811407342));
#912 = CARTESIAN_POINT('',(48.951780371257,-33.44185720143));
#913 = CARTESIAN_POINT('',(48.37575710754,-35.07471162133));
#914 = CARTESIAN_POINT('',(47.767038654704,-36.69561943997));
#915 = CARTESIAN_POINT('',(47.125062345281,-38.3034263195));
#916 = CARTESIAN_POINT('',(45.629682550147,-41.82910407382));
#917 = CARTESIAN_POINT('',(44.760377025879,-43.74014702132));
#918 = CARTESIAN_POINT('',(43.840187720674,-45.62783242978));
#919 = CARTESIAN_POINT('',(42.867945834353,-47.48960077892));
#920 = CARTESIAN_POINT('',(41.842441689422,-49.32251768288));
#921 = CARTESIAN_POINT('',(40.762417163347,-51.12326954832));
#922 = CARTESIAN_POINT('',(38.291501468429,-54.96245102228));
#923 = CARTESIAN_POINT('',(36.879512624639,-56.98687720471));
#924 = CARTESIAN_POINT('',(35.388282550017,-58.95566572334));
#925 = CARTESIAN_POINT('',(33.815770602674,-60.86157027696));
#926 = CARTESIAN_POINT('',(32.160330046989,-62.69597979305));
#927 = CARTESIAN_POINT('',(30.420842439728,-64.44902864575));
#928 = CARTESIAN_POINT('',(27.260617709176,-67.32625529648));
#929 = CARTESIAN_POINT('',(25.879214254433,-68.49308068081));
#930 = CARTESIAN_POINT('',(24.452530735493,-69.60579398462));
#931 = CARTESIAN_POINT('',(22.980937522647,-70.65947723815));
#932 = CARTESIAN_POINT('',(21.465356466955,-71.64879097894));
#933 = CARTESIAN_POINT('',(19.907388278689,-72.56815478825));
#934 = CARTESIAN_POINT('',(15.898339564437,-74.68528284902));
#935 = CARTESIAN_POINT('',(13.395060339818,-75.78723948749));
#936 = CARTESIAN_POINT('',(10.810046765008,-76.69726531038));
#937 = CARTESIAN_POINT('',(8.157368080974,-77.39630751397));
#938 = CARTESIAN_POINT('',(5.455240127762,-77.86874920578));
#939 = CARTESIAN_POINT('',(2.726559773941,-78.10464264663));
#940 = CARTESIAN_POINT('',(0.,-78.10464248562));
#941 = ( GEOMETRIC_REPRESENTATION_CONTEXT(2) 
PARAMETRIC_REPRESENTATION_CONTEXT() REPRESENTATION_CONTEXT('2D SPACE',''
  ) );
#942 = PCURVE('',#441,#943);
#943 = DEFINITIONAL_REPRESENTATION('',(#944),#1103);
#944 = B_SPLINE_CURVE_WITH_KNOTS('',7,(#945,#946,#947,#948,#949,#950,
    #951,#952,#953,#954,#955,#956,#957,#958,#959,#960,#961,#962,#963,
    #964,#965,#966,#967,#968,#969,#970,#971,#972,#973,#974,#975,#976,
    #977,#978,#979,#980,#981,#982,#983,#984,#985,#986,#987,#988,#989,
    #990,#991,#992,#993,#994,#995,#996,#997,#998,#999,#1000,#1001,#1002,
    #1003,#1004,#1005,#1006,#1007,#1008,#1009,#1010,#1011,#1012,#1013,
    #1014,#1015,#1016,#1017,#1018,#1019,#1020,#1021,#1022,#1023,#1024,
    #1025,#1026,#1027,#1028,#1029,#1030,#1031,#1032,#1033,#1034,#1035,
    #1036,#1037,#1038,#1039,#1040,#1041,#1042,#1043,#1044,#1045,#1046,
    #1047,#1048,#1049,#1050,#1051,#1052,#1053,#1054,#1055,#1056,#1057,
    #1058,#1059,#1060,#1061,#1062,#1063,#1064,#1065,#1066,#1067,#1068,
    #1069,#1070,#1071,#1072,#1073,#1074,#1075,#1076,#1077,#1078,#1079,
    #1080,#1081,#1082,#1083,#1084,#1085,#1086,#1087,#1088,#1089,#1090,
    #1091,#1092,#1093,#1094,#1095,#1096,#1097,#1098,#1099,#1100,#1101,
    #1102),.UNSPECIFIED.,.F.,.F.,(8,6,6,6,6,6,6,6,6,6,6,6,6,6,6,6,6,6,6,
    6,6,6,6,6,6,6,8),(0.,4.380881447699E-02,7.284169016043E-02,
    0.112473014719,0.146192462348,0.173999981556,0.24999632001,
    0.325992658464,0.353800177671,0.387519625301,0.42715094986,
    0.456183825544,0.480066702972,0.500001026371,0.528856914825,
    0.54381703154,0.572849852676,0.612481102775,0.646200487052,
    0.674007954015,0.750004149685,0.826000345357,0.853807812319,
    0.887527196597,0.927158446696,0.956191267832,1.),.UNSPECIFIED.);
#945 = CARTESIAN_POINT('',(6.28318530718,-3.));
#946 = CARTESIAN_POINT('',(6.233623422547,-3.));
#947 = CARTESIAN_POINT('',(6.184023009117,-3.));
#948 = CARTESIAN_POINT('',(6.134706333778,-3.));
#949 = CARTESIAN_POINT('',(6.085889624855,-3.));
#950 = CARTESIAN_POINT('',(6.037736061147,-3.));
#951 = CARTESIAN_POINT('',(5.990371387609,-3.));
#952 = CARTESIAN_POINT('',(5.913091450816,-3.));
#953 = CARTESIAN_POINT('',(5.882668806562,-3.));
#954 = CARTESIAN_POINT('',(5.852642144988,-3.));
#955 = CARTESIAN_POINT('',(5.823019081944,-3.));
#956 = CARTESIAN_POINT('',(5.793800278884,-3.));
#957 = CARTESIAN_POINT('',(5.764980452268,-3.));
#958 = CARTESIAN_POINT('',(5.697736721986,-3.));
#959 = CARTESIAN_POINT('',(5.659654294435,-3.));
#960 = CARTESIAN_POINT('',(5.622267724139,-3.));
#961 = CARTESIAN_POINT('',(5.585542560392,-3.));
#962 = CARTESIAN_POINT('',(5.549441488151,-3.));
#963 = CARTESIAN_POINT('',(5.513922607927,-3.));
#964 = CARTESIAN_POINT('',(5.449171347012,-3.));
#965 = CARTESIAN_POINT('',(5.419795481039,-3.));
#966 = CARTESIAN_POINT('',(5.390782517971,-3.));
#967 = CARTESIAN_POINT('',(5.362107569388,-3.));
#968 = CARTESIAN_POINT('',(5.333747022192,-3.));
#969 = CARTESIAN_POINT('',(5.305677580558,-3.));
#970 = CARTESIAN_POINT('',(5.254948162208,-3.));
#971 = CARTESIAN_POINT('',(5.232203327379,-3.));
#972 = CARTESIAN_POINT('',(5.209628365292,-3.));
#973 = CARTESIAN_POINT('',(5.187211344545,-3.));
#974 = CARTESIAN_POINT('',(5.16494093136,-3.));
#975 = CARTESIAN_POINT('',(5.142806130361,-3.));
#976 = CARTESIAN_POINT('',(5.060643683919,-3.));
#977 = CARTESIAN_POINT('',(5.001436353802,-3.));
#978 = CARTESIAN_POINT('',(4.94293358206,-3.));
#979 = CARTESIAN_POINT('',(4.884950047579,-3.));
#980 = CARTESIAN_POINT('',(4.827313959669,-3.));
#981 = CARTESIAN_POINT('',(4.769856662811,-3.));
#982 = CARTESIAN_POINT('',(4.654921297958,-3.));
#983 = CARTESIAN_POINT('',(4.597464001102,-3.));
#984 = CARTESIAN_POINT('',(4.539827913189,-3.));
#985 = CARTESIAN_POINT('',(4.481844378711,-3.));
#986 = CARTESIAN_POINT('',(4.423341606967,-3.));
#987 = CARTESIAN_POINT('',(4.36413427685,-3.));
#988 = CARTESIAN_POINT('',(4.281971830408,-3.));
#989 = CARTESIAN_POINT('',(4.259837029409,-3.));
#990 = CARTESIAN_POINT('',(4.237566616224,-3.));
#991 = CARTESIAN_POINT('',(4.215149595478,-3.));
#992 = CARTESIAN_POINT('',(4.192574633391,-3.));
#993 = CARTESIAN_POINT('',(4.169829798561,-3.));
#994 = CARTESIAN_POINT('',(4.119100380211,-3.));
#995 = CARTESIAN_POINT('',(4.091030938577,-3.));
#996 = CARTESIAN_POINT('',(4.062670391382,-3.));
#997 = CARTESIAN_POINT('',(4.033995442798,-3.));
#998 = CARTESIAN_POINT('',(4.004982479731,-3.));
#999 = CARTESIAN_POINT('',(3.975606613758,-3.));
#1000 = CARTESIAN_POINT('',(3.910855352842,-3.));
#1001 = CARTESIAN_POINT('',(3.875336472618,-3.));
#1002 = CARTESIAN_POINT('',(3.839235400377,-3.));
#1003 = CARTESIAN_POINT('',(3.802510236631,-3.));
#1004 = CARTESIAN_POINT('',(3.765123666335,-3.));
#1005 = CARTESIAN_POINT('',(3.727041238783,-3.));
#1006 = CARTESIAN_POINT('',(3.659797508502,-3.));
#1007 = CARTESIAN_POINT('',(3.630977681886,-3.));
#1008 = CARTESIAN_POINT('',(3.601758878826,-3.));
#1009 = CARTESIAN_POINT('',(3.572135815782,-3.));
#1010 = CARTESIAN_POINT('',(3.542109154208,-3.));
#1011 = CARTESIAN_POINT('',(3.511686509953,-3.));
#1012 = CARTESIAN_POINT('',(3.455546598224,-3.));
#1013 = CARTESIAN_POINT('',(3.429951934032,-3.));
#1014 = CARTESIAN_POINT('',(3.404111609844,-3.));
#1015 = CARTESIAN_POINT('',(3.378040759094,-3.));
#1016 = CARTESIAN_POINT('',(3.351759090729,-3.));
#1017 = CARTESIAN_POINT('',(3.325291982936,-3.));
#1018 = CARTESIAN_POINT('',(3.276453621717,-3.));
#1019 = CARTESIAN_POINT('',(3.254127041857,-3.));
#1020 = CARTESIAN_POINT('',(3.231712157885,-3.));
#1021 = CARTESIAN_POINT('',(3.20922915415,-3.));
#1022 = CARTESIAN_POINT('',(3.186699301888,-3.));
#1023 = CARTESIAN_POINT('',(3.164145472959,-3.));
#1024 = CARTESIAN_POINT('',(3.108946366729,-3.));
#1025 = CARTESIAN_POINT('',(3.076294139223,-3.));
#1026 = CARTESIAN_POINT('',(3.043717228604,-3.));
#1027 = CARTESIAN_POINT('',(3.011283253702,-3.));
#1028 = CARTESIAN_POINT('',(2.979050840583,-3.));
#1029 = CARTESIAN_POINT('',(2.947072820885,-3.));
#1030 = CARTESIAN_POINT('',(2.898976402602,-3.));
#1031 = CARTESIAN_POINT('',(2.882634934804,-3.));
#1032 = CARTESIAN_POINT('',(2.866379374363,-3.));
#1033 = CARTESIAN_POINT('',(2.850214559333,-3.));
#1034 = CARTESIAN_POINT('',(2.834144467609,-3.));
#1035 = CARTESIAN_POINT('',(2.818172313952,-3.));
#1036 = CARTESIAN_POINT('',(2.771498797227,-3.));
#1037 = CARTESIAN_POINT('',(2.741076152972,-3.));
#1038 = CARTESIAN_POINT('',(2.711049491398,-3.));
#1039 = CARTESIAN_POINT('',(2.681426428354,-3.));
#1040 = CARTESIAN_POINT('',(2.652207625294,-3.));
#1041 = CARTESIAN_POINT('',(2.623387798678,-3.));
#1042 = CARTESIAN_POINT('',(2.556144068396,-3.));
#1043 = CARTESIAN_POINT('',(2.518061640845,-3.));
#1044 = CARTESIAN_POINT('',(2.480675070549,-3.));
#1045 = CARTESIAN_POINT('',(2.443949906802,-3.));
#1046 = CARTESIAN_POINT('',(2.407848834562,-3.));
#1047 = CARTESIAN_POINT('',(2.372329954338,-3.));
#1048 = CARTESIAN_POINT('',(2.307578693422,-3.));
#1049 = CARTESIAN_POINT('',(2.278202827449,-3.));
#1050 = CARTESIAN_POINT('',(2.249189864381,-3.));
#1051 = CARTESIAN_POINT('',(2.220514915798,-3.));
#1052 = CARTESIAN_POINT('',(2.192154368603,-3.));
#1053 = CARTESIAN_POINT('',(2.164084926968,-3.));
#1054 = CARTESIAN_POINT('',(2.113355508618,-3.));
#1055 = CARTESIAN_POINT('',(2.090610673789,-3.));
#1056 = CARTESIAN_POINT('',(2.068035711702,-3.));
#1057 = CARTESIAN_POINT('',(2.045618690955,-3.));
#1058 = CARTESIAN_POINT('',(2.023348277771,-3.));
#1059 = CARTESIAN_POINT('',(2.001213476772,-3.));
#1060 = CARTESIAN_POINT('',(1.91905103033,-3.));
#1061 = CARTESIAN_POINT('',(1.85984370021,-3.));
#1062 = CARTESIAN_POINT('',(1.801340928475,-3.));
#1063 = CARTESIAN_POINT('',(1.743357393985,-3.));
#1064 = CARTESIAN_POINT('',(1.685721306081,-3.));
#1065 = CARTESIAN_POINT('',(1.628264009221,-3.));
#1066 = CARTESIAN_POINT('',(1.513328644369,-3.));
#1067 = CARTESIAN_POINT('',(1.455871347511,-3.));
#1068 = CARTESIAN_POINT('',(1.398235259603,-3.));
#1069 = CARTESIAN_POINT('',(1.340251725118,-3.));
#1070 = CARTESIAN_POINT('',(1.281748953379,-3.));
#1071 = CARTESIAN_POINT('',(1.22254162326,-3.));
#1072 = CARTESIAN_POINT('',(1.140379176818,-3.));
#1073 = CARTESIAN_POINT('',(1.118244375819,-3.));
#1074 = CARTESIAN_POINT('',(1.095973962635,-3.));
#1075 = CARTESIAN_POINT('',(1.073556941888,-3.));
#1076 = CARTESIAN_POINT('',(1.050981979801,-3.));
#1077 = CARTESIAN_POINT('',(1.028237144972,-3.));
#1078 = CARTESIAN_POINT('',(0.977507726622,-3.));
#1079 = CARTESIAN_POINT('',(0.949438284987,-3.));
#1080 = CARTESIAN_POINT('',(0.921077737792,-3.));
#1081 = CARTESIAN_POINT('',(0.892402789209,-3.));
#1082 = CARTESIAN_POINT('',(0.863389826141,-3.));
#1083 = CARTESIAN_POINT('',(0.834013960168,-3.));
#1084 = CARTESIAN_POINT('',(0.769262699252,-3.));
#1085 = CARTESIAN_POINT('',(0.733743819028,-3.));
#1086 = CARTESIAN_POINT('',(0.697642746788,-3.));
#1087 = CARTESIAN_POINT('',(0.660917583041,-3.));
#1088 = CARTESIAN_POINT('',(0.623531012745,-3.));
#1089 = CARTESIAN_POINT('',(0.585448585194,-3.));
#1090 = CARTESIAN_POINT('',(0.518204854912,-3.));
#1091 = CARTESIAN_POINT('',(0.489385028296,-3.));
#1092 = CARTESIAN_POINT('',(0.460166225236,-3.));
#1093 = CARTESIAN_POINT('',(0.430543162192,-3.));
#1094 = CARTESIAN_POINT('',(0.400516500618,-3.));
#1095 = CARTESIAN_POINT('',(0.370093856363,-3.));
#1096 = CARTESIAN_POINT('',(0.292813919571,-3.));
#1097 = CARTESIAN_POINT('',(0.245449246033,-3.));
#1098 = CARTESIAN_POINT('',(0.197295682326,-3.));
#1099 = CARTESIAN_POINT('',(0.148478973401,-3.));
#1100 = CARTESIAN_POINT('',(9.916229806312E-02,-3.));
#1101 = CARTESIAN_POINT('',(4.956188463238E-02,-3.));
#1102 = CARTESIAN_POINT('',(0.,-3.));
#1103 = ( GEOMETRIC_REPRESENTATION_CONTEXT(2) 
PARAMETRIC_REPRESENTATION_CONTEXT() REPRESENTATION_CONTEXT('2D SPACE',''
  ) );
#1104 = ADVANCED_FACE('',(#1105),#441,.T.);
#1105 = FACE_BOUND('',#1106,.T.);
#1106 = EDGE_LOOP('',(#1107,#1108,#1129,#1130));
#1107 = ORIENTED_EDGE('',*,*,#115,.T.);
#1108 = ORIENTED_EDGE('',*,*,#1109,.T.);
#1109 = EDGE_CURVE('',#116,#618,#1110,.T.);
#1110 = SEAM_CURVE('',#1111,(#1115,#1122),.PCURVE_S1.);
#1111 = LINE('',#1112,#1113);
#1112 = CARTESIAN_POINT('',(370.,82.313589648853,0.));
#1113 = VECTOR('',#1114,1.);
#1114 = DIRECTION('',(1.,0.,0.));
#1115 = PCURVE('',#441,#1116);
#1116 = DEFINITIONAL_REPRESENTATION('',(#1117),#1121);
#1117 = LINE('',#1118,#1119);
#1118 = CARTESIAN_POINT('',(6.28318530718,0.));
#1119 = VECTOR('',#1120,1.);
#1120 = DIRECTION('',(0.,-1.));
#1121 = ( GEOMETRIC_REPRESENTATION_CONTEXT(2) 
PARAMETRIC_REPRESENTATION_CONTEXT() REPRESENTATION_CONTEXT('2D SPACE',''
  ) );
#1122 = PCURVE('',#441,#1123);
#1123 = DEFINITIONAL_REPRESENTATION('',(#1124),#1128);
#1124 = LINE('',#1125,#1126);
#1125 = CARTESIAN_POINT('',(0.,0.));
#1126 = VECTOR('',#1127,1.);
#1127 = DIRECTION('',(0.,-1.));
#1128 = ( GEOMETRIC_REPRESENTATION_CONTEXT(2) 
PARAMETRIC_REPRESENTATION_CONTEXT() REPRESENTATION_CONTEXT('2D SPACE',''
  ) );
#1129 = ORIENTED_EDGE('',*,*,#617,.F.);
#1130 = ORIENTED_EDGE('',*,*,#1109,.F.);
#1131 = ( GEOMETRIC_REPRESENTATION_CONTEXT(3) 
GLOBAL_UNCERTAINTY_ASSIGNED_CONTEXT((#1135)) 
GLOBAL_UNIT_ASSIGNED_CONTEXT((#1132,#1133,#1134)) REPRESENTATION_CONTEXT
('Context #1','3D Context with UNIT and UNCERTAINTY') );
#1132 = ( LENGTH_UNIT() NAMED_UNIT(*) SI_UNIT(.MILLI.,.METRE.) );
#1133 = ( NAMED_UNIT(*) PLANE_ANGLE_UNIT() SI_UNIT($,.RADIAN.) );
#1134 = ( NAMED_UNIT(*) SI_UNIT($,.STERADIAN.) SOLID_ANGLE_UNIT() );
#1135 = UNCERTAINTY_MEASURE_WITH_UNIT(LENGTH_MEASURE(2.E-06),#1132,
  'distance_accuracy_value','confusion accuracy');
#1136 = PRODUCT_RELATED_PRODUCT_CATEGORY('part',$,(#7));
ENDSEC;
END-ISO-10303-21;
